<svg width="203" height="64" viewBox="0 0 203 64" fill="none" xmlns="http://www.w3.org/2000/svg">
    <path d="M0.556 9.5V0.98H1.6V4.976H6.052V0.98H7.096V9.5H6.052V5.924H1.6V9.5H0.556ZM11.0924 1.76L10.2164 2.828H9.22044L10.6004 1.148H11.6204L12.9524 2.828H11.9804L11.1164 1.76H11.0924ZM13.7564 6.476C13.7564 6.632 13.7324 6.8 13.7324 6.872H9.17244C9.30444 7.964 10.0724 8.684 11.1764 8.684C11.9564 8.684 12.5084 8.348 12.8684 7.904L13.5524 8.48C13.0484 9.128 12.3164 9.572 11.1404 9.572C9.41244 9.572 8.18844 8.372 8.18844 6.584C8.18844 4.82 9.40044 3.584 11.0684 3.584C12.6644 3.584 13.7564 4.808 13.7564 6.476ZM11.0564 4.472C10.1204 4.472 9.37644 5.084 9.19644 6.08H12.7844C12.6404 5.12 12.0164 4.472 11.0564 4.472ZM11.1524 10.628C11.5484 10.628 11.8604 10.94 11.8604 11.324C11.8604 11.708 11.5484 12.02 11.1524 12.02C10.7564 12.02 10.4444 11.708 10.4444 11.324C10.4444 10.94 10.7564 10.628 11.1524 10.628ZM19.0951 9.572C18.0631 9.572 17.5831 8.936 17.5831 7.76V4.496H16.8271V3.656H17.5831V1.664L18.5551 1.556V3.656H20.4871V4.496H18.5551V7.616C18.5551 8.324 18.7111 8.66 19.2631 8.66C19.6111 8.66 19.9711 8.516 20.2591 8.36L20.5111 9.212C20.1871 9.404 19.7911 9.572 19.0951 9.572ZM21.287 9.5V0.667999H22.259V4.676H22.271C22.727 3.98 23.495 3.584 24.431 3.584C25.691 3.584 26.555 4.328 26.555 5.996V9.5H25.583V6.272C25.583 4.952 24.995 4.472 24.143 4.472C22.979 4.472 22.259 5.24 22.259 6.56V9.5H21.287ZM31.8877 1.784L33.0397 0.0799997H34.1437L32.6557 1.784H31.8877ZM28.5517 2.828L29.9317 1.148H30.9517L32.2837 2.828H31.3117L30.4477 1.76H30.4237L29.5477 2.828H28.5517ZM30.4117 9.572C28.5997 9.572 27.3877 8.264 27.3877 6.584C27.3877 4.904 28.5997 3.584 30.4117 3.584C32.1397 3.584 33.4237 4.808 33.4237 6.584C33.4237 8.36 32.1397 9.572 30.4117 9.572ZM30.4117 8.684C31.5277 8.684 32.4277 7.832 32.4277 6.584C32.4277 5.336 31.5397 4.472 30.4117 4.472C29.1877 4.472 28.3837 5.42 28.3837 6.584C28.3837 7.748 29.1997 8.684 30.4117 8.684ZM34.3729 9.5V3.656H35.3449V4.712H35.3569C35.8129 4.004 36.5809 3.584 37.4809 3.584C38.7409 3.584 39.5809 4.364 39.5809 6.032V9.5H38.6089V6.308C38.6089 4.94 38.0209 4.472 37.1689 4.472C36.0649 4.472 35.3449 5.264 35.3449 6.584V9.5H34.3729ZM43.367 11.948C42.491 11.948 41.687 11.732 40.991 11.312L41.231 10.448C41.903 10.832 42.491 11.06 43.331 11.06C44.651 11.06 45.287 10.292 45.287 9.308V8.372H45.263C44.831 8.996 44.135 9.392 43.235 9.392C41.639 9.392 40.403 8.24 40.403 6.5C40.403 4.832 41.555 3.584 43.199 3.584C44.027 3.584 44.783 3.956 45.251 4.592H45.275V3.656H46.247V9.068C46.247 10.748 45.407 11.948 43.367 11.948ZM43.355 8.492C44.531 8.492 45.311 7.616 45.311 6.452C45.311 5.276 44.459 4.484 43.367 4.484C42.179 4.484 41.387 5.336 41.387 6.476C41.387 7.712 42.251 8.492 43.355 8.492ZM51.8958 9.572C50.8638 9.572 50.3838 8.936 50.3838 7.76V4.496H49.6278V3.656H50.3838V1.664L51.3558 1.556V3.656H53.2878V4.496H51.3558V7.616C51.3558 8.324 51.5118 8.66 52.0638 8.66C52.4118 8.66 52.7718 8.516 53.0598 8.36L53.3118 9.212C52.9878 9.404 52.5918 9.572 51.8958 9.572ZM54.0878 9.5V0.667999H55.0598V4.676H55.0718C55.5278 3.98 56.2958 3.584 57.2318 3.584C58.4918 3.584 59.3558 4.328 59.3558 5.996V9.5H58.3838V6.272C58.3838 4.952 57.7958 4.472 56.9438 4.472C55.7798 4.472 55.0598 5.24 55.0598 6.56V9.5H54.0878ZM66.3204 2.72H67.3164V3.596C67.3164 4.94 66.6924 5.66 65.5404 5.72V9.5H64.5684V8.492H64.5564C64.1124 9.188 63.3924 9.572 62.6244 9.572C61.2804 9.572 60.4284 8.804 60.4284 7.136V3.656H61.4004V6.86C61.4004 8.18 61.9044 8.684 62.8284 8.684C63.7644 8.684 64.5684 7.88 64.5684 6.488V3.656H65.5404V5.048C66.2124 4.916 66.3204 4.412 66.3204 3.548V2.72ZM63.0444 10.628C63.4404 10.628 63.7524 10.94 63.7524 11.324C63.7524 11.708 63.4404 12.02 63.0444 12.02C62.6484 12.02 62.3364 11.708 62.3364 11.324C62.3364 10.94 62.6484 10.628 63.0444 10.628ZM70.2099 9.572C68.5059 9.572 67.2939 8.36 67.2939 6.584C67.2939 4.82 68.5059 3.584 70.2459 3.584C71.1219 3.584 72.0219 3.944 72.5979 4.628L71.9379 5.216C71.5659 4.784 70.9899 4.472 70.2939 4.472C69.0939 4.472 68.2899 5.348 68.2899 6.584C68.2899 7.832 69.0939 8.684 70.2819 8.684C70.9779 8.684 71.5899 8.384 71.9499 7.94L72.6219 8.552C72.1299 9.14 71.3499 9.572 70.2099 9.572ZM76.1933 9.5V0.667999H77.1653V4.676H77.1773C77.6333 3.98 78.4013 3.584 79.3373 3.584C80.5973 3.584 81.4613 4.328 81.4613 5.996V9.5H80.4893V6.272C80.4893 4.952 79.9013 4.472 79.0493 4.472C77.8853 4.472 77.1653 5.24 77.1653 6.56V9.5H76.1933ZM83.2299 2.588C82.8339 2.588 82.5219 2.276 82.5219 1.892C82.5219 1.508 82.8339 1.196 83.2299 1.196C83.6259 1.196 83.9379 1.508 83.9379 1.892C83.9379 2.276 83.6259 2.588 83.2299 2.588ZM82.7379 9.5V3.656H83.7099V9.5H82.7379ZM87.6393 1.76L86.7633 2.828H85.7673L87.1473 1.148H88.1673L89.4993 2.828H88.5273L87.6633 1.76H87.6393ZM90.3033 6.476C90.3033 6.632 90.2793 6.8 90.2793 6.872H85.7193C85.8513 7.964 86.6193 8.684 87.7233 8.684C88.5033 8.684 89.0553 8.348 89.4153 7.904L90.0993 8.48C89.5953 9.128 88.8633 9.572 87.6873 9.572C85.9593 9.572 84.7353 8.372 84.7353 6.584C84.7353 4.82 85.9473 3.584 87.6153 3.584C89.2113 3.584 90.3033 4.808 90.3033 6.476ZM87.6033 4.472C86.6673 4.472 85.9233 5.084 85.7433 6.08H89.3313C89.1873 5.12 88.5633 4.472 87.6033 4.472ZM87.6993 10.628C88.0953 10.628 88.4073 10.94 88.4073 11.324C88.4073 11.708 88.0953 12.02 87.6993 12.02C87.3033 12.02 86.9913 11.708 86.9913 11.324C86.9913 10.94 87.3033 10.628 87.6993 10.628ZM91.2284 9.5V3.656H92.2004V4.712H92.2124C92.6684 4.004 93.4364 3.584 94.3364 3.584C95.5964 3.584 96.4364 4.364 96.4364 6.032V9.5H95.4644V6.308C95.4644 4.94 94.8764 4.472 94.0244 4.472C92.9204 4.472 92.2004 5.264 92.2004 6.584V9.5H91.2284ZM102.98 9.608C101.228 9.608 99.956 8.384 99.956 6.584C99.956 4.772 101.216 3.548 103.028 3.548C103.94 3.548 104.9 3.884 105.512 4.604L104.48 5.576C104.168 5.192 103.688 4.952 103.136 4.952C102.188 4.952 101.552 5.612 101.552 6.572C101.552 7.544 102.2 8.192 103.136 8.192C103.736 8.192 104.204 7.94 104.516 7.556L105.536 8.54C105.032 9.164 104.228 9.608 102.98 9.608ZM106.852 2.888L108.088 1.124H109.756L110.968 2.888H109.528L108.928 1.988H108.904L108.304 2.888H106.852ZM108.916 9.608C107.044 9.608 105.796 8.324 105.796 6.572C105.796 4.82 107.044 3.548 108.916 3.548C110.74 3.548 112.024 4.772 112.024 6.572C112.024 8.36 110.74 9.608 108.916 9.608ZM108.916 8.192C109.756 8.192 110.428 7.532 110.428 6.572C110.428 5.612 109.78 4.952 108.916 4.952C108.004 4.952 107.392 5.648 107.392 6.572C107.392 7.484 108.016 8.192 108.916 8.192ZM108.916 10.328C109.492 10.328 109.912 10.76 109.912 11.3C109.912 11.828 109.492 12.26 108.916 12.26C108.352 12.26 107.92 11.828 107.92 11.3C107.92 10.76 108.352 10.328 108.916 10.328ZM112.757 9.5V3.632H114.329V4.388H114.353C114.821 3.836 115.493 3.548 116.225 3.548C117.473 3.548 118.349 4.22 118.349 6.02V9.5H116.777V6.416C116.777 5.3 116.381 4.952 115.649 4.952C114.857 4.952 114.329 5.504 114.329 6.56V9.5H112.757ZM121.963 11.972C121.063 11.972 120.259 11.78 119.563 11.384L119.935 10.052C120.511 10.376 121.075 10.604 121.843 10.604C122.935 10.604 123.487 10.004 123.487 9.308V8.72H123.463C123.043 9.152 122.455 9.392 121.759 9.392C120.151 9.392 118.963 8.216 118.963 6.512C118.963 4.784 120.115 3.548 121.675 3.548C122.323 3.548 122.959 3.776 123.439 4.244H123.463V3.632H125.035V8.828C125.035 10.664 124.231 11.972 121.963 11.972ZM122.047 7.976C122.911 7.976 123.523 7.34 123.523 6.452C123.523 5.564 122.887 4.964 122.047 4.964C121.171 4.964 120.559 5.576 120.559 6.464C120.559 7.388 121.207 7.976 122.047 7.976ZM131.476 9.572C129.772 9.572 128.56 8.36 128.56 6.584C128.56 4.82 129.772 3.584 131.512 3.584C132.388 3.584 133.288 3.944 133.864 4.628L133.204 5.216C132.832 4.784 132.256 4.472 131.56 4.472C130.36 4.472 129.556 5.348 129.556 6.584C129.556 7.832 130.36 8.684 131.548 8.684C132.244 8.684 132.856 8.384 133.216 7.94L133.888 8.552C133.396 9.14 132.616 9.572 131.476 9.572ZM136.813 2.816L138.229 1.124L139.321 1.112L137.833 2.816H136.813ZM137.149 9.572C135.541 9.572 134.305 8.396 134.305 6.62C134.305 4.892 135.493 3.584 137.149 3.584C138.013 3.584 138.769 3.992 139.189 4.7L139.213 4.688V3.656H140.185V9.5H139.249V8.444H139.237C138.817 9.14 138.097 9.572 137.149 9.572ZM137.293 8.684C138.373 8.684 139.249 7.856 139.249 6.62C139.249 5.42 138.445 4.472 137.293 4.472C136.189 4.472 135.289 5.324 135.289 6.62C135.289 7.796 136.093 8.684 137.293 8.684ZM143.976 9.572C142.272 9.572 141.06 8.36 141.06 6.584C141.06 4.82 142.272 3.584 144.012 3.584C144.888 3.584 145.788 3.944 146.364 4.628L145.704 5.216C145.332 4.784 144.756 4.472 144.06 4.472C142.86 4.472 142.056 5.348 142.056 6.584C142.056 7.832 142.86 8.684 144.048 8.684C144.744 8.684 145.356 8.384 145.716 7.94L146.388 8.552C145.896 9.14 145.116 9.572 143.976 9.572ZM152.563 9.572C151.495 9.572 150.403 9.164 149.551 8.252L150.223 7.448C150.835 8.216 151.747 8.6 152.575 8.6C153.619 8.6 154.327 8.12 154.327 7.292C154.327 6.344 153.559 6.092 152.419 5.66C151.159 5.192 149.875 4.652 149.875 3.152C149.875 1.88 151.015 0.896 152.479 0.896C153.427 0.896 154.363 1.244 155.167 1.892L154.531 2.72C153.847 2.156 153.115 1.856 152.479 1.856C151.675 1.856 150.967 2.288 150.955 3.104C150.943 3.92 151.711 4.22 152.779 4.628C154.207 5.192 155.419 5.576 155.419 7.172C155.419 8.732 154.051 9.572 152.563 9.572ZM156.564 9.5V0.98H159.54C161.532 0.98 162.36 2.108 162.36 3.62C162.36 5.42 161.136 6.248 159.36 6.248H157.608V9.5H156.564ZM157.608 5.3H159.264C160.68 5.3 161.28 4.58 161.28 3.596C161.28 2.504 160.572 1.928 159.432 1.928H157.608V5.3ZM161.511 10.856L160.731 10.496L165.351 0.26L166.119 0.632L161.511 10.856ZM166.521 9.5V0.98H169.065C171.765 0.98 173.493 2.732 173.493 5.252C173.493 7.76 171.825 9.5 169.101 9.5H166.521ZM167.565 8.552H169.041C171.117 8.552 172.413 7.172 172.413 5.252C172.413 3.308 171.069 1.928 169.077 1.928H167.565V8.552ZM176.744 9.5L173.528 0.98H174.656L177.212 7.988H177.224L179.78 0.98H180.896L177.68 9.5H176.744ZM186.933 9.572C185.229 9.572 184.017 8.36 184.017 6.584C184.017 4.82 185.229 3.584 186.969 3.584C187.845 3.584 188.745 3.944 189.321 4.628L188.661 5.216C188.289 4.784 187.713 4.472 187.017 4.472C185.817 4.472 185.013 5.348 185.013 6.584C185.013 7.832 185.817 8.684 187.005 8.684C187.701 8.684 188.313 8.384 188.673 7.94L189.345 8.552C188.853 9.14 188.073 9.572 186.933 9.572ZM192.258 2.816L193.674 1.124L194.766 1.112L193.278 2.816H192.258ZM192.798 9.572C190.986 9.572 189.774 8.264 189.774 6.584C189.774 4.904 190.986 3.584 192.798 3.584C194.526 3.584 195.81 4.808 195.81 6.584C195.81 8.36 194.526 9.572 192.798 9.572ZM192.798 8.684C193.914 8.684 194.814 7.832 194.814 6.584C194.814 5.336 193.926 4.472 192.798 4.472C191.574 4.472 190.77 5.42 190.77 6.584C190.77 7.748 191.586 8.684 192.798 8.684ZM2.956 26.572C1.252 26.572 0.04 25.36 0.04 23.584C0.04 21.82 1.252 20.584 2.992 20.584C3.868 20.584 4.768 20.944 5.344 21.628L4.684 22.216C4.312 21.784 3.736 21.472 3.04 21.472C1.84 21.472 1.036 22.348 1.036 23.584C1.036 24.832 1.84 25.684 3.028 25.684C3.724 25.684 4.336 25.384 4.696 24.94L5.368 25.552C4.876 26.14 4.096 26.572 2.956 26.572ZM8.42581 19.804L6.97381 18.148L8.07781 18.16L9.40981 19.804H8.42581ZM8.23381 26.572C6.88981 26.572 6.03781 25.804 6.03781 24.136V20.656H7.00981V23.86C7.00981 25.18 7.51381 25.684 8.43781 25.684C9.37381 25.684 10.1778 24.88 10.1778 23.488V20.656H11.1498V26.5H10.1778V25.492H10.1658C9.72181 26.188 9.00181 26.572 8.23381 26.572ZM12.4081 26.5V20.656H13.3801V21.712H13.3921C13.8481 21.004 14.6161 20.584 15.5161 20.584C16.7761 20.584 17.6161 21.364 17.6161 23.032V26.5H16.6441V23.308C16.6441 21.94 16.0561 21.472 15.2041 21.472C14.1001 21.472 13.3801 22.264 13.3801 23.584V26.5H12.4081ZM21.4022 28.948C20.5262 28.948 19.7222 28.732 19.0262 28.312L19.2662 27.448C19.9382 27.832 20.5262 28.06 21.3662 28.06C22.6862 28.06 23.3222 27.292 23.3222 26.308V25.372H23.2982C22.8662 25.996 22.1702 26.392 21.2702 26.392C19.6742 26.392 18.4382 25.24 18.4382 23.5C18.4382 21.832 19.5902 20.584 21.2342 20.584C22.0622 20.584 22.8182 20.956 23.2862 21.592H23.3102V20.656H24.2822V26.068C24.2822 27.748 23.4422 28.948 21.4022 28.948ZM21.3902 25.492C22.5662 25.492 23.3462 24.616 23.3462 23.452C23.3462 22.276 22.4942 21.484 21.4022 21.484C20.2142 21.484 19.4222 22.336 19.4222 23.476C19.4222 24.712 20.2862 25.492 21.3902 25.492ZM28.287 26.5V20.656H29.259V21.712H29.271C29.715 21.004 30.447 20.584 31.227 20.584C32.103 20.584 32.739 21.028 33.039 21.832H33.051C33.495 21.04 34.287 20.584 35.199 20.584C36.495 20.584 37.215 21.472 37.215 23.14V26.5H36.243V23.404C36.243 22.156 35.799 21.472 34.911 21.472C33.999 21.472 33.267 22.288 33.267 23.596V26.5H32.295V23.404C32.295 22.156 31.815 21.472 30.939 21.472C29.979 21.472 29.259 22.288 29.259 23.596V26.5H28.287ZM42.0162 19.756C41.6082 19.756 41.2602 19.528 40.9602 19.324C40.7202 19.168 40.4922 19.036 40.2642 19.036C39.9402 19.036 39.7002 19.288 39.5442 19.708L38.9202 19.432C39.1482 18.712 39.5562 18.256 40.1682 18.256C40.5882 18.256 40.8762 18.424 41.1402 18.604C41.3922 18.76 41.6322 18.952 41.9082 18.952C42.1962 18.952 42.4482 18.712 42.6042 18.292L43.2162 18.496C43.0002 19.3 42.5442 19.756 42.0162 19.756ZM40.8642 26.572C39.2562 26.572 38.0202 25.396 38.0202 23.62C38.0202 21.892 39.2082 20.584 40.8642 20.584C41.7282 20.584 42.4842 20.992 42.9042 21.7L42.9282 21.688V20.656H43.9002V26.5H42.9642V25.444H42.9522C42.5322 26.14 41.8122 26.572 40.8642 26.572ZM41.0082 25.684C42.0882 25.684 42.9642 24.856 42.9642 23.62C42.9642 22.42 42.1602 21.472 41.0082 21.472C39.9042 21.472 39.0042 22.324 39.0042 23.62C39.0042 24.796 39.8082 25.684 41.0082 25.684ZM49.6559 26.5L47.2799 20.656H48.3359L50.1239 25.264H50.1359L51.9239 20.656H52.9679L50.5919 26.5H49.6559ZM55.7822 26.572C54.1742 26.572 52.9382 25.396 52.9382 23.62C52.9382 21.892 54.1262 20.584 55.7822 20.584C56.6462 20.584 57.4022 20.992 57.8222 21.7L57.8462 21.688V20.656H58.8182V26.5H57.8822V25.444H57.8702C57.4502 26.14 56.7302 26.572 55.7822 26.572ZM55.9262 25.684C57.0062 25.684 57.8822 24.856 57.8822 23.62C57.8822 22.42 57.0782 21.472 55.9262 21.472C54.8222 21.472 53.9222 22.324 53.9222 23.62C53.9222 24.796 54.7262 25.684 55.9262 25.684ZM55.9142 27.628C56.3102 27.628 56.6222 27.94 56.6222 28.324C56.6222 28.708 56.3102 29.02 55.9142 29.02C55.5182 29.02 55.2062 28.708 55.2062 28.324C55.2062 27.94 55.5182 27.628 55.9142 27.628ZM62.6083 26.572C60.9043 26.572 59.6923 25.36 59.6923 23.584C59.6923 21.82 60.9043 20.584 62.6443 20.584C63.5203 20.584 64.4203 20.944 64.9963 21.628L64.3363 22.216C63.9643 21.784 63.3883 21.472 62.6923 21.472C61.4923 21.472 60.6883 22.348 60.6883 23.584C60.6883 24.832 61.4923 25.684 62.6803 25.684C63.3763 25.684 63.9883 25.384 64.3483 24.94L65.0203 25.552C64.5283 26.14 63.7483 26.572 62.6083 26.572ZM65.8222 26.5V17.668H66.7942V21.676H66.8062C67.2622 20.98 68.0302 20.584 68.9662 20.584C70.2262 20.584 71.0902 21.328 71.0902 22.996V26.5H70.1182V23.272C70.1182 21.952 69.5302 21.472 68.6782 21.472C67.5142 21.472 66.7942 22.24 66.7942 23.56V26.5H65.8222ZM72.7988 26.584C72.4028 26.584 72.0788 26.272 72.0788 25.876C72.0788 25.48 72.4028 25.168 72.7988 25.168C73.1948 25.168 73.5068 25.48 73.5068 25.876C73.5068 26.272 73.1948 26.584 72.7988 26.584ZM3.016 43.572C1.948 43.572 0.856 43.164 0.00400004 42.252L0.676 41.448C1.288 42.216 2.2 42.6 3.028 42.6C4.072 42.6 4.78 42.12 4.78 41.292C4.78 40.344 4.012 40.092 2.872 39.66C1.612 39.192 0.328 38.652 0.328 37.152C0.328 35.88 1.468 34.896 2.932 34.896C3.88 34.896 4.816 35.244 5.62 35.892L4.984 36.72C4.3 36.156 3.568 35.856 2.932 35.856C2.128 35.856 1.42 36.288 1.408 37.104C1.396 37.92 2.164 38.22 3.232 38.628C4.66 39.192 5.872 39.576 5.872 41.172C5.872 42.732 4.504 43.572 3.016 43.572ZM11.0009 35.784L12.1529 34.08H13.2569L11.7689 35.784H11.0009ZM7.66494 36.828L9.04494 35.148H10.0649L11.3969 36.828H10.4249L9.56094 35.76H9.53694L8.66094 36.828H7.66494ZM9.52494 43.572C7.71294 43.572 6.50094 42.264 6.50094 40.584C6.50094 38.904 7.71294 37.584 9.52494 37.584C11.2529 37.584 12.5369 38.808 12.5369 40.584C12.5369 42.36 11.2529 43.572 9.52494 43.572ZM9.52494 42.684C10.6409 42.684 11.5409 41.832 11.5409 40.584C11.5409 39.336 10.6529 38.472 9.52494 38.472C8.30094 38.472 7.49694 39.42 7.49694 40.584C7.49694 41.748 8.31294 42.684 9.52494 42.684ZM16.3278 43.5V34.668H17.2998V43.5H16.3278ZM24.4572 36.72H25.4532V37.596C25.4532 38.94 24.8292 39.66 23.6772 39.72V43.5H22.7052V42.492H22.6932C22.2492 43.188 21.5292 43.572 20.7612 43.572C19.4172 43.572 18.5652 42.804 18.5652 41.136V37.656H19.5372V40.86C19.5372 42.18 20.0412 42.684 20.9652 42.684C21.9012 42.684 22.7052 41.88 22.7052 40.488V37.656H23.6772V39.048C24.3492 38.916 24.4572 38.412 24.4572 37.548V36.72ZM31.7066 36.72H32.7026V37.596C32.7026 38.772 32.2226 39.468 31.3466 39.66C31.4186 39.948 31.4666 40.26 31.4666 40.584C31.4666 42.36 30.1826 43.572 28.4546 43.572C26.6426 43.572 25.4306 42.264 25.4306 40.584C25.4306 38.904 26.6426 37.584 28.4546 37.584C29.6066 37.584 30.5546 38.124 31.0706 39.012C31.6106 38.844 31.7066 38.352 31.7066 37.548V36.72ZM28.4546 42.684C29.5706 42.684 30.4706 41.832 30.4706 40.584C30.4706 39.336 29.5826 38.472 28.4546 38.472C27.2306 38.472 26.4266 39.42 26.4266 40.584C26.4266 41.748 27.2426 42.684 28.4546 42.684ZM28.4546 44.628C28.8506 44.628 29.1626 44.94 29.1626 45.324C29.1626 45.708 28.8506 46.02 28.4546 46.02C28.0586 46.02 27.7466 45.708 27.7466 45.324C27.7466 44.94 28.0586 44.628 28.4546 44.628ZM33.33 43.5V37.656H34.302V38.712H34.314C34.77 38.004 35.538 37.584 36.438 37.584C37.698 37.584 38.538 38.364 38.538 40.032V43.5H37.566V40.308C37.566 38.94 36.978 38.472 36.126 38.472C35.022 38.472 34.302 39.264 34.302 40.584V43.5H33.33ZM42.324 45.948C41.448 45.948 40.644 45.732 39.948 45.312L40.188 44.448C40.86 44.832 41.448 45.06 42.288 45.06C43.608 45.06 44.244 44.292 44.244 43.308V42.372H44.22C43.788 42.996 43.092 43.392 42.192 43.392C40.596 43.392 39.36 42.24 39.36 40.5C39.36 38.832 40.512 37.584 42.156 37.584C42.984 37.584 43.74 37.956 44.208 38.592H44.232V37.656H45.204V43.068C45.204 44.748 44.364 45.948 42.324 45.948ZM42.312 42.492C43.488 42.492 44.268 41.616 44.268 40.452C44.268 39.276 43.416 38.484 42.324 38.484C41.136 38.484 40.344 39.336 40.344 40.476C40.344 41.712 41.208 42.492 42.312 42.492ZM51.8129 43.572C50.7449 43.572 49.6529 43.164 48.8009 42.252L49.4729 41.448C50.0849 42.216 50.9969 42.6 51.8249 42.6C52.8689 42.6 53.5769 42.12 53.5769 41.292C53.5769 40.344 52.8089 40.092 51.6689 39.66C50.4089 39.192 49.1249 38.652 49.1249 37.152C49.1249 35.88 50.2649 34.896 51.7289 34.896C52.6769 34.896 53.6129 35.244 54.4169 35.892L53.7809 36.72C53.0969 36.156 52.3649 35.856 51.7289 35.856C50.9249 35.856 50.2169 36.288 50.2049 37.104C50.1929 37.92 50.9609 38.22 52.0289 38.628C53.4569 39.192 54.6689 39.576 54.6689 41.172C54.6689 42.732 53.3009 43.572 51.8129 43.572ZM55.8138 43.5V34.98H58.7898C60.7818 34.98 61.6098 36.108 61.6098 37.62C61.6098 39.42 60.3858 40.248 58.6098 40.248H56.8578V43.5H55.8138ZM56.8578 39.3H58.5138C59.9298 39.3 60.5298 38.58 60.5298 37.596C60.5298 36.504 59.8218 35.928 58.6818 35.928H56.8578V39.3ZM60.761 44.856L59.981 44.496L64.601 34.26L65.369 34.632L60.761 44.856ZM65.7708 43.5V34.98H68.3148C71.0148 34.98 72.7428 36.732 72.7428 39.252C72.7428 41.76 71.0748 43.5 68.3508 43.5H65.7708ZM66.8148 42.552H68.2908C70.3668 42.552 71.6628 41.172 71.6628 39.252C71.6628 37.308 70.3188 35.928 68.3268 35.928H66.8148V42.552ZM75.994 43.5L72.778 34.98H73.906L76.462 41.988H76.474L79.03 34.98H80.146L76.93 43.5H75.994ZM83.4706 39.276V38.376H89.0986V39.276H83.4706ZM83.4706 41.988V41.088H89.0986V41.988H83.4706ZM94.6213 43.572C93.6493 43.572 92.9053 43.236 92.3413 42.744L92.8333 42C93.2893 42.444 93.8053 42.708 94.6213 42.708C95.3293 42.708 95.7373 42.36 95.7373 41.916C95.7373 41.4 95.1973 41.256 94.3453 40.944C93.3973 40.608 92.5933 40.224 92.5933 39.156C92.5933 38.256 93.4093 37.584 94.5133 37.584C95.2213 37.584 95.8813 37.776 96.5293 38.304L96.0253 39.072C95.5213 38.604 94.9813 38.448 94.4773 38.448C94.0213 38.448 93.5773 38.712 93.5773 39.156C93.5773 39.612 94.0453 39.84 94.6813 40.068C95.9173 40.548 96.7333 40.764 96.7213 41.904C96.7213 42.816 96.0253 43.572 94.6213 43.572ZM101.724 35.784L102.876 34.08H103.98L102.492 35.784H101.724ZM98.3876 36.828L99.7676 35.148H100.788L102.12 36.828H101.148L100.284 35.76H100.26L99.3836 36.828H98.3876ZM100.248 43.572C98.4356 43.572 97.2236 42.264 97.2236 40.584C97.2236 38.904 98.4356 37.584 100.248 37.584C101.976 37.584 103.26 38.808 103.26 40.584C103.26 42.36 101.976 43.572 100.248 43.572ZM100.248 42.684C101.364 42.684 102.264 41.832 102.264 40.584C102.264 39.336 101.376 38.472 100.248 38.472C99.0236 38.472 98.2196 39.42 98.2196 40.584C98.2196 41.748 99.0356 42.684 100.248 42.684ZM107.05 43.5V34.668H108.022V43.5H107.05ZM115.18 36.72H116.176V37.596C116.176 38.94 115.552 39.66 114.4 39.72V43.5H113.428V42.492H113.416C112.972 43.188 112.252 43.572 111.484 43.572C110.14 43.572 109.288 42.804 109.288 41.136V37.656H110.26V40.86C110.26 42.18 110.764 42.684 111.688 42.684C112.624 42.684 113.428 41.88 113.428 40.488V37.656H114.4V39.048C115.072 38.916 115.18 38.412 115.18 37.548V36.72ZM122.429 36.72H123.425V37.596C123.425 38.772 122.945 39.468 122.069 39.66C122.141 39.948 122.189 40.26 122.189 40.584C122.189 42.36 120.905 43.572 119.177 43.572C117.365 43.572 116.153 42.264 116.153 40.584C116.153 38.904 117.365 37.584 119.177 37.584C120.329 37.584 121.277 38.124 121.793 39.012C122.333 38.844 122.429 38.352 122.429 37.548V36.72ZM119.177 42.684C120.293 42.684 121.193 41.832 121.193 40.584C121.193 39.336 120.305 38.472 119.177 38.472C117.953 38.472 117.149 39.42 117.149 40.584C117.149 41.748 117.965 42.684 119.177 42.684ZM119.177 44.628C119.573 44.628 119.885 44.94 119.885 45.324C119.885 45.708 119.573 46.02 119.177 46.02C118.781 46.02 118.469 45.708 118.469 45.324C118.469 44.94 118.781 44.628 119.177 44.628ZM124.053 43.5V37.656H125.025V38.712H125.037C125.493 38.004 126.261 37.584 127.161 37.584C128.421 37.584 129.261 38.364 129.261 40.032V43.5H128.289V40.308C128.289 38.94 127.701 38.472 126.849 38.472C125.745 38.472 125.025 39.264 125.025 40.584V43.5H124.053ZM133.047 45.948C132.171 45.948 131.367 45.732 130.671 45.312L130.911 44.448C131.583 44.832 132.171 45.06 133.011 45.06C134.331 45.06 134.967 44.292 134.967 43.308V42.372H134.943C134.511 42.996 133.815 43.392 132.915 43.392C131.319 43.392 130.083 42.24 130.083 40.5C130.083 38.832 131.235 37.584 132.879 37.584C133.707 37.584 134.463 37.956 134.931 38.592H134.955V37.656H135.927V43.068C135.927 44.748 135.087 45.948 133.047 45.948ZM133.035 42.492C134.211 42.492 134.991 41.616 134.991 40.452C134.991 39.276 134.139 38.484 133.047 38.484C131.859 38.484 131.067 39.336 131.067 40.476C131.067 41.712 131.931 42.492 133.035 42.492ZM142.536 43.572C141.468 43.572 140.376 43.164 139.524 42.252L140.196 41.448C140.808 42.216 141.72 42.6 142.548 42.6C143.592 42.6 144.3 42.12 144.3 41.292C144.3 40.344 143.532 40.092 142.392 39.66C141.132 39.192 139.848 38.652 139.848 37.152C139.848 35.88 140.988 34.896 142.452 34.896C143.4 34.896 144.336 35.244 145.14 35.892L144.504 36.72C143.82 36.156 143.088 35.856 142.452 35.856C141.648 35.856 140.94 36.288 140.928 37.104C140.916 37.92 141.684 38.22 142.752 38.628C144.18 39.192 145.392 39.576 145.392 41.172C145.392 42.732 144.024 43.572 142.536 43.572ZM146.536 43.5V34.98H149.512C151.504 34.98 152.332 36.108 152.332 37.62C152.332 39.42 151.108 40.248 149.332 40.248H147.58V43.5H146.536ZM147.58 39.3H149.236C150.652 39.3 151.252 38.58 151.252 37.596C151.252 36.504 150.544 35.928 149.404 35.928H147.58V39.3ZM151.484 44.856L150.704 44.496L155.324 34.26L156.092 34.632L151.484 44.856ZM156.494 43.5V34.98H159.038C161.738 34.98 163.466 36.732 163.466 39.252C163.466 41.76 161.798 43.5 159.074 43.5H156.494ZM157.538 42.552H159.014C161.09 42.552 162.386 41.172 162.386 39.252C162.386 37.308 161.042 35.928 159.05 35.928H157.538V42.552ZM166.717 43.5L163.501 34.98H164.629L167.185 41.988H167.197L169.753 34.98H170.869L167.653 43.5H166.717ZM180.649 35.964V36.66H179.905V43.5H178.969V42.42H178.957C178.537 43.128 177.793 43.572 176.845 43.572C175.225 43.572 173.977 42.396 173.977 40.62C173.977 38.892 175.189 37.584 176.833 37.584C177.721 37.584 178.477 37.992 178.921 38.7H178.933V36.66H176.473V35.964H178.933V34.668H179.905V35.964H180.649ZM176.977 42.684C178.081 42.684 178.969 41.856 178.969 40.62C178.969 39.42 178.165 38.472 176.989 38.472C175.873 38.472 174.973 39.324 174.973 40.62C174.973 41.796 175.789 42.684 176.977 42.684ZM184.739 36.756C184.331 36.756 183.983 36.528 183.683 36.324C183.443 36.168 183.215 36.036 182.987 36.036C182.663 36.036 182.423 36.288 182.267 36.708L181.643 36.432C181.871 35.712 182.279 35.256 182.891 35.256C183.311 35.256 183.599 35.424 183.863 35.604C184.115 35.76 184.355 35.952 184.631 35.952C184.919 35.952 185.171 35.712 185.327 35.292L185.939 35.496C185.723 36.3 185.267 36.756 184.739 36.756ZM183.587 43.572C181.979 43.572 180.743 42.396 180.743 40.62C180.743 38.892 181.931 37.584 183.587 37.584C184.451 37.584 185.207 37.992 185.627 38.7L185.651 38.688V37.656H186.623V43.5H185.687V42.444H185.675C185.255 43.14 184.535 43.572 183.587 43.572ZM183.731 42.684C184.811 42.684 185.687 41.856 185.687 40.62C185.687 39.42 184.883 38.472 183.731 38.472C182.627 38.472 181.727 39.324 181.727 40.62C181.727 41.796 182.531 42.684 183.731 42.684ZM193.183 43.572C191.479 43.572 190.267 42.36 190.267 40.584C190.267 38.82 191.479 37.584 193.219 37.584C194.095 37.584 194.995 37.944 195.571 38.628L194.911 39.216C194.539 38.784 193.963 38.472 193.267 38.472C192.067 38.472 191.263 39.348 191.263 40.584C191.263 41.832 192.067 42.684 193.255 42.684C193.951 42.684 194.563 42.384 194.923 41.94L195.595 42.552C195.103 43.14 194.323 43.572 193.183 43.572ZM198.508 36.816L199.924 35.124L201.016 35.112L199.528 36.816H198.508ZM199.048 43.572C197.236 43.572 196.024 42.264 196.024 40.584C196.024 38.904 197.236 37.584 199.048 37.584C200.776 37.584 202.06 38.808 202.06 40.584C202.06 42.36 200.776 43.572 199.048 43.572ZM199.048 42.684C200.164 42.684 201.064 41.832 201.064 40.584C201.064 39.336 200.176 38.472 199.048 38.472C197.824 38.472 197.02 39.42 197.02 40.584C197.02 41.748 197.836 42.684 199.048 42.684ZM2.524 59.984V57.632H0.16V56.732H2.524V54.368H3.424V56.732H5.788V57.632H3.424V59.984H2.524ZM11.4065 60.572C10.4345 60.572 9.69047 60.236 9.12647 59.744L9.61847 59C10.0745 59.444 10.5905 59.708 11.4065 59.708C12.1145 59.708 12.5225 59.36 12.5225 58.916C12.5225 58.4 11.9825 58.256 11.1305 57.944C10.1825 57.608 9.37847 57.224 9.37847 56.156C9.37847 55.256 10.1945 54.584 11.2985 54.584C12.0065 54.584 12.6665 54.776 13.3145 55.304L12.8105 56.072C12.3065 55.604 11.7665 55.448 11.2625 55.448C10.8065 55.448 10.3625 55.712 10.3625 56.156C10.3625 56.612 10.8305 56.84 11.4665 57.068C12.7025 57.548 13.5185 57.764 13.5065 58.904C13.5065 59.816 12.8105 60.572 11.4065 60.572ZM18.5088 52.784L19.6608 51.08H20.7648L19.2768 52.784H18.5088ZM15.1728 53.828L16.5527 52.148H17.5728L18.9048 53.828H17.9328L17.0688 52.76H17.0448L16.1688 53.828H15.1728ZM17.0328 60.572C15.2208 60.572 14.0088 59.264 14.0088 57.584C14.0088 55.904 15.2208 54.584 17.0328 54.584C18.7608 54.584 20.0448 55.808 20.0448 57.584C20.0448 59.36 18.7608 60.572 17.0328 60.572ZM17.0328 59.684C18.1488 59.684 19.0488 58.832 19.0488 57.584C19.0488 56.336 18.1608 55.472 17.0328 55.472C15.8088 55.472 15.0048 56.42 15.0048 57.584C15.0048 58.748 15.8208 59.684 17.0328 59.684ZM23.8356 60.5V51.668H24.8076V60.5H23.8356ZM31.965 53.72H32.961V54.596C32.961 55.94 32.337 56.66 31.185 56.72V60.5H30.213V59.492H30.201C29.757 60.188 29.037 60.572 28.269 60.572C26.925 60.572 26.073 59.804 26.073 58.136V54.656H27.045V57.86C27.045 59.18 27.549 59.684 28.473 59.684C29.409 59.684 30.213 58.88 30.213 57.488V54.656H31.185V56.048C31.857 55.916 31.965 55.412 31.965 54.548V53.72ZM39.2144 53.72H40.2104V54.596C40.2104 55.772 39.7304 56.468 38.8544 56.66C38.9264 56.948 38.9744 57.26 38.9744 57.584C38.9744 59.36 37.6904 60.572 35.9624 60.572C34.1504 60.572 32.9384 59.264 32.9384 57.584C32.9384 55.904 34.1504 54.584 35.9624 54.584C37.1144 54.584 38.0624 55.124 38.5784 56.012C39.1184 55.844 39.2144 55.352 39.2144 54.548V53.72ZM35.9624 59.684C37.0784 59.684 37.9784 58.832 37.9784 57.584C37.9784 56.336 37.0904 55.472 35.9624 55.472C34.7384 55.472 33.9344 56.42 33.9344 57.584C33.9344 58.748 34.7504 59.684 35.9624 59.684ZM35.9624 61.628C36.3584 61.628 36.6704 61.94 36.6704 62.324C36.6704 62.708 36.3584 63.02 35.9624 63.02C35.5664 63.02 35.2544 62.708 35.2544 62.324C35.2544 61.94 35.5664 61.628 35.9624 61.628ZM40.8378 60.5V54.656H41.8098V55.712H41.8218C42.2778 55.004 43.0458 54.584 43.9458 54.584C45.2058 54.584 46.0458 55.364 46.0458 57.032V60.5H45.0738V57.308C45.0738 55.94 44.4858 55.472 43.6338 55.472C42.5298 55.472 41.8098 56.264 41.8098 57.584V60.5H40.8378ZM49.8318 62.948C48.9558 62.948 48.1518 62.732 47.4558 62.312L47.6958 61.448C48.3678 61.832 48.9558 62.06 49.7958 62.06C51.1158 62.06 51.7518 61.292 51.7518 60.308V59.372H51.7278C51.2958 59.996 50.5998 60.392 49.6998 60.392C48.1038 60.392 46.8678 59.24 46.8678 57.5C46.8678 55.832 48.0198 54.584 49.6638 54.584C50.4918 54.584 51.2478 54.956 51.7158 55.592H51.7398V54.656H52.7118V60.068C52.7118 61.748 51.8718 62.948 49.8318 62.948ZM49.8198 59.492C50.9958 59.492 51.7758 58.616 51.7758 57.452C51.7758 56.276 50.9238 55.484 49.8318 55.484C48.6438 55.484 47.8518 56.336 47.8518 57.476C47.8518 58.712 48.7158 59.492 49.8198 59.492ZM59.3207 60.572C58.2527 60.572 57.1607 60.164 56.3087 59.252L56.9807 58.448C57.5927 59.216 58.5047 59.6 59.3327 59.6C60.3767 59.6 61.0847 59.12 61.0847 58.292C61.0847 57.344 60.3167 57.092 59.1767 56.66C57.9167 56.192 56.6327 55.652 56.6327 54.152C56.6327 52.88 57.7727 51.896 59.2367 51.896C60.1847 51.896 61.1207 52.244 61.9247 52.892L61.2887 53.72C60.6047 53.156 59.8727 52.856 59.2367 52.856C58.4327 52.856 57.7247 53.288 57.7127 54.104C57.7007 54.92 58.4687 55.22 59.5367 55.628C60.9647 56.192 62.1767 56.576 62.1767 58.172C62.1767 59.732 60.8087 60.572 59.3207 60.572ZM63.3216 60.5V51.98H66.2976C68.2896 51.98 69.1176 53.108 69.1176 54.62C69.1176 56.42 67.8936 57.248 66.1176 57.248H64.3656V60.5H63.3216ZM64.3656 56.3H66.0216C67.4376 56.3 68.0376 55.58 68.0376 54.596C68.0376 53.504 67.3296 52.928 66.1896 52.928H64.3656V56.3ZM68.2688 61.856L67.4888 61.496L72.1088 51.26L72.8768 51.632L68.2688 61.856ZM73.2787 60.5V51.98H75.8227C78.5227 51.98 80.2507 53.732 80.2507 56.252C80.2507 58.76 78.5827 60.5 75.8587 60.5H73.2787ZM74.3227 59.552H75.7987C77.8747 59.552 79.1707 58.172 79.1707 56.252C79.1707 54.308 77.8267 52.928 75.8347 52.928H74.3227V59.552ZM83.5018 60.5L80.2858 51.98H81.4138L83.9698 58.988H83.9818L86.5378 51.98H87.6538L84.4378 60.5H83.5018ZM97.4344 52.964V53.66H96.6904V60.5H95.7544V59.42H95.7424C95.3224 60.128 94.5784 60.572 93.6304 60.572C92.0104 60.572 90.7624 59.396 90.7624 57.62C90.7624 55.892 91.9744 54.584 93.6184 54.584C94.5064 54.584 95.2624 54.992 95.7064 55.7H95.7184V53.66H93.2584V52.964H95.7184V51.668H96.6904V52.964H97.4344ZM93.7624 59.684C94.8664 59.684 95.7544 58.856 95.7544 57.62C95.7544 56.42 94.9504 55.472 93.7744 55.472C92.6584 55.472 91.7584 56.324 91.7584 57.62C91.7584 58.796 92.5744 59.684 93.7624 59.684ZM103.672 53.72H104.668V54.596C104.668 55.94 104.044 56.66 102.892 56.72V60.5H101.92V59.492H101.908C101.464 60.188 100.744 60.572 99.976 60.572C98.632 60.572 97.78 59.804 97.78 58.136V54.656H98.752V57.86C98.752 59.18 99.256 59.684 100.18 59.684C101.116 59.684 101.92 58.88 101.92 57.488V54.656H102.892V56.048C103.564 55.916 103.672 55.412 103.672 54.548V53.72ZM110.921 53.72H111.917V54.596C111.917 55.772 111.437 56.468 110.561 56.66C110.633 56.948 110.681 57.26 110.681 57.584C110.681 59.36 109.397 60.572 107.669 60.572C105.857 60.572 104.645 59.264 104.645 57.584C104.645 55.904 105.857 54.584 107.669 54.584C108.821 54.584 109.769 55.124 110.285 56.012C110.825 55.844 110.921 55.352 110.921 54.548V53.72ZM107.669 59.684C108.785 59.684 109.685 58.832 109.685 57.584C109.685 56.336 108.797 55.472 107.669 55.472C106.445 55.472 105.641 56.42 105.641 57.584C105.641 58.748 106.457 59.684 107.669 59.684ZM107.669 61.628C108.065 61.628 108.377 61.94 108.377 62.324C108.377 62.708 108.065 63.02 107.669 63.02C107.273 63.02 106.961 62.708 106.961 62.324C106.961 61.94 107.273 61.628 107.669 61.628ZM114.796 60.572C113.092 60.572 111.88 59.36 111.88 57.584C111.88 55.82 113.092 54.584 114.832 54.584C115.708 54.584 116.608 54.944 117.184 55.628L116.524 56.216C116.152 55.784 115.576 55.472 114.88 55.472C113.68 55.472 112.876 56.348 112.876 57.584C112.876 58.832 113.68 59.684 114.868 59.684C115.564 59.684 116.176 59.384 116.536 58.94L117.208 59.552C116.716 60.14 115.936 60.572 114.796 60.572ZM125.363 62.876V59.492H125.351C124.919 60.164 124.187 60.572 123.263 60.572C121.655 60.572 120.419 59.396 120.419 57.62C120.419 55.892 121.607 54.584 123.263 54.584C124.151 54.584 124.907 54.992 125.351 55.7H125.363V54.656H126.335V62.876H125.363ZM123.407 59.684C124.499 59.684 125.387 58.856 125.387 57.62C125.387 56.42 124.583 55.472 123.407 55.472C122.291 55.472 121.403 56.324 121.403 57.62C121.403 58.796 122.207 59.684 123.407 59.684ZM129.679 60.572C128.335 60.572 127.483 59.804 127.483 58.136V54.656H128.455V57.86C128.455 59.18 128.959 59.684 129.883 59.684C130.819 59.684 131.623 58.88 131.623 57.488V54.656H132.595V60.5H131.623V59.492H131.611C131.167 60.188 130.447 60.572 129.679 60.572ZM138.257 52.112L136.769 53.816H135.749L137.165 52.124L138.257 52.112ZM139.049 57.476C139.049 57.632 139.025 57.8 139.025 57.872H134.465C134.597 58.964 135.365 59.684 136.469 59.684C137.249 59.684 137.801 59.348 138.161 58.904L138.845 59.48C138.341 60.128 137.609 60.572 136.433 60.572C134.705 60.572 133.481 59.372 133.481 57.584C133.481 55.82 134.693 54.584 136.361 54.584C137.957 54.584 139.049 55.808 139.049 57.476ZM136.349 55.472C135.413 55.472 134.669 56.084 134.489 57.08H138.077C137.933 56.12 137.309 55.472 136.349 55.472ZM141.607 60.572C140.575 60.572 140.095 59.936 140.095 58.76V55.496H139.339V54.656H140.095V52.664L141.067 52.556V54.656H142.999V55.496H141.067V58.616C141.067 59.324 141.223 59.66 141.775 59.66C142.123 59.66 142.483 59.516 142.771 59.36L143.023 60.212C142.699 60.404 142.303 60.572 141.607 60.572ZM144.197 60.584C143.801 60.584 143.477 60.272 143.477 59.876C143.477 59.48 143.801 59.168 144.197 59.168C144.593 59.168 144.905 59.48 144.905 59.876C144.905 60.272 144.593 60.584 144.197 60.584Z" fill="#4C5A61"/>
</svg>

