<svg width="78" height="47" viewBox="0 0 78 47" fill="none" xmlns="http://www.w3.org/2000/svg">
    <g filter="url(#filter0_d_34261_56301)">
        <rect x="6.5" y="4.5" width="65" height="34" rx="6" fill="black" fill-opacity="0.63" shape-rendering="crispEdges"/>
        <rect x="6.75" y="4.75" width="64.5" height="33.5" rx="5.75" stroke="#EDF1F3" stroke-width="0.5" shape-rendering="crispEdges"/>
        <path d="M22.5073 27.07C19.6513 27.07 17.5373 25.124 17.5373 22.044C17.5373 19.09 19.4693 16.962 22.4653 16.962C23.8233 16.962 25.1953 17.424 26.2453 18.516L25.3913 19.272C24.5933 18.502 23.6133 18.124 22.4513 18.124C20.3653 18.124 18.8113 19.664 18.8113 22.044C18.8113 24.298 20.2813 25.95 22.5073 25.95C23.5013 25.95 24.4113 25.684 25.1533 25.124V22.982H22.2693V21.876H26.3713V25.81C25.4473 26.594 24.0333 27.07 22.5073 27.07ZM28.8363 19.216L30.4463 17.256H31.6363L33.1903 19.216H32.0563L31.0483 17.97H31.0203L29.9983 19.216H28.8363ZM31.0203 27.084C28.9063 27.084 27.4923 25.558 27.4923 23.598C27.4923 21.638 28.9063 20.098 31.0203 20.098C33.0363 20.098 34.5343 21.526 34.5343 23.598C34.5343 25.67 33.0363 27.084 31.0203 27.084ZM31.0203 26.048C32.3223 26.048 33.3723 25.054 33.3723 23.598C33.3723 22.142 32.3363 21.134 31.0203 21.134C29.5923 21.134 28.6543 22.24 28.6543 23.598C28.6543 24.956 29.6063 26.048 31.0203 26.048ZM31.0203 28.316C31.4823 28.316 31.8463 28.68 31.8463 29.128C31.8463 29.576 31.4823 29.94 31.0203 29.94C30.5583 29.94 30.1943 29.576 30.1943 29.128C30.1943 28.68 30.5583 28.316 31.0203 28.316ZM35.7251 29.772V20.182H36.8591V21.386H36.8731C37.3911 20.574 38.2591 20.098 39.2951 20.098C41.2271 20.098 42.6131 21.624 42.6131 23.64C42.6131 25.712 41.1711 27.084 39.2951 27.084C38.2171 27.084 37.3771 26.608 36.8731 25.824H36.8591V29.772H35.7251ZM39.1411 26.048C40.5131 26.048 41.4651 25.012 41.4651 23.64C41.4651 22.128 40.4151 21.134 39.1271 21.134C37.7411 21.134 36.8031 22.24 36.8031 23.64C36.8031 25.082 37.8391 26.048 39.1411 26.048Z" fill="#F9FAFB"/>
        <path d="M59.46 19.975L56.2 23.235C55.815 23.62 55.185 23.62 54.8 23.235L51.54 19.975" stroke="#F9FAFB" stroke-miterlimit="10" stroke-linecap="round" stroke-linejoin="round"/>
    </g>
    <defs>
        <filter id="filter0_d_34261_56301" x="0.3" y="0.3" width="77.4" height="46.4" filterUnits="userSpaceOnUse" color-interpolation-filters="sRGB">
            <feFlood flood-opacity="0" result="BackgroundImageFix"/>
            <feColorMatrix in="SourceAlpha" type="matrix" values="0 0 0 0 0 0 0 0 0 0 0 0 0 0 0 0 0 0 127 0" result="hardAlpha"/>
            <feOffset dy="2"/>
            <feGaussianBlur stdDeviation="3.1"/>
            <feComposite in2="hardAlpha" operator="out"/>
            <feColorMatrix type="matrix" values="0 0 0 0 0 0 0 0 0 0 0 0 0 0 0 0 0 0 0.06 0"/>
            <feBlend mode="normal" in2="BackgroundImageFix" result="effect1_dropShadow_34261_56301"/>
            <feBlend mode="normal" in="SourceGraphic" in2="effect1_dropShadow_34261_56301" result="shape"/>
        </filter>
    </defs>
</svg>
