<svg width="191" height="30" viewBox="0 0 191 30" fill="none" xmlns="http://www.w3.org/2000/svg">
    <path d="M1.056 10V1.48H2.1V5.476H6.552V1.48H7.596V10H6.552V6.424H2.1V10H1.056ZM11.5924 2.26L10.7164 3.328H9.72044L11.1004 1.648H12.1204L13.4524 3.328H12.4804L11.6164 2.26H11.5924ZM14.2564 6.976C14.2564 7.132 14.2324 7.3 14.2324 7.372H9.67244C9.80444 8.464 10.5724 9.184 11.6764 9.184C12.4564 9.184 13.0084 8.848 13.3684 8.404L14.0524 8.98C13.5484 9.628 12.8164 10.072 11.6404 10.072C9.91244 10.072 8.68844 8.872 8.68844 7.084C8.68844 5.32 9.90044 4.084 11.5684 4.084C13.1644 4.084 14.2564 5.308 14.2564 6.976ZM11.5564 4.972C10.6204 4.972 9.87644 5.584 9.69644 6.58H13.2844C13.1404 5.62 12.5164 4.972 11.5564 4.972ZM11.6524 11.128C12.0484 11.128 12.3604 11.44 12.3604 11.824C12.3604 12.208 12.0484 12.52 11.6524 12.52C11.2564 12.52 10.9444 12.208 10.9444 11.824C10.9444 11.44 11.2564 11.128 11.6524 11.128ZM19.5951 10.072C18.5631 10.072 18.0831 9.436 18.0831 8.26V4.996H17.3271V4.156H18.0831V2.164L19.0551 2.056V4.156H20.9871V4.996H19.0551V8.116C19.0551 8.824 19.2111 9.16 19.7631 9.16C20.1111 9.16 20.4711 9.016 20.7591 8.86L21.0111 9.712C20.6871 9.904 20.2911 10.072 19.5951 10.072ZM21.787 10V1.168H22.759V5.176H22.771C23.227 4.48 23.995 4.084 24.931 4.084C26.191 4.084 27.055 4.828 27.055 6.496V10H26.083V6.772C26.083 5.452 25.495 4.972 24.643 4.972C23.479 4.972 22.759 5.74 22.759 7.06V10H21.787ZM32.3877 2.284L33.5397 0.58H34.6437L33.1557 2.284H32.3877ZM29.0517 3.328L30.4317 1.648H31.4517L32.7837 3.328H31.8117L30.9477 2.26H30.9237L30.0477 3.328H29.0517ZM30.9117 10.072C29.0997 10.072 27.8877 8.764 27.8877 7.084C27.8877 5.404 29.0997 4.084 30.9117 4.084C32.6397 4.084 33.9237 5.308 33.9237 7.084C33.9237 8.86 32.6397 10.072 30.9117 10.072ZM30.9117 9.184C32.0277 9.184 32.9277 8.332 32.9277 7.084C32.9277 5.836 32.0397 4.972 30.9117 4.972C29.6877 4.972 28.8837 5.92 28.8837 7.084C28.8837 8.248 29.6997 9.184 30.9117 9.184ZM34.8729 10V4.156H35.8449V5.212H35.8569C36.3129 4.504 37.0809 4.084 37.9809 4.084C39.2409 4.084 40.0809 4.864 40.0809 6.532V10H39.1089V6.808C39.1089 5.44 38.5209 4.972 37.6689 4.972C36.5649 4.972 35.8449 5.764 35.8449 7.084V10H34.8729ZM43.867 12.448C42.991 12.448 42.187 12.232 41.491 11.812L41.731 10.948C42.403 11.332 42.991 11.56 43.831 11.56C45.151 11.56 45.787 10.792 45.787 9.808V8.872H45.763C45.331 9.496 44.635 9.892 43.735 9.892C42.139 9.892 40.903 8.74 40.903 7C40.903 5.332 42.055 4.084 43.699 4.084C44.527 4.084 45.283 4.456 45.751 5.092H45.775V4.156H46.747V9.568C46.747 11.248 45.907 12.448 43.867 12.448ZM43.855 8.992C45.031 8.992 45.811 8.116 45.811 6.952C45.811 5.776 44.959 4.984 43.867 4.984C42.679 4.984 41.887 5.836 41.887 6.976C41.887 8.212 42.751 8.992 43.855 8.992ZM52.3958 10.072C51.3638 10.072 50.8838 9.436 50.8838 8.26V4.996H50.1278V4.156H50.8838V2.164L51.8558 2.056V4.156H53.7878V4.996H51.8558V8.116C51.8558 8.824 52.0118 9.16 52.5638 9.16C52.9118 9.16 53.2718 9.016 53.5598 8.86L53.8118 9.712C53.4878 9.904 53.0918 10.072 52.3958 10.072ZM54.5878 10V1.168H55.5598V5.176H55.5718C56.0278 4.48 56.7958 4.084 57.7318 4.084C58.9918 4.084 59.8558 4.828 59.8558 6.496V10H58.8838V6.772C58.8838 5.452 58.2958 4.972 57.4438 4.972C56.2798 4.972 55.5598 5.74 55.5598 7.06V10H54.5878ZM66.8204 3.22H67.8164V4.096C67.8164 5.44 67.1924 6.16 66.0404 6.22V10H65.0684V8.992H65.0564C64.6124 9.688 63.8924 10.072 63.1244 10.072C61.7804 10.072 60.9284 9.304 60.9284 7.636V4.156H61.9004V7.36C61.9004 8.68 62.4044 9.184 63.3284 9.184C64.2644 9.184 65.0684 8.38 65.0684 6.988V4.156H66.0404V5.548C66.7124 5.416 66.8204 4.912 66.8204 4.048V3.22ZM63.5444 11.128C63.9404 11.128 64.2524 11.44 64.2524 11.824C64.2524 12.208 63.9404 12.52 63.5444 12.52C63.1484 12.52 62.8364 12.208 62.8364 11.824C62.8364 11.44 63.1484 11.128 63.5444 11.128ZM70.7099 10.072C69.0059 10.072 67.7939 8.86 67.7939 7.084C67.7939 5.32 69.0059 4.084 70.7459 4.084C71.6219 4.084 72.5219 4.444 73.0979 5.128L72.4379 5.716C72.0659 5.284 71.4899 4.972 70.7939 4.972C69.5939 4.972 68.7899 5.848 68.7899 7.084C68.7899 8.332 69.5939 9.184 70.7819 9.184C71.4779 9.184 72.0899 8.884 72.4499 8.44L73.1219 9.052C72.6299 9.64 71.8499 10.072 70.7099 10.072ZM76.6933 10V1.168H77.6653V5.176H77.6773C78.1333 4.48 78.9013 4.084 79.8373 4.084C81.0973 4.084 81.9613 4.828 81.9613 6.496V10H80.9893V6.772C80.9893 5.452 80.4013 4.972 79.5493 4.972C78.3853 4.972 77.6653 5.74 77.6653 7.06V10H76.6933ZM83.7299 3.088C83.3339 3.088 83.0219 2.776 83.0219 2.392C83.0219 2.008 83.3339 1.696 83.7299 1.696C84.1259 1.696 84.4379 2.008 84.4379 2.392C84.4379 2.776 84.1259 3.088 83.7299 3.088ZM83.2379 10V4.156H84.2099V10H83.2379ZM88.1393 2.26L87.2633 3.328H86.2673L87.6473 1.648H88.6673L89.9993 3.328H89.0273L88.1633 2.26H88.1393ZM90.8033 6.976C90.8033 7.132 90.7793 7.3 90.7793 7.372H86.2193C86.3513 8.464 87.1193 9.184 88.2233 9.184C89.0033 9.184 89.5553 8.848 89.9153 8.404L90.5993 8.98C90.0953 9.628 89.3633 10.072 88.1873 10.072C86.4593 10.072 85.2353 8.872 85.2353 7.084C85.2353 5.32 86.4473 4.084 88.1153 4.084C89.7113 4.084 90.8033 5.308 90.8033 6.976ZM88.1033 4.972C87.1673 4.972 86.4233 5.584 86.2433 6.58H89.8313C89.6873 5.62 89.0633 4.972 88.1033 4.972ZM88.1993 11.128C88.5953 11.128 88.9073 11.44 88.9073 11.824C88.9073 12.208 88.5953 12.52 88.1993 12.52C87.8033 12.52 87.4913 12.208 87.4913 11.824C87.4913 11.44 87.8033 11.128 88.1993 11.128ZM91.7284 10V4.156H92.7004V5.212H92.7124C93.1684 4.504 93.9364 4.084 94.8364 4.084C96.0964 4.084 96.9364 4.864 96.9364 6.532V10H95.9644V6.808C95.9644 5.44 95.3764 4.972 94.5244 4.972C93.4204 4.972 92.7004 5.764 92.7004 7.084V10H91.7284ZM103.492 12.448C102.616 12.448 101.812 12.232 101.116 11.812L101.356 10.948C102.028 11.332 102.616 11.56 103.456 11.56C104.776 11.56 105.412 10.792 105.412 9.808V8.872H105.388C104.956 9.496 104.26 9.892 103.36 9.892C101.764 9.892 100.528 8.74 100.528 7C100.528 5.332 101.68 4.084 103.324 4.084C104.152 4.084 104.908 4.456 105.376 5.092H105.4V4.156H106.372V9.568C106.372 11.248 105.532 12.448 103.492 12.448ZM103.48 8.992C104.656 8.992 105.436 8.116 105.436 6.952C105.436 5.776 104.584 4.984 103.492 4.984C102.304 4.984 101.512 5.836 101.512 6.976C101.512 8.212 102.376 8.992 103.48 8.992ZM108.387 3.328L109.767 1.648H110.787L112.119 3.328H111.147L110.283 2.26H110.259L109.383 3.328H108.387ZM110.259 10.072C108.447 10.072 107.235 8.764 107.235 7.084C107.235 5.404 108.447 4.084 110.259 4.084C111.987 4.084 113.271 5.308 113.271 7.084C113.271 8.86 111.987 10.072 110.259 10.072ZM110.259 9.184C111.375 9.184 112.275 8.332 112.275 7.084C112.275 5.836 111.387 4.972 110.259 4.972C109.035 4.972 108.231 5.92 108.231 7.084C108.231 8.248 109.047 9.184 110.259 9.184ZM110.259 11.128C110.655 11.128 110.967 11.44 110.967 11.824C110.967 12.208 110.655 12.52 110.259 12.52C109.863 12.52 109.551 12.208 109.551 11.824C109.551 11.44 109.863 11.128 110.259 11.128ZM114.221 12.376V4.156H115.193V5.188H115.205C115.649 4.492 116.393 4.084 117.281 4.084C118.937 4.084 120.125 5.392 120.125 7.12C120.125 8.896 118.889 10.072 117.281 10.072C116.357 10.072 115.637 9.664 115.205 8.992H115.193V12.376H114.221ZM117.149 9.184C118.325 9.184 119.141 8.296 119.141 7.12C119.141 5.824 118.241 4.972 117.137 4.972C115.949 4.972 115.145 5.92 115.145 7.12C115.145 8.356 116.033 9.184 117.149 9.184ZM126.405 10.072C124.701 10.072 123.489 8.86 123.489 7.084C123.489 5.32 124.701 4.084 126.441 4.084C127.317 4.084 128.217 4.444 128.793 5.128L128.133 5.716C127.761 5.284 127.185 4.972 126.489 4.972C125.289 4.972 124.485 5.848 124.485 7.084C124.485 8.332 125.289 9.184 126.477 9.184C127.173 9.184 127.785 8.884 128.145 8.44L128.817 9.052C128.325 9.64 127.545 10.072 126.405 10.072ZM131.743 3.316L133.159 1.624L134.251 1.612L132.763 3.316H131.743ZM132.079 10.072C130.471 10.072 129.235 8.896 129.235 7.12C129.235 5.392 130.423 4.084 132.079 4.084C132.943 4.084 133.699 4.492 134.119 5.2L134.143 5.188V4.156H135.115V10H134.179V8.944H134.167C133.747 9.64 133.027 10.072 132.079 10.072ZM132.223 9.184C133.303 9.184 134.179 8.356 134.179 7.12C134.179 5.92 133.375 4.972 132.223 4.972C131.119 4.972 130.219 5.824 130.219 7.12C130.219 8.296 131.023 9.184 132.223 9.184ZM138.905 10.072C137.201 10.072 135.989 8.86 135.989 7.084C135.989 5.32 137.201 4.084 138.941 4.084C139.817 4.084 140.717 4.444 141.293 5.128L140.633 5.716C140.261 5.284 139.685 4.972 138.989 4.972C137.789 4.972 136.985 5.848 136.985 7.084C136.985 8.332 137.789 9.184 138.977 9.184C139.673 9.184 140.285 8.884 140.645 8.44L141.317 9.052C140.825 9.64 140.045 10.072 138.905 10.072ZM147.493 10.072C146.425 10.072 145.333 9.664 144.481 8.752L145.153 7.948C145.765 8.716 146.677 9.1 147.505 9.1C148.549 9.1 149.257 8.62 149.257 7.792C149.257 6.844 148.489 6.592 147.349 6.16C146.089 5.692 144.805 5.152 144.805 3.652C144.805 2.38 145.945 1.396 147.409 1.396C148.357 1.396 149.293 1.744 150.097 2.392L149.461 3.22C148.777 2.656 148.045 2.356 147.409 2.356C146.605 2.356 145.897 2.788 145.885 3.604C145.873 4.42 146.641 4.72 147.709 5.128C149.137 5.692 150.349 6.076 150.349 7.672C150.349 9.232 148.981 10.072 147.493 10.072ZM151.494 10V1.48H154.47C156.462 1.48 157.29 2.608 157.29 4.12C157.29 5.92 156.066 6.748 154.29 6.748H152.538V10H151.494ZM152.538 5.8H154.194C155.61 5.8 156.21 5.08 156.21 4.096C156.21 3.004 155.502 2.428 154.362 2.428H152.538V5.8ZM156.441 11.356L155.661 10.996L160.281 0.76L161.049 1.132L156.441 11.356ZM161.451 10V1.48H163.995C166.695 1.48 168.423 3.232 168.423 5.752C168.423 8.26 166.755 10 164.031 10H161.451ZM162.495 9.052H163.971C166.047 9.052 167.343 7.672 167.343 5.752C167.343 3.808 165.999 2.428 164.007 2.428H162.495V9.052ZM171.674 10L168.458 1.48H169.586L172.142 8.488H172.154L174.71 1.48H175.826L172.61 10H171.674ZM181.862 10.072C180.158 10.072 178.946 8.86 178.946 7.084C178.946 5.32 180.158 4.084 181.898 4.084C182.774 4.084 183.674 4.444 184.25 5.128L183.59 5.716C183.218 5.284 182.642 4.972 181.946 4.972C180.746 4.972 179.942 5.848 179.942 7.084C179.942 8.332 180.746 9.184 181.934 9.184C182.63 9.184 183.242 8.884 183.602 8.44L184.274 9.052C183.782 9.64 183.002 10.072 181.862 10.072ZM187.188 3.316L188.604 1.624L189.696 1.612L188.208 3.316H187.188ZM187.728 10.072C185.916 10.072 184.704 8.764 184.704 7.084C184.704 5.404 185.916 4.084 187.728 4.084C189.456 4.084 190.74 5.308 190.74 7.084C190.74 8.86 189.456 10.072 187.728 10.072ZM187.728 9.184C188.844 9.184 189.744 8.332 189.744 7.084C189.744 5.836 188.856 4.972 187.728 4.972C186.504 4.972 185.7 5.92 185.7 7.084C185.7 8.248 186.516 9.184 187.728 9.184ZM3.456 27.072C1.752 27.072 0.54 25.86 0.54 24.084C0.54 22.32 1.752 21.084 3.492 21.084C4.368 21.084 5.268 21.444 5.844 22.128L5.184 22.716C4.812 22.284 4.236 21.972 3.54 21.972C2.34 21.972 1.536 22.848 1.536 24.084C1.536 25.332 2.34 26.184 3.528 26.184C4.224 26.184 4.836 25.884 5.196 25.44L5.868 26.052C5.376 26.64 4.596 27.072 3.456 27.072ZM8.92581 20.304L7.47381 18.648L8.57781 18.66L9.90981 20.304H8.92581ZM8.73381 27.072C7.38981 27.072 6.53781 26.304 6.53781 24.636V21.156H7.50981V24.36C7.50981 25.68 8.01381 26.184 8.93781 26.184C9.87381 26.184 10.6778 25.38 10.6778 23.988V21.156H11.6498V27H10.6778V25.992H10.6658C10.2218 26.688 9.50181 27.072 8.73381 27.072ZM12.9081 27V21.156H13.8801V22.212H13.8921C14.3481 21.504 15.1161 21.084 16.0161 21.084C17.2761 21.084 18.1161 21.864 18.1161 23.532V27H17.1441V23.808C17.1441 22.44 16.5561 21.972 15.7041 21.972C14.6001 21.972 13.8801 22.764 13.8801 24.084V27H12.9081ZM21.9022 29.448C21.0262 29.448 20.2222 29.232 19.5262 28.812L19.7662 27.948C20.4382 28.332 21.0262 28.56 21.8662 28.56C23.1862 28.56 23.8222 27.792 23.8222 26.808V25.872H23.7982C23.3662 26.496 22.6702 26.892 21.7702 26.892C20.1742 26.892 18.9382 25.74 18.9382 24C18.9382 22.332 20.0902 21.084 21.7342 21.084C22.5622 21.084 23.3182 21.456 23.7862 22.092H23.8102V21.156H24.7822V26.568C24.7822 28.248 23.9422 29.448 21.9022 29.448ZM21.8902 25.992C23.0662 25.992 23.8462 25.116 23.8462 23.952C23.8462 22.776 22.9942 21.984 21.9022 21.984C20.7142 21.984 19.9222 22.836 19.9222 23.976C19.9222 25.212 20.7862 25.992 21.8902 25.992ZM28.787 27V21.156H29.759V22.212H29.771C30.215 21.504 30.947 21.084 31.727 21.084C32.603 21.084 33.239 21.528 33.539 22.332H33.551C33.995 21.54 34.787 21.084 35.699 21.084C36.995 21.084 37.715 21.972 37.715 23.64V27H36.743V23.904C36.743 22.656 36.299 21.972 35.411 21.972C34.499 21.972 33.767 22.788 33.767 24.096V27H32.795V23.904C32.795 22.656 32.315 21.972 31.439 21.972C30.479 21.972 29.759 22.788 29.759 24.096V27H28.787ZM42.5162 20.256C42.1082 20.256 41.7602 20.028 41.4602 19.824C41.2202 19.668 40.9922 19.536 40.7642 19.536C40.4402 19.536 40.2002 19.788 40.0442 20.208L39.4202 19.932C39.6482 19.212 40.0562 18.756 40.6682 18.756C41.0882 18.756 41.3762 18.924 41.6402 19.104C41.8922 19.26 42.1322 19.452 42.4082 19.452C42.6962 19.452 42.9482 19.212 43.1042 18.792L43.7162 18.996C43.5002 19.8 43.0442 20.256 42.5162 20.256ZM41.3642 27.072C39.7562 27.072 38.5202 25.896 38.5202 24.12C38.5202 22.392 39.7082 21.084 41.3642 21.084C42.2282 21.084 42.9842 21.492 43.4042 22.2L43.4282 22.188V21.156H44.4002V27H43.4642V25.944H43.4522C43.0322 26.64 42.3122 27.072 41.3642 27.072ZM41.5082 26.184C42.5882 26.184 43.4642 25.356 43.4642 24.12C43.4642 22.92 42.6602 21.972 41.5082 21.972C40.4042 21.972 39.5042 22.824 39.5042 24.12C39.5042 25.296 40.3082 26.184 41.5082 26.184ZM50.1559 27L47.7799 21.156H48.8359L50.6239 25.764H50.6359L52.4239 21.156H53.4679L51.0919 27H50.1559ZM56.2822 27.072C54.6742 27.072 53.4382 25.896 53.4382 24.12C53.4382 22.392 54.6262 21.084 56.2822 21.084C57.1462 21.084 57.9022 21.492 58.3222 22.2L58.3462 22.188V21.156H59.3182V27H58.3822V25.944H58.3702C57.9502 26.64 57.2302 27.072 56.2822 27.072ZM56.4262 26.184C57.5062 26.184 58.3822 25.356 58.3822 24.12C58.3822 22.92 57.5782 21.972 56.4262 21.972C55.3222 21.972 54.4222 22.824 54.4222 24.12C54.4222 25.296 55.2262 26.184 56.4262 26.184ZM56.4142 28.128C56.8102 28.128 57.1222 28.44 57.1222 28.824C57.1222 29.208 56.8102 29.52 56.4142 29.52C56.0182 29.52 55.7062 29.208 55.7062 28.824C55.7062 28.44 56.0182 28.128 56.4142 28.128ZM63.1083 27.072C61.4043 27.072 60.1923 25.86 60.1923 24.084C60.1923 22.32 61.4043 21.084 63.1443 21.084C64.0203 21.084 64.9203 21.444 65.4963 22.128L64.8363 22.716C64.4643 22.284 63.8883 21.972 63.1923 21.972C61.9923 21.972 61.1883 22.848 61.1883 24.084C61.1883 25.332 61.9923 26.184 63.1803 26.184C63.8763 26.184 64.4883 25.884 64.8483 25.44L65.5203 26.052C65.0283 26.64 64.2483 27.072 63.1083 27.072ZM66.3222 27V18.168H67.2942V22.176H67.3062C67.7622 21.48 68.5302 21.084 69.4662 21.084C70.7262 21.084 71.5902 21.828 71.5902 23.496V27H70.6182V23.772C70.6182 22.452 70.0302 21.972 69.1782 21.972C68.0142 21.972 67.2942 22.74 67.2942 24.06V27H66.3222ZM73.2988 27.084C72.9028 27.084 72.5788 26.772 72.5788 26.376C72.5788 25.98 72.9028 25.668 73.2988 25.668C73.6948 25.668 74.0068 25.98 74.0068 26.376C74.0068 26.772 73.6948 27.084 73.2988 27.084Z" fill="#4C5A61"/>
</svg>
