<svg width="38" height="30" viewBox="0 0 38 30" fill="none" xmlns="http://www.w3.org/2000/svg">
    <path fill-rule="evenodd" clip-rule="evenodd" d="M26.2236 10.6302C26.5805 11.0792 26.6113 11.685 26.3513 12.1577L24.6424 15.5951C25.6989 15.7257 26.8051 15.4454 27.7033 14.7256C29.4783 13.3074 29.7714 10.7086 28.358 8.92461C27.5023 7.84375 26.2165 7.30926 24.9402 7.3734C24.8646 6.61323 24.5762 5.86732 24.068 5.22593C22.6546 3.44192 20.0712 3.14735 18.2961 4.56791C17.8116 4.95275 17.4382 5.42785 17.1782 5.95046L17.164 5.94334L16.7149 6.84366L16.7196 6.84603L14.096 12.1221H14.0937C14.0086 12.2955 13.8833 12.4546 13.7202 12.5829C13.127 13.058 12.2619 12.9606 11.7892 12.3644C11.4346 11.913 11.4015 11.3096 11.6615 10.8369L13.3681 7.40666H13.3657L13.3775 7.3829C12.3163 7.24987 11.203 7.53018 10.3001 8.25234C9.86285 8.60154 9.5154 9.02201 9.26249 9.48523C9.24122 9.54225 9.21758 9.59926 9.18922 9.65627H9.19159C8.49905 11.0483 8.62196 12.7777 9.65012 14.0747C10.0259 14.5475 10.4845 14.918 10.9879 15.177C11.9948 15.6948 13.1861 15.778 14.2615 15.3884C14.6704 15.2387 15.0651 15.0226 15.4244 14.7327C15.9136 14.3432 16.2895 13.8609 16.5495 13.3336H16.5471L19.6103 7.17148L19.6127 7.17386C19.7001 6.99807 19.8254 6.83891 19.9861 6.71063C20.5794 6.23553 21.4445 6.33292 21.9172 6.93155C22.2741 7.38053 22.3048 7.98391 22.0448 8.45901L20.3383 11.8916V11.894L19.0076 14.5688L19.0029 14.5736L19.01 14.5783C18.5774 15.4502 17.9534 16.246 17.1451 16.8921C16.4147 17.4765 15.6017 17.8874 14.7531 18.1297C13.0797 18.6096 11.2786 18.4314 9.73285 17.6333C8.88905 17.2009 8.12088 16.5833 7.49216 15.7922C5.1333 12.8133 5.62492 8.46139 8.58651 6.09062C10.3616 4.67006 12.6259 4.2781 14.6657 4.8316C15.0982 3.91465 15.7411 3.08084 16.5849 2.40619C19.5465 0.0354271 23.86 0.527159 26.2189 3.50606C26.5616 3.9384 26.8429 4.40163 27.0674 4.88148C28.3792 5.26632 29.5918 6.04786 30.5088 7.20474C32.8653 10.1813 32.3761 14.5166 29.4145 16.8873C26.8784 18.916 23.3542 18.8471 20.9126 16.9182L21.2955 16.1486H21.2932L23.9168 10.8725H23.9191C24.0066 10.6991 24.1295 10.54 24.2926 10.4093C24.8858 9.93421 25.7509 10.034 26.2236 10.6302Z" fill="white"/>
    <path d="M7.85952 24.1882C8.32495 24.1882 8.6924 24.3315 8.96186 24.618C9.23133 24.8984 9.36606 25.2908 9.36606 25.7954V28.9165C9.36606 28.9788 9.33544 29.0099 9.27419 29.0099H8.58523C8.52399 29.0099 8.49336 28.9788 8.49336 28.9165V25.9823C8.49336 25.6708 8.40763 25.4248 8.23615 25.2441C8.0708 25.0572 7.84727 24.9638 7.56556 24.9638C7.28384 24.9638 7.05419 25.0541 6.87659 25.2348C6.69899 25.4154 6.61019 25.6584 6.61019 25.9636V28.9165C6.61019 28.9788 6.57957 29.0099 6.51833 29.0099H5.82936C5.76812 29.0099 5.7375 28.9788 5.7375 28.9165V25.9823C5.7375 25.6708 5.65176 25.4248 5.48028 25.2441C5.31493 25.0572 5.0914 24.9638 4.80969 24.9638C4.52798 24.9638 4.30138 25.0541 4.12991 25.2348C3.96455 25.4154 3.88188 25.6584 3.88188 25.9636V28.9165C3.88188 28.9788 3.85126 29.0099 3.79002 29.0099H3.09186C3.03062 29.0099 3 28.9788 3 28.9165V24.347C3 24.2847 3.03062 24.2536 3.09186 24.2536H3.79002C3.85126 24.2536 3.88188 24.2847 3.88188 24.347V24.6648C3.88188 24.6772 3.88494 24.6866 3.89106 24.6928C3.90331 24.699 3.91556 24.6959 3.92781 24.6834C4.19727 24.3533 4.58922 24.1882 5.10365 24.1882C5.41598 24.1882 5.68238 24.2505 5.90285 24.3751C6.12332 24.4934 6.29479 24.671 6.41728 24.9077C6.43565 24.9326 6.45402 24.9326 6.47239 24.9077C6.61937 24.6648 6.81228 24.4841 7.05113 24.3657C7.29609 24.2474 7.56556 24.1882 7.85952 24.1882Z" fill="white"/>
    <path d="M13.0513 29.0847C12.5798 29.0847 12.1694 29.0099 11.8204 28.8604C11.4774 28.7109 11.211 28.4991 11.0212 28.225C10.8374 27.9509 10.7456 27.6301 10.7456 27.2625V26.9915C10.7456 26.9292 10.7762 26.8981 10.8374 26.8981H11.508C11.5693 26.8981 11.5999 26.9292 11.5999 26.9915V27.2158C11.5999 27.5335 11.7346 27.7952 12.0041 28.0007C12.2735 28.2063 12.6441 28.3091 13.1156 28.3091C13.5382 28.3091 13.8566 28.2188 14.071 28.0381C14.2853 27.8575 14.3925 27.6207 14.3925 27.3279C14.3925 27.1348 14.3374 26.9697 14.2271 26.8327C14.1169 26.6956 13.9546 26.571 13.7403 26.4589C13.5321 26.3405 13.2259 26.2004 12.8217 26.0384C12.3746 25.864 12.0194 25.7051 11.7561 25.5618C11.4988 25.4185 11.2845 25.2317 11.113 25.0012C10.9415 24.7644 10.8558 24.4685 10.8558 24.1134C10.8558 23.5777 11.0426 23.1572 11.4162 22.8519C11.7959 22.5467 12.3072 22.394 12.9503 22.394C13.4035 22.394 13.8015 22.4719 14.1445 22.6277C14.4874 22.7834 14.7508 23.0014 14.9345 23.2818C15.1243 23.5621 15.2193 23.886 15.2193 24.2536V24.4405C15.2193 24.5028 15.1886 24.5339 15.1274 24.5339H14.4384C14.3772 24.5339 14.3466 24.5028 14.3466 24.4405V24.3003C14.3466 23.9764 14.218 23.7085 13.9607 23.4967C13.7097 23.2787 13.3606 23.1696 12.9135 23.1696C12.5338 23.1696 12.2399 23.2506 12.0316 23.4126C11.8234 23.5683 11.7193 23.7957 11.7193 24.0947C11.7193 24.3003 11.7714 24.4685 11.8755 24.5993C11.9796 24.7302 12.1327 24.8485 12.3348 24.9544C12.543 25.0541 12.8584 25.1849 13.281 25.3469C13.7158 25.5213 14.0679 25.6833 14.3374 25.8328C14.6068 25.9761 14.8304 26.1692 15.008 26.4122C15.1856 26.6489 15.2744 26.9448 15.2744 27.2999C15.2744 27.8481 15.0753 28.2842 14.6773 28.6081C14.2853 28.9258 13.7433 29.0847 13.0513 29.0847Z" fill="white"/>
    <path d="M20.5095 26.0384C20.534 26.2938 20.5432 26.5804 20.5371 26.8981C20.5371 26.9604 20.5065 26.9915 20.4452 26.9915H17.5148C17.4903 26.9915 17.4781 27.004 17.4781 27.0289C17.4781 27.2407 17.4964 27.4027 17.5332 27.5148C17.6006 27.764 17.7353 27.9602 17.9374 28.1035C18.1456 28.2406 18.4059 28.3091 18.7182 28.3091C19.1714 28.3091 19.5205 28.1191 19.7654 27.7391C19.7961 27.6768 19.8359 27.6675 19.8849 27.7111L20.4085 28.0661C20.4513 28.1035 20.4605 28.144 20.436 28.1876C20.2646 28.468 20.0196 28.6891 19.7011 28.8511C19.3888 29.0131 19.0336 29.094 18.6355 29.094C18.1885 29.094 17.8118 28.9944 17.5056 28.795C17.1994 28.5957 16.9698 28.3122 16.8167 27.9447C16.6697 27.5771 16.5962 27.1317 16.5962 26.6084C16.5962 26.1536 16.6299 25.8079 16.6972 25.5712C16.8075 25.1413 17.0279 24.8018 17.3586 24.5526C17.6894 24.3034 18.0905 24.1788 18.562 24.1788C19.1806 24.1788 19.643 24.3377 19.9492 24.6554C20.2554 24.9669 20.4422 25.4279 20.5095 26.0384ZM18.562 24.9544C18.2987 24.9544 18.0813 25.023 17.9098 25.16C17.7383 25.2908 17.622 25.4684 17.5607 25.6926C17.5179 25.8297 17.4903 26.0041 17.4781 26.2159C17.4781 26.2409 17.4903 26.2533 17.5148 26.2533H19.6185C19.643 26.2533 19.6552 26.2409 19.6552 26.2159C19.643 26.0104 19.6246 25.8577 19.6001 25.7581C19.5388 25.5151 19.4164 25.322 19.2326 25.1787C19.055 25.0292 18.8315 24.9544 18.562 24.9544Z" fill="white"/>
    <path d="M22.1091 29.0099C22.0479 29.0099 22.0173 28.9788 22.0173 28.9165V22.5622C22.0173 22.4999 22.0479 22.4688 22.1091 22.4688H22.8073C22.8685 22.4688 22.8992 22.4999 22.8992 22.5622V28.9165C22.8992 28.9788 22.8685 29.0099 22.8073 29.0099H22.1091Z" fill="white"/>
    <path d="M24.6386 29.0099C24.5773 29.0099 24.5467 28.9788 24.5467 28.9165V22.5622C24.5467 22.4999 24.5773 22.4688 24.6386 22.4688H25.3367C25.398 22.4688 25.4286 22.4999 25.4286 22.5622V28.9165C25.4286 28.9788 25.398 29.0099 25.3367 29.0099H24.6386Z" fill="white"/>
    <path d="M30.8609 26.0384C30.8854 26.2938 30.8946 26.5804 30.8885 26.8981C30.8885 26.9604 30.8578 26.9915 30.7966 26.9915H27.8662C27.8417 26.9915 27.8294 27.004 27.8294 27.0289C27.8294 27.2407 27.8478 27.4027 27.8846 27.5148C27.9519 27.764 28.0867 27.9602 28.2888 28.1035C28.497 28.2406 28.7573 28.3091 29.0696 28.3091C29.5228 28.3091 29.8718 28.1191 30.1168 27.7391C30.1474 27.6768 30.1872 27.6675 30.2362 27.7111L30.7598 28.0661C30.8027 28.1035 30.8119 28.144 30.7874 28.1876C30.6159 28.468 30.371 28.6891 30.0525 28.8511C29.7402 29.0131 29.385 29.094 28.9869 29.094C28.5398 29.094 28.1632 28.9944 27.857 28.795C27.5508 28.5957 27.3211 28.3122 27.168 27.9447C27.0211 27.5771 26.9476 27.1317 26.9476 26.6084C26.9476 26.1536 26.9812 25.8079 27.0486 25.5712C27.1588 25.1413 27.3793 24.8018 27.71 24.5526C28.0407 24.3034 28.4419 24.1788 28.9134 24.1788C29.532 24.1788 29.9943 24.3377 30.3005 24.6554C30.6067 24.9669 30.7935 25.4279 30.8609 26.0384ZM28.9134 24.9544C28.6501 24.9544 28.4327 25.023 28.2612 25.16C28.0897 25.2908 27.9734 25.4684 27.9121 25.6926C27.8692 25.8297 27.8417 26.0041 27.8294 26.2159C27.8294 26.2409 27.8417 26.2533 27.8662 26.2533H29.9698C29.9943 26.2533 30.0066 26.2409 30.0066 26.2159C29.9943 26.0104 29.976 25.8577 29.9515 25.7581C29.8902 25.5151 29.7677 25.322 29.584 25.1787C29.4064 25.0292 29.1829 24.9544 28.9134 24.9544Z" fill="white"/>
    <path d="M34.4172 24.2069C34.6132 24.2069 34.7908 24.2474 34.95 24.3284C34.9929 24.347 35.0082 24.3844 34.9959 24.4405L34.8489 25.1413C34.8428 25.1974 34.8061 25.2161 34.7387 25.1974C34.6346 25.1538 34.5121 25.132 34.3713 25.132L34.2426 25.1413C33.9548 25.1538 33.716 25.2566 33.5261 25.4497C33.3424 25.6366 33.2505 25.8827 33.2505 26.1879V28.9165C33.2505 28.9788 33.2199 29.0099 33.1587 29.0099H32.4605C32.3993 29.0099 32.3687 28.9788 32.3687 28.9165V24.347C32.3687 24.2847 32.3993 24.2536 32.4605 24.2536H33.1587C33.2199 24.2536 33.2505 24.2847 33.2505 24.347V24.8423C33.2505 24.861 33.2536 24.8734 33.2597 24.8797C33.272 24.8797 33.2812 24.8734 33.2873 24.861C33.5629 24.4249 33.9395 24.2069 34.4172 24.2069Z" fill="white"/>
</svg>
