<svg width="132" height="132" viewBox="0 0 132 132" fill="none" xmlns="http://www.w3.org/2000/svg">
    <g filter="url(#filter0_d_12130_54642)">
        <circle cx="66" cy="50" r="40" fill="white"/>
        <path d="M88.1799 42.1292L87.568 36.2843C86.6817 29.9118 83.7909 27.3164 77.6083 27.3164H72.6285H69.5056H63.0909H59.968H54.9038C48.7001 27.3164 45.8304 29.9118 44.923 36.3476L44.3533 42.1503C44.1423 44.4081 44.7542 46.6026 46.0836 48.3118C47.6872 50.4008 50.1561 51.5825 52.8992 51.5825C55.5579 51.5825 58.1111 50.2531 59.7148 48.1219C61.1496 50.2531 63.5973 51.5825 66.3194 51.5825C69.0414 51.5825 71.4258 50.3164 72.8817 48.2063C74.5065 50.2953 77.0175 51.5825 79.634 51.5825C82.4405 51.5825 84.9726 50.3375 86.5551 48.143C87.8212 46.4549 88.3909 44.3237 88.1799 42.1292Z" fill="#2DB894"/>
        <path d="M64.9477 59.8332C62.2679 60.1075 60.2422 62.3864 60.2422 65.0873V70.8689C60.2422 71.4387 60.7064 71.9029 61.2761 71.9029H71.3413C71.911 71.9029 72.3752 71.4387 72.3752 70.8689V65.8258C72.3963 61.4157 69.8009 59.3267 64.9477 59.8332Z" fill="#2DB894"/>
        <path d="M86.0939 55.064V61.3521C86.0939 67.1759 81.3673 71.9025 75.5434 71.9025C74.9737 71.9025 74.5095 71.4383 74.5095 70.8686V65.8255C74.5095 63.1245 73.6866 61.0145 72.0829 59.5796C70.6691 58.2924 68.7489 57.6594 66.3645 57.6594C65.837 57.6594 65.3095 57.6805 64.7398 57.7438C60.9838 58.1236 58.1352 61.2888 58.1352 65.0869V70.8686C58.1352 71.4383 57.671 71.9025 57.1012 71.9025C51.2774 71.9025 46.5508 67.1759 46.5508 61.3521V55.1062C46.5508 53.6291 48.0067 52.6374 49.3783 53.1227C49.948 53.3126 50.5178 53.4603 51.1086 53.5447C51.3618 53.5869 51.6361 53.6291 51.8893 53.6291C52.2269 53.6713 52.5645 53.6924 52.9022 53.6924C55.3499 53.6924 57.7554 52.7851 59.6544 51.2236C61.4691 52.7851 63.8324 53.6924 66.3223 53.6924C68.8333 53.6924 71.1544 52.8273 72.9691 51.2658C74.8682 52.8062 77.2315 53.6924 79.637 53.6924C80.0168 53.6924 80.3966 53.6713 80.7554 53.6291C81.0086 53.608 81.2407 53.5869 81.4728 53.5447C82.1269 53.4603 82.7177 53.2704 83.3086 53.0805C84.6801 52.6163 86.0939 53.6291 86.0939 55.064Z" fill="#2DB894"/>
    </g>
    <defs>
        <filter id="filter0_d_12130_54642" x="0" y="0" width="132" height="132" filterUnits="userSpaceOnUse" color-interpolation-filters="sRGB">
            <feFlood flood-opacity="0" result="BackgroundImageFix"/>
            <feColorMatrix in="SourceAlpha" type="matrix" values="0 0 0 0 0 0 0 0 0 0 0 0 0 0 0 0 0 0 127 0" result="hardAlpha"/>
            <feOffset dy="16"/>
            <feGaussianBlur stdDeviation="13"/>
            <feComposite in2="hardAlpha" operator="out"/>
            <feColorMatrix type="matrix" values="0 0 0 0 0.159948 0 0 0 0 0.4625 0 0 0 0 0.335428 0 0 0 0.15 0"/>
            <feBlend mode="normal" in2="BackgroundImageFix" result="effect1_dropShadow_12130_54642"/>
            <feBlend mode="normal" in="SourceGraphic" in2="effect1_dropShadow_12130_54642" result="shape"/>
        </filter>
    </defs>
</svg>
