<svg width="253" height="139" viewBox="0 0 253 139" fill="none" xmlns="http://www.w3.org/2000/svg">
    <g filter="url(#filter0_d_12142_49748)">
        <circle cx="91" cy="29" r="19" fill="white"/>
        <path d="M101.536 25.2617L101.246 22.4853C100.825 19.4584 99.4515 18.2256 96.5147 18.2256H94.1493H92.6659H89.619H88.1356H85.7301C82.7833 18.2256 81.4202 19.4584 80.9892 22.5154L80.7186 25.2717C80.6184 26.3442 80.909 27.3865 81.5405 28.1984C82.3022 29.1907 83.4749 29.752 84.7779 29.752C86.0408 29.752 87.2536 29.1205 88.0153 28.1082C88.6969 29.1205 89.8595 29.752 91.1525 29.752C92.4454 29.752 93.578 29.1506 94.2696 28.1483C95.0414 29.1406 96.2341 29.752 97.4769 29.752C98.81 29.752 100.013 29.1606 100.764 28.1182C101.366 27.3164 101.636 26.3041 101.536 25.2617Z" fill="#2DB894"/>
        <path d="M90.5007 33.6711C89.2278 33.8014 88.2656 34.8838 88.2656 36.1668V38.9131C88.2656 39.1837 88.4861 39.4042 88.7567 39.4042H93.5377C93.8083 39.4042 94.0288 39.1837 94.0288 38.9131V36.5176C94.0388 34.4228 92.806 33.4305 90.5007 33.6711Z" fill="#2DB894"/>
        <path d="M100.545 31.4052V34.3921C100.545 37.1584 98.2996 39.4035 95.5332 39.4035C95.2626 39.4035 95.0421 39.183 95.0421 38.9124V36.5169C95.0421 35.234 94.6512 34.2317 93.8895 33.5501C93.2179 32.9387 92.3058 32.638 91.1733 32.638C90.9227 32.638 90.6721 32.6481 90.4015 32.6781C88.6174 32.8586 87.2643 34.362 87.2643 36.1661V38.9124C87.2643 39.183 87.0438 39.4035 86.7732 39.4035C84.0069 39.4035 81.7617 37.1584 81.7617 34.3921V31.4253C81.7617 30.7237 82.4533 30.2526 83.1048 30.4831C83.3754 30.5733 83.646 30.6435 83.9267 30.6836C84.0469 30.7036 84.1772 30.7237 84.2975 30.7237C84.4579 30.7437 84.6183 30.7537 84.7786 30.7537C85.9413 30.7537 87.0839 30.3228 87.986 29.5811C88.8479 30.3228 89.9705 30.7537 91.1532 30.7537C92.3459 30.7537 93.4485 30.3428 94.3104 29.6011C95.2125 30.3328 96.3351 30.7537 97.4777 30.7537C97.6581 30.7537 97.8385 30.7437 98.0089 30.7237C98.1292 30.7136 98.2394 30.7036 98.3497 30.6836C98.6604 30.6435 98.941 30.5533 99.2217 30.4631C99.8732 30.2426 100.545 30.7237 100.545 31.4052Z" fill="#2DB894"/>
    </g>
    <path d="M121.559 35.5V26.716H123.575V27.922H123.593C124.313 27.058 125.321 26.59 126.329 26.59C127.517 26.59 128.435 27.058 128.957 28.048H128.993C129.731 27.094 130.847 26.59 132.143 26.59C134.069 26.59 135.221 27.796 135.221 30.424V35.5H133.205V30.928C133.205 29.344 132.683 28.408 131.495 28.408C130.361 28.408 129.443 29.398 129.443 31.126V35.5H127.427V30.928C127.427 29.344 126.869 28.408 125.681 28.408C124.475 28.408 123.575 29.398 123.575 31.126V35.5H121.559ZM141.281 35.644C139.643 35.644 137.987 35.014 136.655 33.628L138.023 31.954C138.941 33.07 140.201 33.628 141.299 33.628C142.703 33.628 143.423 33.016 143.423 32.08C143.423 30.964 142.577 30.604 140.957 30.028C139.013 29.344 137.087 28.48 137.087 26.14C137.087 24.142 138.923 22.576 141.137 22.576C142.649 22.576 144.071 23.116 145.367 24.142L144.071 25.852C143.027 24.988 142.001 24.538 141.137 24.538C140.147 24.538 139.355 25.078 139.337 26.032C139.319 26.968 140.183 27.292 141.731 27.886C143.927 28.75 145.691 29.344 145.691 31.81C145.691 34.456 143.333 35.644 141.281 35.644ZM155.376 31C155.376 31.324 155.34 31.63 155.322 31.774H148.914C149.166 33.052 150.12 33.808 151.488 33.808C152.532 33.808 153.252 33.34 153.702 32.782L155.106 33.988C154.368 34.942 153.27 35.644 151.38 35.644C148.716 35.644 146.826 33.862 146.826 31.108C146.826 28.408 148.662 26.59 151.236 26.59C153.702 26.59 155.376 28.444 155.376 31ZM151.218 28.408C150.102 28.408 149.238 29.038 148.95 30.19H153.342C153.09 29.128 152.37 28.408 151.218 28.408ZM157.082 35.5V22.252H159.098V35.5H157.082ZM161.486 35.5V22.252H163.502V35.5H161.486ZM173.792 31C173.792 31.324 173.756 31.63 173.738 31.774H167.33C167.582 33.052 168.536 33.808 169.904 33.808C170.948 33.808 171.668 33.34 172.118 32.782L173.522 33.988C172.784 34.942 171.686 35.644 169.796 35.644C167.132 35.644 165.242 33.862 165.242 31.108C165.242 28.408 167.078 26.59 169.652 26.59C172.118 26.59 173.792 28.444 173.792 31ZM169.634 28.408C168.518 28.408 167.654 29.038 167.366 30.19H171.758C171.506 29.128 170.786 28.408 169.634 28.408ZM175.372 35.5V26.716H177.388V28.03H177.424C178.108 27.112 179.08 26.59 180.142 26.59H180.394V28.84C180.16 28.822 179.926 28.804 179.782 28.804C178.252 28.804 177.388 29.902 177.388 31.342V35.5H175.372Z" fill="white"/>
    <path d="M4.40211 86V71.8H6.80211L13.7421 82H13.7821V71.8H16.1821V86H13.7221L6.86211 75.98H6.82211V86H4.40211ZM18.876 86V71.28H21.116V77.46H21.136C21.956 76.56 23.136 76.1 24.456 76.1C26.596 76.1 28.096 77.24 28.096 80.16V86H25.856V80.74C25.856 78.8 25.076 78.12 23.736 78.12C22.116 78.12 21.116 79.12 21.116 81.04V86H18.876ZM31.6491 74.92L33.8291 72.02H36.1691L38.2691 74.92H36.0891L35.0091 73.38H34.9691L33.8691 74.92H31.6491ZM34.4491 86.16C31.7491 86.16 29.7291 84.18 29.7291 81.16C29.7291 78.22 31.7491 76.1 34.4291 76.1C35.6691 76.1 36.7491 76.56 37.4491 77.44L37.4891 77.42V76.24H39.7291V86H37.5891V84.72L37.5491 84.7C36.8491 85.64 35.8091 86.16 34.4491 86.16ZM34.8091 84.12C36.3291 84.12 37.5891 82.94 37.5891 81.18C37.5891 79.44 36.4091 78.12 34.8091 78.12C33.2491 78.12 32.0091 79.3 32.0091 81.18C32.0091 82.9 33.1491 84.12 34.8091 84.12ZM34.7491 87.56C35.5891 87.56 36.2491 88.24 36.2491 89.06C36.2491 89.86 35.5891 90.54 34.7491 90.54C33.9091 90.54 33.2291 89.86 33.2291 89.06C33.2291 88.24 33.9091 87.56 34.7491 87.56ZM42.0557 89.96V76.24H44.2957V77.4H44.3357C45.0557 76.56 46.1357 76.1 47.4157 76.1C50.1157 76.1 52.1357 78.22 52.1357 81.16C52.1357 84.18 50.1157 86.16 47.3957 86.16C46.0757 86.16 45.0557 85.68 44.3357 84.8L44.2957 84.82V89.96H42.0557ZM47.0557 84.12C48.6957 84.12 49.8557 82.9 49.8557 81.18C49.8557 79.3 48.5957 78.12 47.0357 78.12C45.3557 78.12 44.1957 79.44 44.1957 81.18C44.1957 82.94 45.4557 84.12 47.0557 84.12ZM61.9491 86.16C60.3691 86.16 59.0291 85.64 58.0091 84.74L59.1291 83.06C59.9091 83.82 60.7491 84.2 61.9491 84.2C62.8091 84.2 63.3091 83.82 63.3091 83.24C63.3091 82.74 62.6691 82.5 61.3891 82.06C59.7891 81.5 58.4091 80.78 58.4091 78.86C58.4091 77.26 59.8491 76.1 61.8491 76.1C63.0891 76.1 64.2091 76.44 65.2891 77.32L64.1691 79.08C63.3891 78.34 62.4891 78.04 61.7291 78.04C61.2891 78.04 60.6691 78.28 60.6691 78.88C60.6691 79.36 61.2691 79.7 62.2091 80.06C64.2891 80.88 65.5891 81.26 65.5891 83.2C65.5891 84.84 64.4291 86.16 61.9491 86.16ZM74.5735 73.1L76.2335 70.2H78.6935L76.2335 73.1H74.5735ZM68.5535 74.92L70.7335 72.02H73.0735L75.1735 74.92H72.9935L71.9135 73.38H71.8735L70.7735 74.92H68.5535ZM71.8535 86.16C68.7735 86.16 66.7335 84 66.7335 81.14C66.7335 78.26 68.7735 76.1 71.8535 76.1C74.8535 76.1 76.9735 78.14 76.9735 81.14C76.9735 84.1 74.8535 86.16 71.8535 86.16ZM71.8535 84.12C73.4335 84.12 74.6935 82.9 74.6935 81.14C74.6935 79.34 73.4535 78.12 71.8535 78.12C70.1535 78.12 69.0135 79.44 69.0135 81.14C69.0135 82.8 70.1735 84.12 71.8535 84.12ZM94.3773 73.24V74.76H93.1373V86H90.9973V84.68H90.9773C90.2573 85.62 89.1973 86.16 87.7973 86.16C85.0973 86.16 83.0573 84.18 83.0573 81.16C83.0573 78.22 85.0973 76.1 87.7773 76.1C89.0573 76.1 90.1573 76.56 90.8973 77.44H90.9173V74.76H87.1973V73.24H90.9173V71.28H93.1373V73.24H94.3773ZM88.1373 84.12C89.7373 84.12 90.9973 82.94 90.9973 81.18C90.9973 79.44 89.8373 78.12 88.1573 78.12C86.5973 78.12 85.3373 79.3 85.3373 81.18C85.3373 82.9 86.4973 84.12 88.1373 84.12ZM96.6048 74.8C95.7648 74.8 95.1048 74.12 95.1048 73.3C95.1048 72.5 95.7648 71.82 96.6048 71.82C97.4448 71.82 98.1248 72.5 98.1248 73.3C98.1248 74.12 97.4448 74.8 96.6048 74.8ZM95.4848 86V76.24H97.7248V86H95.4848ZM104.654 73.38L103.554 74.92H101.334L103.514 72.02H105.854L107.954 74.92H105.774L104.694 73.38H104.654ZM109.214 81C109.214 81.36 109.174 81.7 109.154 81.86H102.034C102.314 83.28 103.374 84.12 104.894 84.12C106.054 84.12 106.854 83.6 107.354 82.98L108.914 84.32C108.094 85.38 106.874 86.16 104.774 86.16C101.814 86.16 99.714 84.18 99.714 81.12C99.714 78.12 101.754 76.1 104.614 76.1C107.354 76.1 109.214 78.16 109.214 81ZM104.594 78.12C103.354 78.12 102.394 78.82 102.074 80.1H106.954C106.674 78.92 105.874 78.12 104.594 78.12ZM104.754 87.56C105.594 87.56 106.254 88.24 106.254 89.06C106.254 89.86 105.594 90.54 104.754 90.54C103.914 90.54 103.234 89.86 103.234 89.06C103.234 88.24 103.914 87.56 104.754 87.56ZM111.024 86V76.24H113.264V77.58H113.304C114.104 76.62 115.284 76.1 116.564 76.1C118.704 76.1 120.144 77.32 120.144 80.26V86H117.904V80.84C117.904 78.78 117.124 78.12 115.784 78.12C114.264 78.12 113.264 79.18 113.264 81.1V86H111.024ZM130.131 86.16C128.451 86.16 127.411 85.1 127.411 82.92V78.14H126.211V76.24H127.411V73L129.651 72.76V76.24H132.511V78.14H129.651V82.7C129.651 83.7 129.951 84.06 130.591 84.06C130.971 84.06 131.511 83.92 132.031 83.64L132.611 85.58C132.031 85.9 131.411 86.16 130.131 86.16ZM134.036 86V71.28H136.276V77.46H136.296C137.116 76.56 138.296 76.1 139.616 76.1C141.756 76.1 143.256 77.24 143.256 80.16V86H141.016V80.74C141.016 78.8 140.236 78.12 138.896 78.12C137.276 78.12 136.276 79.12 136.276 81.04V86H134.036ZM150.029 86.16C146.949 86.16 144.909 84 144.909 81.14C144.909 78.26 146.949 76.1 150.029 76.1C153.029 76.1 155.149 78.14 155.149 81.14C155.149 84.1 153.029 86.16 150.029 86.16ZM150.029 84.12C151.609 84.12 152.869 82.9 152.869 81.14C152.869 79.34 151.629 78.12 150.029 78.12C148.329 78.12 147.189 79.44 147.189 81.14C147.189 82.8 148.349 84.12 150.029 84.12ZM161.101 86.16C158.401 86.16 156.381 84.18 156.381 81.16C156.381 78.22 158.401 76.1 161.081 76.1C162.321 76.1 163.401 76.56 164.101 77.44L164.141 77.42V76.24H166.381V86H164.241V84.72L164.201 84.7C163.501 85.64 162.461 86.16 161.101 86.16ZM161.461 84.12C162.981 84.12 164.241 82.94 164.241 81.18C164.241 79.44 163.061 78.12 161.461 78.12C159.901 78.12 158.661 79.3 158.661 81.18C158.661 82.9 159.801 84.12 161.461 84.12ZM161.401 87.56C162.241 87.56 162.901 88.24 162.901 89.06C162.901 89.86 162.241 90.54 161.401 90.54C160.561 90.54 159.881 89.86 159.881 89.06C159.881 88.24 160.561 87.56 161.401 87.56ZM169.968 74.8C169.128 74.8 168.468 74.12 168.468 73.3C168.468 72.5 169.128 71.82 169.968 71.82C170.808 71.82 171.488 72.5 171.488 73.3C171.488 74.12 170.808 74.8 169.968 74.8ZM168.848 86V76.24H171.088V86H168.848ZM182.909 86.16C180.029 86.16 177.929 84.12 177.929 81.14C177.929 78.14 180.029 76.1 182.989 76.1C184.509 76.1 186.109 76.72 187.089 77.92L185.569 79.24C185.009 78.58 184.169 78.12 183.109 78.12C181.369 78.12 180.209 79.34 180.209 81.12C180.209 82.92 181.389 84.12 183.109 84.12C184.189 84.12 185.069 83.64 185.569 82.98L187.109 84.34C186.289 85.4 185.029 86.16 182.909 86.16ZM192.133 74.92C193.053 74.26 193.553 73.64 193.533 73.2C193.533 72.94 193.313 72.78 192.953 72.78C192.393 72.78 191.953 72.94 191.193 73.46L190.673 72.3C191.113 71.84 192.073 71.24 193.493 71.24C194.573 71.24 195.373 71.74 195.373 72.88C195.373 73.88 194.413 74.66 193.773 74.92H192.133ZM192.113 86.16C189.953 86.16 188.453 85.08 188.453 82.18V76.24H190.693V81.58C190.693 83.52 191.293 84.12 192.633 84.12C193.933 84.12 195.133 83.02 195.133 80.92V76.24H197.373V86H195.133V84.78L195.093 84.76C194.313 85.7 193.233 86.16 192.113 86.16ZM203.836 86.16C201.136 86.16 199.116 84.18 199.116 81.16C199.116 78.22 201.136 76.1 203.816 76.1C205.056 76.1 206.136 76.56 206.836 77.44L206.876 77.42V76.24H209.116V86H206.976V84.72L206.936 84.7C206.236 85.64 205.196 86.16 203.836 86.16ZM204.196 84.12C205.716 84.12 206.976 82.94 206.976 81.18C206.976 79.44 205.796 78.12 204.196 78.12C202.636 78.12 201.396 79.3 201.396 81.18C201.396 82.9 202.536 84.12 204.196 84.12ZM221.634 86.16C220.234 86.16 219.194 85.64 218.474 84.7H218.434V86H216.294V71.28H218.534V77.4H218.554C219.314 76.54 220.374 76.1 221.654 76.1C224.354 76.1 226.374 78.22 226.374 81.16C226.374 84.18 224.354 86.16 221.634 86.16ZM221.294 84.12C222.934 84.12 224.094 82.9 224.094 81.18C224.094 79.3 222.834 78.12 221.274 78.12C219.594 78.12 218.434 79.44 218.434 81.18C218.434 82.94 219.694 84.12 221.294 84.12ZM232.336 86.16C229.636 86.16 227.616 84.18 227.616 81.16C227.616 78.22 229.636 76.1 232.316 76.1C233.556 76.1 234.636 76.56 235.336 77.44L235.376 77.42V76.24H237.616V86H235.476V84.72L235.436 84.7C234.736 85.64 233.696 86.16 232.336 86.16ZM232.696 84.12C234.216 84.12 235.476 82.94 235.476 81.18C235.476 79.44 234.296 78.12 232.696 78.12C231.136 78.12 229.896 79.3 229.896 81.18C229.896 82.9 231.036 84.12 232.696 84.12ZM232.636 87.56C233.476 87.56 234.136 88.24 234.136 89.06C234.136 89.86 233.476 90.54 232.636 90.54C231.796 90.54 231.116 89.86 231.116 89.06C231.116 88.24 231.796 87.56 232.636 87.56ZM239.942 86V76.24H242.182V77.58H242.222C243.022 76.62 244.202 76.1 245.482 76.1C247.622 76.1 249.062 77.32 249.062 80.26V86H246.822V80.84C246.822 78.78 246.042 78.12 244.702 78.12C243.182 78.12 242.182 79.18 242.182 81.1V86H239.942Z" fill="white"/>
    <path d="M30.7931 116.07C28.1051 116.07 25.8371 114.306 25.8371 111.058C25.8371 108.244 27.6011 105.962 30.7791 105.962C32.2071 105.962 33.6071 106.578 34.6571 107.866L33.7471 108.622C32.9211 107.6 31.8991 107.124 30.7791 107.124C28.5251 107.124 27.1111 108.776 27.1111 111.058C27.1111 113.438 28.6931 114.922 30.7931 114.922C32.0811 114.922 33.0611 114.306 33.7611 113.424L34.6711 114.194C33.8031 115.272 32.5431 116.07 30.7931 116.07ZM35.7339 116V105.696H36.8679V110.372H36.8819C37.4139 109.56 38.3099 109.098 39.4019 109.098C40.8719 109.098 41.8799 109.966 41.8799 111.912V116H40.7459V112.234C40.7459 110.694 40.0599 110.134 39.0659 110.134C37.7079 110.134 36.8679 111.03 36.8679 112.57V116H35.7339ZM45.5667 108.202L47.2187 106.228L48.4927 106.214L46.7567 108.202H45.5667ZM45.7767 116.084C44.2087 116.084 43.2147 115.188 43.2147 113.242V109.182H44.3487V112.92C44.3487 114.46 44.9367 115.048 46.0147 115.048C47.1067 115.048 48.0447 114.11 48.0447 112.486V109.182H49.1787V116H48.0447V114.824H48.0307C47.5127 115.636 46.6727 116.084 45.7767 116.084ZM50.73 116V109.182H51.864V110.414H51.878C52.41 109.588 53.306 109.098 54.356 109.098C55.826 109.098 56.806 110.008 56.806 111.954V116H55.672V112.276C55.672 110.68 54.986 110.134 53.992 110.134C52.704 110.134 51.864 111.058 51.864 112.598V116H50.73ZM61.3064 118.856C60.2844 118.856 59.3464 118.604 58.5344 118.114L58.8144 117.106C59.5984 117.554 60.2844 117.82 61.2644 117.82C62.8044 117.82 63.5464 116.924 63.5464 115.776V114.684H63.5184C63.0144 115.412 62.2024 115.874 61.1524 115.874C59.2904 115.874 57.8484 114.53 57.8484 112.5C57.8484 110.554 59.1924 109.098 61.1104 109.098C62.0764 109.098 62.9584 109.532 63.5044 110.274H63.5324V109.182H64.6664V115.496C64.6664 117.456 63.6864 118.856 61.3064 118.856ZM61.2924 114.824C62.6644 114.824 63.5744 113.802 63.5744 112.444C63.5744 111.072 62.5804 110.148 61.3064 110.148C59.9204 110.148 58.9964 111.142 58.9964 112.472C58.9964 113.914 60.0044 114.824 61.2924 114.824ZM71.4234 116.084C70.2194 116.084 69.6594 115.342 69.6594 113.97V110.162H68.7774V109.182H69.6594V106.858L70.7934 106.732V109.182H73.0474V110.162H70.7934V113.802C70.7934 114.628 70.9754 115.02 71.6194 115.02C72.0254 115.02 72.4454 114.852 72.7814 114.67L73.0754 115.664C72.6974 115.888 72.2354 116.084 71.4234 116.084ZM74.6459 108.216L76.2559 106.256H77.4459L78.9999 108.216H77.8659L76.8579 106.97H76.8299L75.8079 108.216H74.6459ZM76.8299 116.084C74.7159 116.084 73.3019 114.558 73.3019 112.598C73.3019 110.638 74.7159 109.098 76.8299 109.098C78.8459 109.098 80.3439 110.526 80.3439 112.598C80.3439 114.67 78.8459 116.084 76.8299 116.084ZM76.8299 115.048C78.1319 115.048 79.1819 114.054 79.1819 112.598C79.1819 111.142 78.1459 110.134 76.8299 110.134C75.4019 110.134 74.4639 111.24 74.4639 112.598C74.4639 113.956 75.4159 115.048 76.8299 115.048ZM82.1927 107.936C81.7307 107.936 81.3667 107.572 81.3667 107.124C81.3667 106.676 81.7307 106.312 82.1927 106.312C82.6547 106.312 83.0187 106.676 83.0187 107.124C83.0187 107.572 82.6547 107.936 82.1927 107.936ZM81.6187 116V109.182H82.7527V116H81.6187ZM89.8388 116.084C88.7048 116.084 87.8368 115.692 87.1788 115.118L87.7528 114.25C88.2848 114.768 88.8868 115.076 89.8388 115.076C90.6648 115.076 91.1408 114.67 91.1408 114.152C91.1408 113.55 90.5108 113.382 89.5168 113.018C88.4108 112.626 87.4728 112.178 87.4728 110.932C87.4728 109.882 88.4248 109.098 89.7128 109.098C90.5388 109.098 91.3088 109.322 92.0648 109.938L91.4768 110.834C90.8888 110.288 90.2588 110.106 89.6708 110.106C89.1388 110.106 88.6208 110.414 88.6208 110.932C88.6208 111.464 89.1668 111.73 89.9088 111.996C91.3508 112.556 92.3028 112.808 92.2888 114.138C92.2888 115.202 91.4768 116.084 89.8388 116.084ZM95.3941 107.292C95.0161 107.292 94.7361 107.586 94.5541 108.076L93.8261 107.754C94.0921 106.914 94.5681 106.382 95.2821 106.382C95.7721 106.382 96.1081 106.578 96.4161 106.788C96.7101 106.97 96.9901 107.194 97.3121 107.194C97.6481 107.194 97.9421 106.914 98.1241 106.424L98.8381 106.662C98.5861 107.6 98.0541 108.132 97.4381 108.132C96.9621 108.132 96.5561 107.866 96.2061 107.628C95.9261 107.446 95.6601 107.292 95.3941 107.292ZM99.4541 112.472C99.4541 112.654 99.4261 112.85 99.4261 112.934H94.1061C94.2601 114.208 95.1561 115.048 96.4441 115.048C97.3541 115.048 97.9981 114.656 98.4181 114.138L99.2161 114.81C98.6281 115.566 97.7741 116.084 96.4021 116.084C94.3861 116.084 92.9581 114.684 92.9581 112.598C92.9581 110.54 94.3721 109.098 96.3181 109.098C98.1801 109.098 99.4541 110.526 99.4541 112.472ZM96.3041 110.134C95.2121 110.134 94.3441 110.848 94.1341 112.01H98.3201C98.1521 110.89 97.4241 110.134 96.3041 110.134ZM106.941 118.856C105.919 118.856 104.981 118.604 104.169 118.114L104.449 117.106C105.233 117.554 105.919 117.82 106.899 117.82C108.439 117.82 109.181 116.924 109.181 115.776V114.684H109.153C108.649 115.412 107.837 115.874 106.787 115.874C104.925 115.874 103.483 114.53 103.483 112.5C103.483 110.554 104.827 109.098 106.745 109.098C107.711 109.098 108.593 109.532 109.139 110.274H109.167V109.182H110.301V115.496C110.301 117.456 109.321 118.856 106.941 118.856ZM106.927 114.824C108.299 114.824 109.209 113.802 109.209 112.444C109.209 111.072 108.215 110.148 106.941 110.148C105.555 110.148 104.631 111.142 104.631 112.472C104.631 113.914 105.639 114.824 106.927 114.824ZM114.766 106.536C114.346 106.536 113.954 106.662 113.534 106.998L113.254 106.34C113.59 106.046 114.206 105.724 115.018 105.724C115.732 105.724 116.278 106.046 116.278 106.802C116.278 107.488 115.55 108.02 115.116 108.244H114.192C114.808 107.796 115.34 107.334 115.326 106.942C115.326 106.648 115.102 106.536 114.766 106.536ZM118.546 108.09H119.708V109.112C119.708 110.68 118.98 111.52 117.636 111.59V116H116.502V114.824H116.488C115.97 115.636 115.13 116.084 114.234 116.084C112.666 116.084 111.672 115.188 111.672 113.242V109.182H112.806V112.92C112.806 114.46 113.394 115.048 114.472 115.048C115.564 115.048 116.502 114.11 116.502 112.486V109.182H117.636V110.806C118.42 110.652 118.546 110.064 118.546 109.056V108.09ZM121.185 107.936C120.723 107.936 120.359 107.572 120.359 107.124C120.359 106.676 120.723 106.312 121.185 106.312C121.647 106.312 122.011 106.676 122.011 107.124C122.011 107.572 121.647 107.936 121.185 107.936ZM120.611 116V109.182H121.745V116H120.611ZM126.773 116V109.182H127.907V110.414H127.921C128.439 109.588 129.293 109.098 130.203 109.098C131.225 109.098 131.967 109.616 132.317 110.554H132.331C132.849 109.63 133.773 109.098 134.837 109.098C136.349 109.098 137.189 110.134 137.189 112.08V116H136.055V112.388C136.055 110.932 135.537 110.134 134.501 110.134C133.437 110.134 132.583 111.086 132.583 112.612V116H131.449V112.388C131.449 110.932 130.889 110.134 129.867 110.134C128.747 110.134 127.907 111.086 127.907 112.612V116H126.773ZM139.57 108.216L141.18 106.256H142.37L143.924 108.216H142.79L141.782 106.97H141.754L140.732 108.216H139.57ZM141.754 116.084C139.64 116.084 138.226 114.558 138.226 112.598C138.226 110.638 139.64 109.098 141.754 109.098C143.77 109.098 145.268 110.526 145.268 112.598C145.268 114.67 143.77 116.084 141.754 116.084ZM141.754 115.048C143.056 115.048 144.106 114.054 144.106 112.598C144.106 111.142 143.07 110.134 141.754 110.134C140.326 110.134 139.388 111.24 139.388 112.598C139.388 113.956 140.34 115.048 141.754 115.048ZM141.754 117.316C142.216 117.316 142.58 117.68 142.58 118.128C142.58 118.576 142.216 118.94 141.754 118.94C141.292 118.94 140.928 118.576 140.928 118.128C140.928 117.68 141.292 117.316 141.754 117.316ZM148.377 116.084C147.173 116.084 146.613 115.342 146.613 113.97V110.162H145.731V109.182H146.613V106.858L147.747 106.732V109.182H150.001V110.162H147.747V113.802C147.747 114.628 147.929 115.02 148.573 115.02C148.979 115.02 149.399 114.852 149.735 114.67L150.029 115.664C149.651 115.888 149.189 116.084 148.377 116.084ZM154.332 116V109.182H155.466V110.414H155.48C155.998 109.588 156.852 109.098 157.762 109.098C158.784 109.098 159.526 109.616 159.876 110.554H159.89C160.408 109.63 161.332 109.098 162.396 109.098C163.908 109.098 164.748 110.134 164.748 112.08V116H163.614V112.388C163.614 110.932 163.096 110.134 162.06 110.134C160.996 110.134 160.142 111.086 160.142 112.612V116H159.008V112.388C159.008 110.932 158.448 110.134 157.426 110.134C156.306 110.134 155.466 111.086 155.466 112.612V116H154.332ZM170.432 108.132C169.956 108.132 169.55 107.866 169.2 107.628C168.92 107.446 168.654 107.292 168.388 107.292C168.01 107.292 167.73 107.586 167.548 108.076L166.82 107.754C167.086 106.914 167.562 106.382 168.276 106.382C168.766 106.382 169.102 106.578 169.41 106.788C169.704 106.97 169.984 107.194 170.306 107.194C170.642 107.194 170.936 106.914 171.118 106.424L171.832 106.662C171.58 107.6 171.048 108.132 170.432 108.132ZM169.088 116.084C167.212 116.084 165.77 114.712 165.77 112.64C165.77 110.624 167.156 109.098 169.088 109.098C170.096 109.098 170.978 109.574 171.468 110.4L171.496 110.386V109.182H172.63V116H171.538V114.768H171.524C171.034 115.58 170.194 116.084 169.088 116.084ZM169.256 115.048C170.516 115.048 171.538 114.082 171.538 112.64C171.538 111.24 170.6 110.134 169.256 110.134C167.968 110.134 166.918 111.128 166.918 112.64C166.918 114.012 167.856 115.048 169.256 115.048ZM182.214 116.084C179.316 116.084 177.216 113.984 177.216 111.03C177.216 108.076 179.316 105.962 182.214 105.962C185 105.962 187.17 107.992 187.17 111.03C187.17 114.054 185 116.084 182.214 116.084ZM182.214 114.936C184.272 114.936 185.896 113.326 185.896 111.03C185.896 108.72 184.272 107.11 182.214 107.11C180.058 107.11 178.49 108.776 178.49 111.03C178.49 113.27 180.058 114.936 182.214 114.936ZM190.189 116V107.166H187.221V106.06H194.417V107.166H191.407V116H190.189ZM195.558 116V106.06H199.03C201.354 106.06 202.32 107.376 202.32 109.14C202.32 111.24 200.892 112.206 198.82 112.206H196.776V116H195.558ZM196.776 111.1H198.708C200.36 111.1 201.06 110.26 201.06 109.112C201.06 107.838 200.234 107.166 198.904 107.166H196.776V111.1ZM209.759 116.084C207.771 116.084 206.357 114.67 206.357 112.598C206.357 110.54 207.771 109.098 209.801 109.098C210.823 109.098 211.873 109.518 212.545 110.316L211.775 111.002C211.341 110.498 210.669 110.134 209.857 110.134C208.457 110.134 207.519 111.156 207.519 112.598C207.519 114.054 208.457 115.048 209.843 115.048C210.655 115.048 211.369 114.698 211.789 114.18L212.573 114.894C211.999 115.58 211.089 116.084 209.759 116.084ZM213.591 116V105.696H214.725V110.372H214.739C215.271 109.56 216.167 109.098 217.259 109.098C218.729 109.098 219.737 109.966 219.737 111.912V116H218.603V112.234C218.603 110.694 217.917 110.134 216.923 110.134C215.565 110.134 214.725 111.03 214.725 112.57V116H213.591ZM224.32 116.084C222.206 116.084 220.792 114.558 220.792 112.598C220.792 110.638 222.206 109.098 224.32 109.098C226.336 109.098 227.834 110.526 227.834 112.598C227.834 114.67 226.336 116.084 224.32 116.084ZM224.32 115.048C225.622 115.048 226.672 114.054 226.672 112.598C226.672 111.142 225.636 110.134 224.32 110.134C222.892 110.134 221.954 111.24 221.954 112.598C221.954 113.956 222.906 115.048 224.32 115.048ZM60.1604 136.084C59.0404 136.084 58.2004 135.58 57.6964 134.768H57.6684V136H56.5904V125.696H57.7244V130.372H57.7384C58.2564 129.56 59.1244 129.098 60.1604 129.098C62.0924 129.098 63.4784 130.624 63.4784 132.64C63.4784 134.712 62.0364 136.084 60.1604 136.084ZM60.0064 135.048C61.3784 135.048 62.3304 134.012 62.3304 132.64C62.3304 131.128 61.2804 130.134 59.9924 130.134C58.6064 130.134 57.6684 131.24 57.6684 132.64C57.6684 134.082 58.7044 135.048 60.0064 135.048ZM67.56 136.084C65.684 136.084 64.242 134.712 64.242 132.64C64.242 130.624 65.628 129.098 67.56 129.098C68.568 129.098 69.45 129.574 69.94 130.4L69.968 130.386V129.182H71.102V136H70.01V134.768H69.996C69.506 135.58 68.666 136.084 67.56 136.084ZM67.728 135.048C68.988 135.048 70.01 134.082 70.01 132.64C70.01 131.24 69.072 130.134 67.728 130.134C66.44 130.134 65.39 131.128 65.39 132.64C65.39 134.012 66.328 135.048 67.728 135.048ZM67.714 137.316C68.176 137.316 68.54 137.68 68.54 138.128C68.54 138.576 68.176 138.94 67.714 138.94C67.252 138.94 66.888 138.576 66.888 138.128C66.888 137.68 67.252 137.316 67.714 137.316ZM72.6392 136V129.182H73.7732V130.414H73.7872C74.3192 129.588 75.2152 129.098 76.2652 129.098C77.7352 129.098 78.7152 130.008 78.7152 131.954V136H77.5812V132.276C77.5812 130.68 76.8952 130.134 75.9012 130.134C74.6132 130.134 73.7732 131.058 73.7732 132.598V136H72.6392ZM87.0901 136.084C85.9701 136.084 85.1301 135.58 84.6261 134.768H84.5981V136H83.5201V125.696H84.6541V130.372H84.6681C85.1861 129.56 86.0541 129.098 87.0901 129.098C89.0221 129.098 90.4081 130.624 90.4081 132.64C90.4081 134.712 88.9661 136.084 87.0901 136.084ZM86.9361 135.048C88.3081 135.048 89.2601 134.012 89.2601 132.64C89.2601 131.128 88.2101 130.134 86.9221 130.134C85.5361 130.134 84.5981 131.24 84.5981 132.64C84.5981 134.082 85.6341 135.048 86.9361 135.048ZM94.4897 136.084C92.6137 136.084 91.1717 134.712 91.1717 132.64C91.1717 130.624 92.5577 129.098 94.4897 129.098C95.4977 129.098 96.3797 129.574 96.8697 130.4L96.8977 130.386V129.182H98.0317V136H96.9397V134.768H96.9257C96.4357 135.58 95.5957 136.084 94.4897 136.084ZM94.6577 135.048C95.9177 135.048 96.9397 134.082 96.9397 132.64C96.9397 131.24 96.0017 130.134 94.6577 130.134C93.3697 130.134 92.3197 131.128 92.3197 132.64C92.3197 134.012 93.2577 135.048 94.6577 135.048ZM102.663 136.084C100.549 136.084 99.1349 134.558 99.1349 132.598C99.1349 130.638 100.549 129.098 102.663 129.098C104.679 129.098 106.177 130.526 106.177 132.598C106.177 134.67 104.679 136.084 102.663 136.084ZM102.663 135.048C103.965 135.048 105.015 134.054 105.015 132.598C105.015 131.142 103.979 130.134 102.663 130.134C101.235 130.134 100.297 131.24 100.297 132.598C100.297 133.956 101.249 135.048 102.663 135.048ZM113.692 138.856C112.67 138.856 111.732 138.604 110.92 138.114L111.2 137.106C111.984 137.554 112.67 137.82 113.65 137.82C115.19 137.82 115.932 136.924 115.932 135.776V134.684H115.904C115.4 135.412 114.588 135.874 113.538 135.874C111.676 135.874 110.234 134.53 110.234 132.5C110.234 130.554 111.578 129.098 113.496 129.098C114.462 129.098 115.344 129.532 115.89 130.274H115.918V129.182H117.052V135.496C117.052 137.456 116.072 138.856 113.692 138.856ZM113.678 134.824C115.05 134.824 115.96 133.802 115.96 132.444C115.96 131.072 114.966 130.148 113.692 130.148C112.306 130.148 111.382 131.142 111.382 132.472C111.382 133.914 112.39 134.824 113.678 134.824ZM123.967 126.998L122.245 125.01H123.519L124.877 126.998H123.967ZM119.487 128.202L121.097 126.242H122.287L123.841 128.202H122.707L121.699 126.956H121.671L120.649 128.202H119.487ZM121.671 136.084C119.557 136.084 118.143 134.558 118.143 132.598C118.143 130.638 119.557 129.098 121.671 129.098C123.687 129.098 125.185 130.526 125.185 132.598C125.185 134.67 123.687 136.084 121.671 136.084ZM121.671 135.048C122.973 135.048 124.023 134.054 124.023 132.598C124.023 131.142 122.987 130.134 121.671 130.134C120.243 130.134 119.305 131.24 119.305 132.598C119.305 133.956 120.257 135.048 121.671 135.048ZM126.376 136V129.182H127.51V130.414H127.524C128.042 129.588 128.896 129.098 129.806 129.098C130.828 129.098 131.57 129.616 131.92 130.554H131.934C132.452 129.63 133.376 129.098 134.44 129.098C135.952 129.098 136.792 130.134 136.792 132.08V136H135.658V132.388C135.658 130.932 135.14 130.134 134.104 130.134C133.04 130.134 132.186 131.086 132.186 132.612V136H131.052V132.388C131.052 130.932 130.492 130.134 129.47 130.134C128.35 130.134 127.51 131.086 127.51 132.612V136H126.376ZM144.965 129.938C146.701 129.938 147.961 131.072 147.961 132.99C147.961 134.754 146.547 136.084 144.629 136.084C142.725 136.084 141.255 134.6 141.255 132.318C141.255 128.902 143.607 126.55 146.141 126.088L146.491 127.082C144.741 127.53 143.145 128.692 142.599 130.792C143.201 130.26 144.041 129.938 144.965 129.938ZM144.699 134.992C145.959 134.992 146.785 134.068 146.785 132.976C146.785 131.814 145.959 131.016 144.699 131.016C143.635 131.016 142.837 131.66 142.403 132.36V132.444C142.403 133.956 143.425 134.992 144.699 134.992ZM152.512 136V125.696H153.646V132.906L153.66 132.92L157.006 129.182H158.378L155.83 131.996L158.406 136H157.104L155.046 132.794L153.646 134.306V136H152.512ZM159.385 128.202L161.037 126.228L162.311 126.214L160.575 128.202H159.385ZM159.329 136V129.182H160.463V136H159.329ZM167.409 136.084C166.205 136.084 165.645 135.342 165.645 133.97V130.162H164.763V129.182H165.645V126.858L166.779 126.732V129.182H169.033V130.162H166.779V133.802C166.779 134.628 166.961 135.02 167.605 135.02C168.011 135.02 168.431 134.852 168.767 134.67L169.061 135.664C168.683 135.888 168.221 136.084 167.409 136.084ZM176.769 128.09H177.931V129.112C177.931 130.68 177.203 131.52 175.859 131.59V136H174.725V134.824H174.711C174.193 135.636 173.353 136.084 172.457 136.084C170.889 136.084 169.895 135.188 169.895 133.242V129.182H171.029V132.92C171.029 134.46 171.617 135.048 172.695 135.048C173.787 135.048 174.725 134.11 174.725 132.486V129.182H175.859V130.806C176.643 130.652 176.769 130.064 176.769 129.056V128.09ZM172.947 137.316C173.409 137.316 173.773 137.68 173.773 138.128C173.773 138.576 173.409 138.94 172.947 138.94C172.485 138.94 172.121 138.576 172.121 138.128C172.121 137.68 172.485 137.316 172.947 137.316ZM184.123 136.084C182.989 136.084 182.121 135.692 181.463 135.118L182.037 134.25C182.569 134.768 183.171 135.076 184.123 135.076C184.949 135.076 185.425 134.67 185.425 134.152C185.425 133.55 184.795 133.382 183.801 133.018C182.695 132.626 181.757 132.178 181.757 130.932C181.757 129.882 182.709 129.098 183.997 129.098C184.823 129.098 185.593 129.322 186.349 129.938L185.761 130.834C185.173 130.288 184.543 130.106 183.955 130.106C183.423 130.106 182.905 130.414 182.905 130.932C182.905 131.464 183.451 131.73 184.193 131.996C185.635 132.556 186.587 132.808 186.573 134.138C186.573 135.202 185.761 136.084 184.123 136.084ZM192.492 126.998L193.836 125.01H195.124L193.388 126.998H192.492ZM188.6 128.216L190.21 126.256H191.4L192.954 128.216H191.82L190.812 126.97H190.784L189.762 128.216H188.6ZM190.77 136.084C188.656 136.084 187.242 134.558 187.242 132.598C187.242 130.638 188.656 129.098 190.77 129.098C192.786 129.098 194.284 130.526 194.284 132.598C194.284 134.67 192.786 136.084 190.77 136.084ZM190.77 135.048C192.072 135.048 193.122 134.054 193.122 132.598C193.122 131.142 192.086 130.134 190.77 130.134C189.342 130.134 188.404 131.24 188.404 132.598C188.404 133.956 189.356 135.048 190.77 135.048ZM195.817 136.098C195.355 136.098 194.977 135.734 194.977 135.272C194.977 134.81 195.355 134.446 195.817 134.446C196.279 134.446 196.643 134.81 196.643 135.272C196.643 135.734 196.279 136.098 195.817 136.098Z" fill="white"/>
    <defs>
        <filter id="filter0_d_12142_49748" x="46" y="0" width="90" height="90" filterUnits="userSpaceOnUse" color-interpolation-filters="sRGB">
            <feFlood flood-opacity="0" result="BackgroundImageFix"/>
            <feColorMatrix in="SourceAlpha" type="matrix" values="0 0 0 0 0 0 0 0 0 0 0 0 0 0 0 0 0 0 127 0" result="hardAlpha"/>
            <feOffset dy="16"/>
            <feGaussianBlur stdDeviation="13"/>
            <feComposite in2="hardAlpha" operator="out"/>
            <feColorMatrix type="matrix" values="0 0 0 0 0.159948 0 0 0 0 0.4625 0 0 0 0 0.335428 0 0 0 0.15 0"/>
            <feBlend mode="normal" in2="BackgroundImageFix" result="effect1_dropShadow_12142_49748"/>
            <feBlend mode="normal" in="SourceGraphic" in2="effect1_dropShadow_12142_49748" result="shape"/>
        </filter>
    </defs>
</svg>
