<svg width="28" height="29" viewBox="0 0 28 29" fill="none" xmlns="http://www.w3.org/2000/svg">
    <path fill-rule="evenodd" clip-rule="evenodd" d="M6.70458 5.16669C5.14829 5.16669 3.85041 6.35678 3.71582 7.90724L2.7106 19.4874C2.50774 21.8243 4.34997 23.8334 6.69562 23.8334H21.3044C23.6501 23.8334 25.4923 21.8243 25.2894 19.4874L24.2842 7.90725C24.1496 6.35678 22.8517 5.16669 21.2954 5.16669H6.70458ZM17.3834 10.1447C16.898 11.6011 15.5351 12.5834 14 12.5834C12.4649 12.5834 11.102 11.6011 10.6166 10.1447L10.0449 8.42952C9.91387 8.03656 9.48913 7.82419 9.09618 7.95518C8.70322 8.08616 8.49085 8.5109 8.62183 8.90386L9.19357 10.6191C9.88318 12.6879 11.8193 14.0834 14 14.0834C16.1808 14.0834 18.1168 12.6879 18.8065 10.6191L19.3782 8.90386C19.5092 8.5109 19.2968 8.08616 18.9039 7.95518C18.5109 7.82419 18.0862 8.03656 17.9552 8.42952L17.3834 10.1447Z" fill="#334047"/>
</svg>
