<svg width="201" height="63" viewBox="0 0 201 63" fill="none" xmlns="http://www.w3.org/2000/svg">
    <path d="M0.556 9.5V0.98H1.6V4.976H6.052V0.98H7.096V9.5H6.052V5.924H1.6V9.5H0.556ZM11.0924 1.76L10.2164 2.828H9.22044L10.6004 1.148H11.6204L12.9524 2.828H11.9804L11.1164 1.76H11.0924ZM13.7564 6.476C13.7564 6.632 13.7324 6.8 13.7324 6.872H9.17244C9.30444 7.964 10.0724 8.684 11.1764 8.684C11.9564 8.684 12.5084 8.348 12.8684 7.904L13.5524 8.48C13.0484 9.128 12.3164 9.572 11.1404 9.572C9.41244 9.572 8.18844 8.372 8.18844 6.584C8.18844 4.82 9.40044 3.584 11.0684 3.584C12.6644 3.584 13.7564 4.808 13.7564 6.476ZM11.0564 4.472C10.1204 4.472 9.37644 5.084 9.19644 6.08H12.7844C12.6404 5.12 12.0164 4.472 11.0564 4.472ZM11.1524 10.628C11.5484 10.628 11.8604 10.94 11.8604 11.324C11.8604 11.708 11.5484 12.02 11.1524 12.02C10.7564 12.02 10.4444 11.708 10.4444 11.324C10.4444 10.94 10.7564 10.628 11.1524 10.628ZM19.0951 9.572C18.0631 9.572 17.5831 8.936 17.5831 7.76V4.496H16.8271V3.656H17.5831V1.664L18.5551 1.556V3.656H20.4871V4.496H18.5551V7.616C18.5551 8.324 18.7111 8.66 19.2631 8.66C19.6111 8.66 19.9711 8.516 20.2591 8.36L20.5111 9.212C20.1871 9.404 19.7911 9.572 19.0951 9.572ZM21.287 9.5V0.667999H22.259V4.676H22.271C22.727 3.98 23.495 3.584 24.431 3.584C25.691 3.584 26.555 4.328 26.555 5.996V9.5H25.583V6.272C25.583 4.952 24.995 4.472 24.143 4.472C22.979 4.472 22.259 5.24 22.259 6.56V9.5H21.287ZM31.8877 1.784L33.0397 0.0799997H34.1437L32.6557 1.784H31.8877ZM28.5517 2.828L29.9317 1.148H30.9517L32.2837 2.828H31.3117L30.4477 1.76H30.4237L29.5477 2.828H28.5517ZM30.4117 9.572C28.5997 9.572 27.3877 8.264 27.3877 6.584C27.3877 4.904 28.5997 3.584 30.4117 3.584C32.1397 3.584 33.4237 4.808 33.4237 6.584C33.4237 8.36 32.1397 9.572 30.4117 9.572ZM30.4117 8.684C31.5277 8.684 32.4277 7.832 32.4277 6.584C32.4277 5.336 31.5397 4.472 30.4117 4.472C29.1877 4.472 28.3837 5.42 28.3837 6.584C28.3837 7.748 29.1997 8.684 30.4117 8.684ZM34.3729 9.5V3.656H35.3449V4.712H35.3569C35.8129 4.004 36.5809 3.584 37.4809 3.584C38.7409 3.584 39.5809 4.364 39.5809 6.032V9.5H38.6089V6.308C38.6089 4.94 38.0209 4.472 37.1689 4.472C36.0649 4.472 35.3449 5.264 35.3449 6.584V9.5H34.3729ZM43.367 11.948C42.491 11.948 41.687 11.732 40.991 11.312L41.231 10.448C41.903 10.832 42.491 11.06 43.331 11.06C44.651 11.06 45.287 10.292 45.287 9.308V8.372H45.263C44.831 8.996 44.135 9.392 43.235 9.392C41.639 9.392 40.403 8.24 40.403 6.5C40.403 4.832 41.555 3.584 43.199 3.584C44.027 3.584 44.783 3.956 45.251 4.592H45.275V3.656H46.247V9.068C46.247 10.748 45.407 11.948 43.367 11.948ZM43.355 8.492C44.531 8.492 45.311 7.616 45.311 6.452C45.311 5.276 44.459 4.484 43.367 4.484C42.179 4.484 41.387 5.336 41.387 6.476C41.387 7.712 42.251 8.492 43.355 8.492ZM51.8958 9.572C50.8638 9.572 50.3838 8.936 50.3838 7.76V4.496H49.6278V3.656H50.3838V1.664L51.3558 1.556V3.656H53.2878V4.496H51.3558V7.616C51.3558 8.324 51.5118 8.66 52.0638 8.66C52.4118 8.66 52.7718 8.516 53.0598 8.36L53.3118 9.212C52.9878 9.404 52.5918 9.572 51.8958 9.572ZM54.0878 9.5V0.667999H55.0598V4.676H55.0718C55.5278 3.98 56.2958 3.584 57.2318 3.584C58.4918 3.584 59.3558 4.328 59.3558 5.996V9.5H58.3838V6.272C58.3838 4.952 57.7958 4.472 56.9438 4.472C55.7798 4.472 55.0598 5.24 55.0598 6.56V9.5H54.0878ZM66.3204 2.72H67.3164V3.596C67.3164 4.94 66.6924 5.66 65.5404 5.72V9.5H64.5684V8.492H64.5564C64.1124 9.188 63.3924 9.572 62.6244 9.572C61.2804 9.572 60.4284 8.804 60.4284 7.136V3.656H61.4004V6.86C61.4004 8.18 61.9044 8.684 62.8284 8.684C63.7644 8.684 64.5684 7.88 64.5684 6.488V3.656H65.5404V5.048C66.2124 4.916 66.3204 4.412 66.3204 3.548V2.72ZM63.0444 10.628C63.4404 10.628 63.7524 10.94 63.7524 11.324C63.7524 11.708 63.4404 12.02 63.0444 12.02C62.6484 12.02 62.3364 11.708 62.3364 11.324C62.3364 10.94 62.6484 10.628 63.0444 10.628ZM70.2099 9.572C68.5059 9.572 67.2939 8.36 67.2939 6.584C67.2939 4.82 68.5059 3.584 70.2459 3.584C71.1219 3.584 72.0219 3.944 72.5979 4.628L71.9379 5.216C71.5659 4.784 70.9899 4.472 70.2939 4.472C69.0939 4.472 68.2899 5.348 68.2899 6.584C68.2899 7.832 69.0939 8.684 70.2819 8.684C70.9779 8.684 71.5899 8.384 71.9499 7.94L72.6219 8.552C72.1299 9.14 71.3499 9.572 70.2099 9.572ZM76.1933 9.5V0.667999H77.1653V4.676H77.1773C77.6333 3.98 78.4013 3.584 79.3373 3.584C80.5973 3.584 81.4613 4.328 81.4613 5.996V9.5H80.4893V6.272C80.4893 4.952 79.9013 4.472 79.0493 4.472C77.8853 4.472 77.1653 5.24 77.1653 6.56V9.5H76.1933ZM83.2299 2.588C82.8339 2.588 82.5219 2.276 82.5219 1.892C82.5219 1.508 82.8339 1.196 83.2299 1.196C83.6259 1.196 83.9379 1.508 83.9379 1.892C83.9379 2.276 83.6259 2.588 83.2299 2.588ZM82.7379 9.5V3.656H83.7099V9.5H82.7379ZM87.6393 1.76L86.7633 2.828H85.7673L87.1473 1.148H88.1673L89.4993 2.828H88.5273L87.6633 1.76H87.6393ZM90.3033 6.476C90.3033 6.632 90.2793 6.8 90.2793 6.872H85.7193C85.8513 7.964 86.6193 8.684 87.7233 8.684C88.5033 8.684 89.0553 8.348 89.4153 7.904L90.0993 8.48C89.5953 9.128 88.8633 9.572 87.6873 9.572C85.9593 9.572 84.7353 8.372 84.7353 6.584C84.7353 4.82 85.9473 3.584 87.6153 3.584C89.2113 3.584 90.3033 4.808 90.3033 6.476ZM87.6033 4.472C86.6673 4.472 85.9233 5.084 85.7433 6.08H89.3313C89.1873 5.12 88.5633 4.472 87.6033 4.472ZM87.6993 10.628C88.0953 10.628 88.4073 10.94 88.4073 11.324C88.4073 11.708 88.0953 12.02 87.6993 12.02C87.3033 12.02 86.9913 11.708 86.9913 11.324C86.9913 10.94 87.3033 10.628 87.6993 10.628ZM91.2284 9.5V3.656H92.2004V4.712H92.2124C92.6684 4.004 93.4364 3.584 94.3364 3.584C95.5964 3.584 96.4364 4.364 96.4364 6.032V9.5H95.4644V6.308C95.4644 4.94 94.8764 4.472 94.0244 4.472C92.9204 4.472 92.2004 5.264 92.2004 6.584V9.5H91.2284ZM102.176 9.608C101.24 9.608 100.436 9.296 99.8 8.744L100.556 7.652C101.036 8.096 101.54 8.324 102.188 8.324C102.644 8.324 102.896 8.132 102.896 7.844C102.896 7.592 102.596 7.46 101.84 7.208C100.868 6.884 100.028 6.428 100.028 5.288C100.028 4.232 100.94 3.548 102.152 3.548C102.956 3.548 103.616 3.764 104.288 4.28L103.52 5.444C103.076 5.012 102.548 4.82 102.116 4.82C101.876 4.82 101.564 4.94 101.564 5.252C101.564 5.492 101.852 5.66 102.428 5.876C103.7 6.344 104.444 6.62 104.444 7.784C104.444 8.816 103.712 9.608 102.176 9.608ZM107.704 1.64C107.392 1.64 107.128 1.736 106.744 1.988L106.42 1.268C106.72 0.968 107.332 0.607999 108.136 0.607999C108.844 0.607999 109.324 0.931999 109.324 1.616C109.324 2.204 108.796 2.684 108.316 2.876H107.284C107.764 2.528 108.064 2.18 108.052 1.904C108.052 1.748 107.92 1.64 107.704 1.64ZM111.136 2.72H112.6V3.596C112.6 4.988 111.844 5.78 110.512 5.84V9.5H108.928V8.804L108.904 8.792C108.46 9.332 107.836 9.608 107.176 9.608C105.904 9.608 105.016 8.96 105.016 7.172V3.632H106.576V6.764C106.576 7.832 106.9 8.192 107.632 8.192C108.316 8.192 108.928 7.616 108.928 6.488V3.632H110.512V4.94C111.112 4.772 111.136 4.256 111.136 3.572V2.72ZM115.135 9.608C113.527 9.608 112.339 8.396 112.339 6.584C112.339 4.808 113.527 3.548 115.099 3.548C115.783 3.548 116.407 3.812 116.827 4.316L116.851 4.304V3.632H118.423V9.5H116.923V8.804L116.899 8.792C116.491 9.32 115.903 9.608 115.135 9.608ZM115.435 8.192C116.239 8.192 116.923 7.556 116.923 6.596C116.923 5.648 116.275 4.952 115.435 4.952C114.583 4.952 113.935 5.588 113.935 6.596C113.935 7.532 114.547 8.192 115.435 8.192ZM124.862 9.572C123.158 9.572 121.946 8.36 121.946 6.584C121.946 4.82 123.158 3.584 124.898 3.584C125.774 3.584 126.674 3.944 127.25 4.628L126.59 5.216C126.218 4.784 125.642 4.472 124.946 4.472C123.746 4.472 122.942 5.348 122.942 6.584C122.942 7.832 123.746 8.684 124.934 8.684C125.63 8.684 126.242 8.384 126.602 7.94L127.274 8.552C126.782 9.14 126.002 9.572 124.862 9.572ZM130.2 2.816L131.616 1.124L132.708 1.112L131.22 2.816H130.2ZM130.536 9.572C128.928 9.572 127.692 8.396 127.692 6.62C127.692 4.892 128.88 3.584 130.536 3.584C131.4 3.584 132.156 3.992 132.576 4.7L132.6 4.688V3.656H133.572V9.5H132.636V8.444H132.624C132.204 9.14 131.484 9.572 130.536 9.572ZM130.68 8.684C131.76 8.684 132.636 7.856 132.636 6.62C132.636 5.42 131.832 4.472 130.68 4.472C129.576 4.472 128.676 5.324 128.676 6.62C128.676 7.796 129.48 8.684 130.68 8.684ZM137.362 9.572C135.658 9.572 134.446 8.36 134.446 6.584C134.446 4.82 135.658 3.584 137.398 3.584C138.274 3.584 139.174 3.944 139.75 4.628L139.09 5.216C138.718 4.784 138.142 4.472 137.446 4.472C136.246 4.472 135.442 5.348 135.442 6.584C135.442 7.832 136.246 8.684 137.434 8.684C138.13 8.684 138.742 8.384 139.102 7.94L139.774 8.552C139.282 9.14 138.502 9.572 137.362 9.572ZM145.95 9.572C144.882 9.572 143.79 9.164 142.938 8.252L143.61 7.448C144.222 8.216 145.134 8.6 145.962 8.6C147.006 8.6 147.714 8.12 147.714 7.292C147.714 6.344 146.946 6.092 145.806 5.66C144.546 5.192 143.262 4.652 143.262 3.152C143.262 1.88 144.402 0.896 145.866 0.896C146.814 0.896 147.75 1.244 148.554 1.892L147.918 2.72C147.234 2.156 146.502 1.856 145.866 1.856C145.062 1.856 144.354 2.288 144.342 3.104C144.33 3.92 145.098 4.22 146.166 4.628C147.594 5.192 148.806 5.576 148.806 7.172C148.806 8.732 147.438 9.572 145.95 9.572ZM149.951 9.5V0.98H152.927C154.919 0.98 155.747 2.108 155.747 3.62C155.747 5.42 154.523 6.248 152.747 6.248H150.995V9.5H149.951ZM150.995 5.3H152.651C154.067 5.3 154.667 4.58 154.667 3.596C154.667 2.504 153.959 1.928 152.819 1.928H150.995V5.3ZM154.898 10.856L154.118 10.496L158.738 0.26L159.506 0.632L154.898 10.856ZM159.908 9.5V0.98H162.452C165.152 0.98 166.88 2.732 166.88 5.252C166.88 7.76 165.212 9.5 162.488 9.5H159.908ZM160.952 8.552H162.428C164.504 8.552 165.8 7.172 165.8 5.252C165.8 3.308 164.456 1.928 162.464 1.928H160.952V8.552ZM170.131 9.5L166.915 0.98H168.043L170.599 7.988H170.611L173.167 0.98H174.283L171.067 9.5H170.131ZM180.319 9.572C178.615 9.572 177.403 8.36 177.403 6.584C177.403 4.82 178.615 3.584 180.355 3.584C181.231 3.584 182.131 3.944 182.707 4.628L182.047 5.216C181.675 4.784 181.099 4.472 180.403 4.472C179.203 4.472 178.399 5.348 178.399 6.584C178.399 7.832 179.203 8.684 180.391 8.684C181.087 8.684 181.699 8.384 182.059 7.94L182.731 8.552C182.239 9.14 181.459 9.572 180.319 9.572ZM185.645 2.816L187.061 1.124L188.153 1.112L186.665 2.816H185.645ZM186.185 9.572C184.373 9.572 183.161 8.264 183.161 6.584C183.161 4.904 184.373 3.584 186.185 3.584C187.913 3.584 189.197 4.808 189.197 6.584C189.197 8.36 187.913 9.572 186.185 9.572ZM186.185 8.684C187.301 8.684 188.201 7.832 188.201 6.584C188.201 5.336 187.313 4.472 186.185 4.472C184.961 4.472 184.157 5.42 184.157 6.584C184.157 7.748 184.973 8.684 186.185 8.684ZM2.956 26.572C1.252 26.572 0.04 25.36 0.04 23.584C0.04 21.82 1.252 20.584 2.992 20.584C3.868 20.584 4.768 20.944 5.344 21.628L4.684 22.216C4.312 21.784 3.736 21.472 3.04 21.472C1.84 21.472 1.036 22.348 1.036 23.584C1.036 24.832 1.84 25.684 3.028 25.684C3.724 25.684 4.336 25.384 4.696 24.94L5.368 25.552C4.876 26.14 4.096 26.572 2.956 26.572ZM8.42581 19.804L6.97381 18.148L8.07781 18.16L9.40981 19.804H8.42581ZM8.23381 26.572C6.88981 26.572 6.03781 25.804 6.03781 24.136V20.656H7.00981V23.86C7.00981 25.18 7.51381 25.684 8.43781 25.684C9.37381 25.684 10.1778 24.88 10.1778 23.488V20.656H11.1498V26.5H10.1778V25.492H10.1658C9.72181 26.188 9.00181 26.572 8.23381 26.572ZM12.4081 26.5V20.656H13.3801V21.712H13.3921C13.8481 21.004 14.6161 20.584 15.5161 20.584C16.7761 20.584 17.6161 21.364 17.6161 23.032V26.5H16.6441V23.308C16.6441 21.94 16.0561 21.472 15.2041 21.472C14.1001 21.472 13.3801 22.264 13.3801 23.584V26.5H12.4081ZM21.4022 28.948C20.5262 28.948 19.7222 28.732 19.0262 28.312L19.2662 27.448C19.9382 27.832 20.5262 28.06 21.3662 28.06C22.6862 28.06 23.3222 27.292 23.3222 26.308V25.372H23.2982C22.8662 25.996 22.1702 26.392 21.2702 26.392C19.6742 26.392 18.4382 25.24 18.4382 23.5C18.4382 21.832 19.5902 20.584 21.2342 20.584C22.0622 20.584 22.8182 20.956 23.2862 21.592H23.3102V20.656H24.2822V26.068C24.2822 27.748 23.4422 28.948 21.4022 28.948ZM21.3902 25.492C22.5662 25.492 23.3462 24.616 23.3462 23.452C23.3462 22.276 22.4942 21.484 21.4022 21.484C20.2142 21.484 19.4222 22.336 19.4222 23.476C19.4222 24.712 20.2862 25.492 21.3902 25.492ZM28.287 26.5V20.656H29.259V21.712H29.271C29.715 21.004 30.447 20.584 31.227 20.584C32.103 20.584 32.739 21.028 33.039 21.832H33.051C33.495 21.04 34.287 20.584 35.199 20.584C36.495 20.584 37.215 21.472 37.215 23.14V26.5H36.243V23.404C36.243 22.156 35.799 21.472 34.911 21.472C33.999 21.472 33.267 22.288 33.267 23.596V26.5H32.295V23.404C32.295 22.156 31.815 21.472 30.939 21.472C29.979 21.472 29.259 22.288 29.259 23.596V26.5H28.287ZM42.0162 19.756C41.6082 19.756 41.2602 19.528 40.9602 19.324C40.7202 19.168 40.4922 19.036 40.2642 19.036C39.9402 19.036 39.7002 19.288 39.5442 19.708L38.9202 19.432C39.1482 18.712 39.5562 18.256 40.1682 18.256C40.5882 18.256 40.8762 18.424 41.1402 18.604C41.3922 18.76 41.6322 18.952 41.9082 18.952C42.1962 18.952 42.4482 18.712 42.6042 18.292L43.2162 18.496C43.0002 19.3 42.5442 19.756 42.0162 19.756ZM40.8642 26.572C39.2562 26.572 38.0202 25.396 38.0202 23.62C38.0202 21.892 39.2082 20.584 40.8642 20.584C41.7282 20.584 42.4842 20.992 42.9042 21.7L42.9282 21.688V20.656H43.9002V26.5H42.9642V25.444H42.9522C42.5322 26.14 41.8122 26.572 40.8642 26.572ZM41.0082 25.684C42.0882 25.684 42.9642 24.856 42.9642 23.62C42.9642 22.42 42.1602 21.472 41.0082 21.472C39.9042 21.472 39.0042 22.324 39.0042 23.62C39.0042 24.796 39.8082 25.684 41.0082 25.684ZM49.6559 26.5L47.2799 20.656H48.3359L50.1239 25.264H50.1359L51.9239 20.656H52.9679L50.5919 26.5H49.6559ZM55.7822 26.572C54.1742 26.572 52.9382 25.396 52.9382 23.62C52.9382 21.892 54.1262 20.584 55.7822 20.584C56.6462 20.584 57.4022 20.992 57.8222 21.7L57.8462 21.688V20.656H58.8182V26.5H57.8822V25.444H57.8702C57.4502 26.14 56.7302 26.572 55.7822 26.572ZM55.9262 25.684C57.0062 25.684 57.8822 24.856 57.8822 23.62C57.8822 22.42 57.0782 21.472 55.9262 21.472C54.8222 21.472 53.9222 22.324 53.9222 23.62C53.9222 24.796 54.7262 25.684 55.9262 25.684ZM55.9142 27.628C56.3102 27.628 56.6222 27.94 56.6222 28.324C56.6222 28.708 56.3102 29.02 55.9142 29.02C55.5182 29.02 55.2062 28.708 55.2062 28.324C55.2062 27.94 55.5182 27.628 55.9142 27.628ZM62.6083 26.572C60.9043 26.572 59.6923 25.36 59.6923 23.584C59.6923 21.82 60.9043 20.584 62.6443 20.584C63.5203 20.584 64.4203 20.944 64.9963 21.628L64.3363 22.216C63.9643 21.784 63.3883 21.472 62.6923 21.472C61.4923 21.472 60.6883 22.348 60.6883 23.584C60.6883 24.832 61.4923 25.684 62.6803 25.684C63.3763 25.684 63.9883 25.384 64.3483 24.94L65.0203 25.552C64.5283 26.14 63.7483 26.572 62.6083 26.572ZM65.8222 26.5V17.668H66.7942V21.676H66.8062C67.2622 20.98 68.0302 20.584 68.9662 20.584C70.2262 20.584 71.0902 21.328 71.0902 22.996V26.5H70.1182V23.272C70.1182 21.952 69.5302 21.472 68.6782 21.472C67.5142 21.472 66.7942 22.24 66.7942 23.56V26.5H65.8222ZM72.7988 26.584C72.4028 26.584 72.0788 26.272 72.0788 25.876C72.0788 25.48 72.4028 25.168 72.7988 25.168C73.1948 25.168 73.5068 25.48 73.5068 25.876C73.5068 26.272 73.1948 26.584 72.7988 26.584ZM3.016 43.572C1.948 43.572 0.856 43.164 0.00400004 42.252L0.676 41.448C1.288 42.216 2.2 42.6 3.028 42.6C4.072 42.6 4.78 42.12 4.78 41.292C4.78 40.344 4.012 40.092 2.872 39.66C1.612 39.192 0.328 38.652 0.328 37.152C0.328 35.88 1.468 34.896 2.932 34.896C3.88 34.896 4.816 35.244 5.62 35.892L4.984 36.72C4.3 36.156 3.568 35.856 2.932 35.856C2.128 35.856 1.42 36.288 1.408 37.104C1.396 37.92 2.164 38.22 3.232 38.628C4.66 39.192 5.872 39.576 5.872 41.172C5.872 42.732 4.504 43.572 3.016 43.572ZM11.0009 35.784L12.1529 34.08H13.2569L11.7689 35.784H11.0009ZM7.66494 36.828L9.04494 35.148H10.0649L11.3969 36.828H10.4249L9.56094 35.76H9.53694L8.66094 36.828H7.66494ZM9.52494 43.572C7.71294 43.572 6.50094 42.264 6.50094 40.584C6.50094 38.904 7.71294 37.584 9.52494 37.584C11.2529 37.584 12.5369 38.808 12.5369 40.584C12.5369 42.36 11.2529 43.572 9.52494 43.572ZM9.52494 42.684C10.6409 42.684 11.5409 41.832 11.5409 40.584C11.5409 39.336 10.6529 38.472 9.52494 38.472C8.30094 38.472 7.49694 39.42 7.49694 40.584C7.49694 41.748 8.31294 42.684 9.52494 42.684ZM16.3278 43.5V34.668H17.2998V43.5H16.3278ZM24.4572 36.72H25.4532V37.596C25.4532 38.94 24.8292 39.66 23.6772 39.72V43.5H22.7052V42.492H22.6932C22.2492 43.188 21.5292 43.572 20.7612 43.572C19.4172 43.572 18.5652 42.804 18.5652 41.136V37.656H19.5372V40.86C19.5372 42.18 20.0412 42.684 20.9652 42.684C21.9012 42.684 22.7052 41.88 22.7052 40.488V37.656H23.6772V39.048C24.3492 38.916 24.4572 38.412 24.4572 37.548V36.72ZM31.7066 36.72H32.7026V37.596C32.7026 38.772 32.2226 39.468 31.3466 39.66C31.4186 39.948 31.4666 40.26 31.4666 40.584C31.4666 42.36 30.1826 43.572 28.4546 43.572C26.6426 43.572 25.4306 42.264 25.4306 40.584C25.4306 38.904 26.6426 37.584 28.4546 37.584C29.6066 37.584 30.5546 38.124 31.0706 39.012C31.6106 38.844 31.7066 38.352 31.7066 37.548V36.72ZM28.4546 42.684C29.5706 42.684 30.4706 41.832 30.4706 40.584C30.4706 39.336 29.5826 38.472 28.4546 38.472C27.2306 38.472 26.4266 39.42 26.4266 40.584C26.4266 41.748 27.2426 42.684 28.4546 42.684ZM28.4546 44.628C28.8506 44.628 29.1626 44.94 29.1626 45.324C29.1626 45.708 28.8506 46.02 28.4546 46.02C28.0586 46.02 27.7466 45.708 27.7466 45.324C27.7466 44.94 28.0586 44.628 28.4546 44.628ZM33.33 43.5V37.656H34.302V38.712H34.314C34.77 38.004 35.538 37.584 36.438 37.584C37.698 37.584 38.538 38.364 38.538 40.032V43.5H37.566V40.308C37.566 38.94 36.978 38.472 36.126 38.472C35.022 38.472 34.302 39.264 34.302 40.584V43.5H33.33ZM42.324 45.948C41.448 45.948 40.644 45.732 39.948 45.312L40.188 44.448C40.86 44.832 41.448 45.06 42.288 45.06C43.608 45.06 44.244 44.292 44.244 43.308V42.372H44.22C43.788 42.996 43.092 43.392 42.192 43.392C40.596 43.392 39.36 42.24 39.36 40.5C39.36 38.832 40.512 37.584 42.156 37.584C42.984 37.584 43.74 37.956 44.208 38.592H44.232V37.656H45.204V43.068C45.204 44.748 44.364 45.948 42.324 45.948ZM42.312 42.492C43.488 42.492 44.268 41.616 44.268 40.452C44.268 39.276 43.416 38.484 42.324 38.484C41.136 38.484 40.344 39.336 40.344 40.476C40.344 41.712 41.208 42.492 42.312 42.492ZM51.8129 43.572C50.7449 43.572 49.6529 43.164 48.8009 42.252L49.4729 41.448C50.0849 42.216 50.9969 42.6 51.8249 42.6C52.8689 42.6 53.5769 42.12 53.5769 41.292C53.5769 40.344 52.8089 40.092 51.6689 39.66C50.4089 39.192 49.1249 38.652 49.1249 37.152C49.1249 35.88 50.2649 34.896 51.7289 34.896C52.6769 34.896 53.6129 35.244 54.4169 35.892L53.7809 36.72C53.0969 36.156 52.3649 35.856 51.7289 35.856C50.9249 35.856 50.2169 36.288 50.2049 37.104C50.1929 37.92 50.9609 38.22 52.0289 38.628C53.4569 39.192 54.6689 39.576 54.6689 41.172C54.6689 42.732 53.3009 43.572 51.8129 43.572ZM55.8138 43.5V34.98H58.7898C60.7818 34.98 61.6098 36.108 61.6098 37.62C61.6098 39.42 60.3858 40.248 58.6098 40.248H56.8578V43.5H55.8138ZM56.8578 39.3H58.5138C59.9298 39.3 60.5298 38.58 60.5298 37.596C60.5298 36.504 59.8218 35.928 58.6818 35.928H56.8578V39.3ZM60.761 44.856L59.981 44.496L64.601 34.26L65.369 34.632L60.761 44.856ZM65.7708 43.5V34.98H68.3148C71.0148 34.98 72.7428 36.732 72.7428 39.252C72.7428 41.76 71.0748 43.5 68.3508 43.5H65.7708ZM66.8148 42.552H68.2908C70.3668 42.552 71.6628 41.172 71.6628 39.252C71.6628 37.308 70.3188 35.928 68.3268 35.928H66.8148V42.552ZM75.994 43.5L72.778 34.98H73.906L76.462 41.988H76.474L79.03 34.98H80.146L76.93 43.5H75.994ZM83.4706 39.276V38.376H89.0986V39.276H83.4706ZM83.4706 41.988V41.088H89.0986V41.988H83.4706ZM94.6213 43.572C93.6493 43.572 92.9053 43.236 92.3413 42.744L92.8333 42C93.2893 42.444 93.8053 42.708 94.6213 42.708C95.3293 42.708 95.7373 42.36 95.7373 41.916C95.7373 41.4 95.1973 41.256 94.3453 40.944C93.3973 40.608 92.5933 40.224 92.5933 39.156C92.5933 38.256 93.4093 37.584 94.5133 37.584C95.2213 37.584 95.8813 37.776 96.5293 38.304L96.0253 39.072C95.5213 38.604 94.9813 38.448 94.4773 38.448C94.0213 38.448 93.5773 38.712 93.5773 39.156C93.5773 39.612 94.0453 39.84 94.6813 40.068C95.9173 40.548 96.7333 40.764 96.7213 41.904C96.7213 42.816 96.0253 43.572 94.6213 43.572ZM101.724 35.784L102.876 34.08H103.98L102.492 35.784H101.724ZM98.3876 36.828L99.7676 35.148H100.788L102.12 36.828H101.148L100.284 35.76H100.26L99.3836 36.828H98.3876ZM100.248 43.572C98.4356 43.572 97.2236 42.264 97.2236 40.584C97.2236 38.904 98.4356 37.584 100.248 37.584C101.976 37.584 103.26 38.808 103.26 40.584C103.26 42.36 101.976 43.572 100.248 43.572ZM100.248 42.684C101.364 42.684 102.264 41.832 102.264 40.584C102.264 39.336 101.376 38.472 100.248 38.472C99.0236 38.472 98.2196 39.42 98.2196 40.584C98.2196 41.748 99.0356 42.684 100.248 42.684ZM107.05 43.5V34.668H108.022V43.5H107.05ZM115.18 36.72H116.176V37.596C116.176 38.94 115.552 39.66 114.4 39.72V43.5H113.428V42.492H113.416C112.972 43.188 112.252 43.572 111.484 43.572C110.14 43.572 109.288 42.804 109.288 41.136V37.656H110.26V40.86C110.26 42.18 110.764 42.684 111.688 42.684C112.624 42.684 113.428 41.88 113.428 40.488V37.656H114.4V39.048C115.072 38.916 115.18 38.412 115.18 37.548V36.72ZM122.429 36.72H123.425V37.596C123.425 38.772 122.945 39.468 122.069 39.66C122.141 39.948 122.189 40.26 122.189 40.584C122.189 42.36 120.905 43.572 119.177 43.572C117.365 43.572 116.153 42.264 116.153 40.584C116.153 38.904 117.365 37.584 119.177 37.584C120.329 37.584 121.277 38.124 121.793 39.012C122.333 38.844 122.429 38.352 122.429 37.548V36.72ZM119.177 42.684C120.293 42.684 121.193 41.832 121.193 40.584C121.193 39.336 120.305 38.472 119.177 38.472C117.953 38.472 117.149 39.42 117.149 40.584C117.149 41.748 117.965 42.684 119.177 42.684ZM119.177 44.628C119.573 44.628 119.885 44.94 119.885 45.324C119.885 45.708 119.573 46.02 119.177 46.02C118.781 46.02 118.469 45.708 118.469 45.324C118.469 44.94 118.781 44.628 119.177 44.628ZM124.053 43.5V37.656H125.025V38.712H125.037C125.493 38.004 126.261 37.584 127.161 37.584C128.421 37.584 129.261 38.364 129.261 40.032V43.5H128.289V40.308C128.289 38.94 127.701 38.472 126.849 38.472C125.745 38.472 125.025 39.264 125.025 40.584V43.5H124.053ZM133.047 45.948C132.171 45.948 131.367 45.732 130.671 45.312L130.911 44.448C131.583 44.832 132.171 45.06 133.011 45.06C134.331 45.06 134.967 44.292 134.967 43.308V42.372H134.943C134.511 42.996 133.815 43.392 132.915 43.392C131.319 43.392 130.083 42.24 130.083 40.5C130.083 38.832 131.235 37.584 132.879 37.584C133.707 37.584 134.463 37.956 134.931 38.592H134.955V37.656H135.927V43.068C135.927 44.748 135.087 45.948 133.047 45.948ZM133.035 42.492C134.211 42.492 134.991 41.616 134.991 40.452C134.991 39.276 134.139 38.484 133.047 38.484C131.859 38.484 131.067 39.336 131.067 40.476C131.067 41.712 131.931 42.492 133.035 42.492ZM142.536 43.572C141.468 43.572 140.376 43.164 139.524 42.252L140.196 41.448C140.808 42.216 141.72 42.6 142.548 42.6C143.592 42.6 144.3 42.12 144.3 41.292C144.3 40.344 143.532 40.092 142.392 39.66C141.132 39.192 139.848 38.652 139.848 37.152C139.848 35.88 140.988 34.896 142.452 34.896C143.4 34.896 144.336 35.244 145.14 35.892L144.504 36.72C143.82 36.156 143.088 35.856 142.452 35.856C141.648 35.856 140.94 36.288 140.928 37.104C140.916 37.92 141.684 38.22 142.752 38.628C144.18 39.192 145.392 39.576 145.392 41.172C145.392 42.732 144.024 43.572 142.536 43.572ZM146.536 43.5V34.98H149.512C151.504 34.98 152.332 36.108 152.332 37.62C152.332 39.42 151.108 40.248 149.332 40.248H147.58V43.5H146.536ZM147.58 39.3H149.236C150.652 39.3 151.252 38.58 151.252 37.596C151.252 36.504 150.544 35.928 149.404 35.928H147.58V39.3ZM151.484 44.856L150.704 44.496L155.324 34.26L156.092 34.632L151.484 44.856ZM156.494 43.5V34.98H159.038C161.738 34.98 163.466 36.732 163.466 39.252C163.466 41.76 161.798 43.5 159.074 43.5H156.494ZM157.538 42.552H159.014C161.09 42.552 162.386 41.172 162.386 39.252C162.386 37.308 161.042 35.928 159.05 35.928H157.538V42.552ZM166.717 43.5L163.501 34.98H164.629L167.185 41.988H167.197L169.753 34.98H170.869L167.653 43.5H166.717ZM180.649 35.964V36.66H179.905V43.5H178.969V42.42H178.957C178.537 43.128 177.793 43.572 176.845 43.572C175.225 43.572 173.977 42.396 173.977 40.62C173.977 38.892 175.189 37.584 176.833 37.584C177.721 37.584 178.477 37.992 178.921 38.7H178.933V36.66H176.473V35.964H178.933V34.668H179.905V35.964H180.649ZM176.977 42.684C178.081 42.684 178.969 41.856 178.969 40.62C178.969 39.42 178.165 38.472 176.989 38.472C175.873 38.472 174.973 39.324 174.973 40.62C174.973 41.796 175.789 42.684 176.977 42.684ZM186.887 36.72H187.883V37.596C187.883 38.94 187.259 39.66 186.107 39.72V43.5H185.135V42.492H185.123C184.679 43.188 183.959 43.572 183.191 43.572C181.847 43.572 180.995 42.804 180.995 41.136V37.656H181.967V40.86C181.967 42.18 182.471 42.684 183.395 42.684C184.331 42.684 185.135 41.88 185.135 40.488V37.656H186.107V39.048C186.779 38.916 186.887 38.412 186.887 37.548V36.72ZM194.136 36.72H195.132V37.596C195.132 38.772 194.652 39.468 193.776 39.66C193.848 39.948 193.896 40.26 193.896 40.584C193.896 42.36 192.612 43.572 190.884 43.572C189.072 43.572 187.86 42.264 187.86 40.584C187.86 38.904 189.072 37.584 190.884 37.584C192.036 37.584 192.984 38.124 193.5 39.012C194.04 38.844 194.136 38.352 194.136 37.548V36.72ZM190.884 42.684C192 42.684 192.9 41.832 192.9 40.584C192.9 39.336 192.012 38.472 190.884 38.472C189.66 38.472 188.856 39.42 188.856 40.584C188.856 41.748 189.672 42.684 190.884 42.684ZM190.884 44.628C191.28 44.628 191.592 44.94 191.592 45.324C191.592 45.708 191.28 46.02 190.884 46.02C190.488 46.02 190.176 45.708 190.176 45.324C190.176 44.94 190.488 44.628 190.884 44.628ZM198.011 43.572C196.307 43.572 195.095 42.36 195.095 40.584C195.095 38.82 196.307 37.584 198.047 37.584C198.923 37.584 199.823 37.944 200.399 38.628L199.739 39.216C199.367 38.784 198.791 38.472 198.095 38.472C196.895 38.472 196.091 39.348 196.091 40.584C196.091 41.832 196.895 42.684 198.083 42.684C198.779 42.684 199.391 42.384 199.751 41.94L200.423 42.552C199.931 43.14 199.151 43.572 198.011 43.572ZM4.996 62.876V59.492H4.984C4.552 60.164 3.82 60.572 2.896 60.572C1.288 60.572 0.052 59.396 0.052 57.62C0.052 55.892 1.24 54.584 2.896 54.584C3.784 54.584 4.54 54.992 4.984 55.7H4.996V54.656H5.968V62.876H4.996ZM3.04 59.684C4.132 59.684 5.02 58.856 5.02 57.62C5.02 56.42 4.216 55.472 3.04 55.472C1.924 55.472 1.036 56.324 1.036 57.62C1.036 58.796 1.84 59.684 3.04 59.684ZM9.31194 60.572C7.96794 60.572 7.11594 59.804 7.11594 58.136V54.656H8.08794V57.86C8.08794 59.18 8.59194 59.684 9.51594 59.684C10.4519 59.684 11.2559 58.88 11.2559 57.488V54.656H12.2279V60.5H11.2559V59.492H11.2439C10.7999 60.188 10.0799 60.572 9.31194 60.572ZM17.8902 52.112L16.4022 53.816H15.3822L16.7982 52.124L17.8902 52.112ZM18.6822 57.476C18.6822 57.632 18.6582 57.8 18.6582 57.872H14.0982C14.2302 58.964 14.9982 59.684 16.1022 59.684C16.8822 59.684 17.4342 59.348 17.7942 58.904L18.4782 59.48C17.9742 60.128 17.2422 60.572 16.0662 60.572C14.3382 60.572 13.1142 59.372 13.1142 57.584C13.1142 55.82 14.3262 54.584 15.9942 54.584C17.5902 54.584 18.6822 55.808 18.6822 57.476ZM15.9822 55.472C15.0462 55.472 14.3022 56.084 14.1222 57.08H17.7102C17.5662 56.12 16.9422 55.472 15.9822 55.472ZM21.2396 60.572C20.2076 60.572 19.7276 59.936 19.7276 58.76V55.496H18.9716V54.656H19.7276V52.664L20.6996 52.556V54.656H22.6316V55.496H20.6996V58.616C20.6996 59.324 20.8556 59.66 21.4076 59.66C21.7556 59.66 22.1156 59.516 22.4036 59.36L22.6556 60.212C22.3316 60.404 21.9356 60.572 21.2396 60.572ZM23.8301 60.584C23.4341 60.584 23.1101 60.272 23.1101 59.876C23.1101 59.48 23.4341 59.168 23.8301 59.168C24.2261 59.168 24.5381 59.48 24.5381 59.876C24.5381 60.272 24.2261 60.584 23.8301 60.584Z" fill="#4C5A61"/>
</svg>
