<svg width="206" height="81" viewBox="0 0 206 81" fill="none" xmlns="http://www.w3.org/2000/svg">
    <path d="M1.556 9.5V0.98H2.6V4.976H7.052V0.98H8.096V9.5H7.052V5.924H2.6V9.5H1.556ZM12.0924 1.76L11.2164 2.828H10.2204L11.6004 1.148H12.6204L13.9524 2.828H12.9804L12.1164 1.76H12.0924ZM14.7564 6.476C14.7564 6.632 14.7324 6.8 14.7324 6.872H10.1724C10.3044 7.964 11.0724 8.684 12.1764 8.684C12.9564 8.684 13.5084 8.348 13.8684 7.904L14.5524 8.48C14.0484 9.128 13.3164 9.572 12.1404 9.572C10.4124 9.572 9.18844 8.372 9.18844 6.584C9.18844 4.82 10.4004 3.584 12.0684 3.584C13.6644 3.584 14.7564 4.808 14.7564 6.476ZM12.0564 4.472C11.1204 4.472 10.3764 5.084 10.1964 6.08H13.7844C13.6404 5.12 13.0164 4.472 12.0564 4.472ZM12.1524 10.628C12.5484 10.628 12.8604 10.94 12.8604 11.324C12.8604 11.708 12.5484 12.02 12.1524 12.02C11.7564 12.02 11.4444 11.708 11.4444 11.324C11.4444 10.94 11.7564 10.628 12.1524 10.628ZM20.0951 9.572C19.0631 9.572 18.5831 8.936 18.5831 7.76V4.496H17.8271V3.656H18.5831V1.664L19.5551 1.556V3.656H21.4871V4.496H19.5551V7.616C19.5551 8.324 19.7111 8.66 20.2631 8.66C20.6111 8.66 20.9711 8.516 21.2591 8.36L21.5111 9.212C21.1871 9.404 20.7911 9.572 20.0951 9.572ZM22.287 9.5V0.667999H23.259V4.676H23.271C23.727 3.98 24.495 3.584 25.431 3.584C26.691 3.584 27.555 4.328 27.555 5.996V9.5H26.583V6.272C26.583 4.952 25.995 4.472 25.143 4.472C23.979 4.472 23.259 5.24 23.259 6.56V9.5H22.287ZM29.5397 2.828L30.9197 1.148H31.9397L33.2717 2.828H32.2997L31.4357 1.76H31.4117L30.5357 2.828H29.5397ZM31.4117 9.572C29.5997 9.572 28.3877 8.264 28.3877 6.584C28.3877 4.904 29.5997 3.584 31.4117 3.584C33.1397 3.584 34.4237 4.808 34.4237 6.584C34.4237 8.36 33.1397 9.572 31.4117 9.572ZM31.4117 8.684C32.5277 8.684 33.4277 7.832 33.4277 6.584C33.4277 5.336 32.5397 4.472 31.4117 4.472C30.1877 4.472 29.3837 5.42 29.3837 6.584C29.3837 7.748 30.1997 8.684 31.4117 8.684ZM35.3729 9.5V3.656H36.3449V4.712H36.3569C36.8129 4.004 37.5809 3.584 38.4809 3.584C39.7409 3.584 40.5809 4.364 40.5809 6.032V9.5H39.6089V6.308C39.6089 4.94 39.0209 4.472 38.1689 4.472C37.0649 4.472 36.3449 5.264 36.3449 6.584V9.5H35.3729ZM44.367 11.948C43.491 11.948 42.687 11.732 41.991 11.312L42.231 10.448C42.903 10.832 43.491 11.06 44.331 11.06C45.651 11.06 46.287 10.292 46.287 9.308V8.372H46.263C45.831 8.996 45.135 9.392 44.235 9.392C42.639 9.392 41.403 8.24 41.403 6.5C41.403 4.832 42.555 3.584 44.199 3.584C45.027 3.584 45.783 3.956 46.251 4.592H46.275V3.656H47.247V9.068C47.247 10.748 46.407 11.948 44.367 11.948ZM44.355 8.492C45.531 8.492 46.311 7.616 46.311 6.452C46.311 5.276 45.459 4.484 44.367 4.484C43.179 4.484 42.387 5.336 42.387 6.476C42.387 7.712 43.251 8.492 44.355 8.492ZM52.8958 9.572C51.8638 9.572 51.3838 8.936 51.3838 7.76V4.496H50.6278V3.656H51.3838V1.664L52.3558 1.556V3.656H54.2878V4.496H52.3558V7.616C52.3558 8.324 52.5118 8.66 53.0638 8.66C53.4118 8.66 53.7718 8.516 54.0598 8.36L54.3118 9.212C53.9878 9.404 53.5918 9.572 52.8958 9.572ZM55.0878 9.5V0.667999H56.0598V4.676H56.0718C56.5278 3.98 57.2958 3.584 58.2318 3.584C59.4918 3.584 60.3558 4.328 60.3558 5.996V9.5H59.3838V6.272C59.3838 4.952 58.7958 4.472 57.9438 4.472C56.7798 4.472 56.0598 5.24 56.0598 6.56V9.5H55.0878ZM67.3204 2.72H68.3164V3.596C68.3164 4.94 67.6924 5.66 66.5404 5.72V9.5H65.5684V8.492H65.5564C65.1124 9.188 64.3924 9.572 63.6244 9.572C62.2804 9.572 61.4284 8.804 61.4284 7.136V3.656H62.4004V6.86C62.4004 8.18 62.9044 8.684 63.8284 8.684C64.7644 8.684 65.5684 7.88 65.5684 6.488V3.656H66.5404V5.048C67.2124 4.916 67.3204 4.412 67.3204 3.548V2.72ZM64.0444 10.628C64.4404 10.628 64.7524 10.94 64.7524 11.324C64.7524 11.708 64.4404 12.02 64.0444 12.02C63.6484 12.02 63.3364 11.708 63.3364 11.324C63.3364 10.94 63.6484 10.628 64.0444 10.628ZM71.2099 9.572C69.5059 9.572 68.2939 8.36 68.2939 6.584C68.2939 4.82 69.5059 3.584 71.2459 3.584C72.1219 3.584 73.0219 3.944 73.5979 4.628L72.9379 5.216C72.5659 4.784 71.9899 4.472 71.2939 4.472C70.0939 4.472 69.2899 5.348 69.2899 6.584C69.2899 7.832 70.0939 8.684 71.2819 8.684C71.9779 8.684 72.5899 8.384 72.9499 7.94L73.6219 8.552C73.1299 9.14 72.3499 9.572 71.2099 9.572ZM77.1933 9.5V0.667999H78.1653V4.676H78.1773C78.6333 3.98 79.4013 3.584 80.3373 3.584C81.5973 3.584 82.4613 4.328 82.4613 5.996V9.5H81.4893V6.272C81.4893 4.952 80.9013 4.472 80.0493 4.472C78.8853 4.472 78.1653 5.24 78.1653 6.56V9.5H77.1933ZM84.2299 2.588C83.8339 2.588 83.5219 2.276 83.5219 1.892C83.5219 1.508 83.8339 1.196 84.2299 1.196C84.6259 1.196 84.9379 1.508 84.9379 1.892C84.9379 2.276 84.6259 2.588 84.2299 2.588ZM83.7379 9.5V3.656H84.7099V9.5H83.7379ZM88.6393 1.76L87.7633 2.828H86.7673L88.1473 1.148H89.1673L90.4993 2.828H89.5273L88.6633 1.76H88.6393ZM91.3033 6.476C91.3033 6.632 91.2793 6.8 91.2793 6.872H86.7193C86.8513 7.964 87.6193 8.684 88.7233 8.684C89.5033 8.684 90.0553 8.348 90.4153 7.904L91.0993 8.48C90.5953 9.128 89.8633 9.572 88.6873 9.572C86.9593 9.572 85.7353 8.372 85.7353 6.584C85.7353 4.82 86.9473 3.584 88.6153 3.584C90.2113 3.584 91.3033 4.808 91.3033 6.476ZM88.6033 4.472C87.6673 4.472 86.9233 5.084 86.7433 6.08H90.3313C90.1873 5.12 89.5633 4.472 88.6033 4.472ZM88.6993 10.628C89.0953 10.628 89.4073 10.94 89.4073 11.324C89.4073 11.708 89.0953 12.02 88.6993 12.02C88.3033 12.02 87.9913 11.708 87.9913 11.324C87.9913 10.94 88.3033 10.628 88.6993 10.628ZM92.2284 9.5V3.656H93.2004V4.712H93.2124C93.6684 4.004 94.4364 3.584 95.3364 3.584C96.5964 3.584 97.4364 4.364 97.4364 6.032V9.5H96.4644V6.308C96.4644 4.94 95.8764 4.472 95.0244 4.472C93.9204 4.472 93.2004 5.264 93.2004 6.584V9.5H92.2284ZM103.092 9.608C102.084 9.608 101.424 8.972 101.424 7.652V4.94H100.728V3.632H101.424V1.724L102.996 1.556V3.632H104.58V4.94H102.996V7.424C102.996 7.94 103.128 8.18 103.5 8.18C103.692 8.18 103.98 8.108 104.244 7.976L104.64 9.236C104.268 9.44 103.884 9.608 103.092 9.608ZM105.175 9.5V3.632H106.747V4.484H106.771C107.215 3.884 107.851 3.548 108.535 3.548H108.655V5.264C108.487 5.252 108.331 5.252 108.235 5.252C107.263 5.252 106.747 5.9 106.747 6.788V9.5H105.175ZM112.775 2.876H111.287L109.799 1.124L111.479 1.136L112.775 2.876ZM115.151 2.72H116.615V3.596C116.615 4.988 115.859 5.78 114.527 5.84V9.5H112.943V8.804L112.919 8.792C112.475 9.332 111.851 9.608 111.191 9.608C109.919 9.608 109.031 8.96 109.031 7.172V3.632H110.591V6.764C110.591 7.832 110.915 8.192 111.647 8.192C112.331 8.192 112.943 7.616 112.943 6.488V3.632H114.527V4.94C115.127 4.772 115.151 4.256 115.151 3.572V2.72ZM120.004 9.5V0.667999H120.976V9.5H120.004ZM124.629 2.804L123.177 1.148L124.281 1.16L125.613 2.804H124.629ZM124.437 9.572C123.093 9.572 122.241 8.804 122.241 7.136V3.656H123.213V6.86C123.213 8.18 123.717 8.684 124.641 8.684C125.577 8.684 126.381 7.88 126.381 6.488V3.656H127.353V9.5H126.381V8.492H126.369C125.925 9.188 125.205 9.572 124.437 9.572ZM129.175 2.588C128.779 2.588 128.467 2.276 128.467 1.892C128.467 1.508 128.779 1.196 129.175 1.196C129.571 1.196 129.883 1.508 129.883 1.892C129.883 2.276 129.571 2.588 129.175 2.588ZM128.683 9.5V3.656H129.655V9.5H128.683ZM136.366 9.572C134.662 9.572 133.45 8.36 133.45 6.584C133.45 4.82 134.662 3.584 136.402 3.584C137.278 3.584 138.178 3.944 138.754 4.628L138.094 5.216C137.722 4.784 137.146 4.472 136.45 4.472C135.25 4.472 134.446 5.348 134.446 6.584C134.446 7.832 135.25 8.684 136.438 8.684C137.134 8.684 137.746 8.384 138.106 7.94L138.778 8.552C138.286 9.14 137.506 9.572 136.366 9.572ZM141.704 2.816L143.12 1.124L144.212 1.112L142.724 2.816H141.704ZM142.04 9.572C140.432 9.572 139.196 8.396 139.196 6.62C139.196 4.892 140.384 3.584 142.04 3.584C142.904 3.584 143.66 3.992 144.08 4.7L144.104 4.688V3.656H145.076V9.5H144.14V8.444H144.128C143.708 9.14 142.988 9.572 142.04 9.572ZM142.184 8.684C143.264 8.684 144.14 7.856 144.14 6.62C144.14 5.42 143.336 4.472 142.184 4.472C141.08 4.472 140.18 5.324 140.18 6.62C140.18 7.796 140.984 8.684 142.184 8.684ZM148.866 9.572C147.162 9.572 145.95 8.36 145.95 6.584C145.95 4.82 147.162 3.584 148.902 3.584C149.778 3.584 150.678 3.944 151.254 4.628L150.594 5.216C150.222 4.784 149.646 4.472 148.95 4.472C147.75 4.472 146.946 5.348 146.946 6.584C146.946 7.832 147.75 8.684 148.938 8.684C149.634 8.684 150.246 8.384 150.606 7.94L151.278 8.552C150.786 9.14 150.006 9.572 148.866 9.572ZM157.454 9.572C156.386 9.572 155.294 9.164 154.442 8.252L155.114 7.448C155.726 8.216 156.638 8.6 157.465 8.6C158.51 8.6 159.218 8.12 159.218 7.292C159.218 6.344 158.45 6.092 157.31 5.66C156.05 5.192 154.766 4.652 154.766 3.152C154.766 1.88 155.906 0.896 157.37 0.896C158.318 0.896 159.254 1.244 160.058 1.892L159.422 2.72C158.738 2.156 158.006 1.856 157.37 1.856C156.566 1.856 155.858 2.288 155.846 3.104C155.834 3.92 156.602 4.22 157.67 4.628C159.098 5.192 160.31 5.576 160.31 7.172C160.31 8.732 158.942 9.572 157.454 9.572ZM161.454 9.5V0.98H164.43C166.422 0.98 167.25 2.108 167.25 3.62C167.25 5.42 166.026 6.248 164.25 6.248H162.498V9.5H161.454ZM162.498 5.3H164.154C165.57 5.3 166.17 4.58 166.17 3.596C166.17 2.504 165.462 1.928 164.322 1.928H162.498V5.3ZM166.402 10.856L165.622 10.496L170.242 0.26L171.01 0.632L166.402 10.856ZM171.411 9.5V0.98H173.955C176.655 0.98 178.383 2.732 178.383 5.252C178.383 7.76 176.715 9.5 173.991 9.5H171.411ZM172.455 8.552H173.931C176.007 8.552 177.303 7.172 177.303 5.252C177.303 3.308 175.959 1.928 173.967 1.928H172.455V8.552ZM181.635 9.5L178.419 0.98H179.547L182.103 7.988H182.115L184.671 0.98H185.787L182.571 9.5H181.635ZM191.823 9.572C190.119 9.572 188.907 8.36 188.907 6.584C188.907 4.82 190.119 3.584 191.859 3.584C192.735 3.584 193.635 3.944 194.211 4.628L193.551 5.216C193.179 4.784 192.603 4.472 191.907 4.472C190.707 4.472 189.903 5.348 189.903 6.584C189.903 7.832 190.707 8.684 191.895 8.684C192.591 8.684 193.203 8.384 193.563 7.94L194.235 8.552C193.743 9.14 192.963 9.572 191.823 9.572ZM197.149 2.816L198.565 1.124L199.657 1.112L198.169 2.816H197.149ZM197.689 9.572C195.877 9.572 194.665 8.264 194.665 6.584C194.665 4.904 195.877 3.584 197.689 3.584C199.417 3.584 200.701 4.808 200.701 6.584C200.701 8.36 199.417 9.572 197.689 9.572ZM197.689 8.684C198.805 8.684 199.705 7.832 199.705 6.584C199.705 5.336 198.817 4.472 197.689 4.472C196.465 4.472 195.661 5.42 195.661 6.584C195.661 7.748 196.477 8.684 197.689 8.684ZM3.956 26.572C2.252 26.572 1.04 25.36 1.04 23.584C1.04 21.82 2.252 20.584 3.992 20.584C4.868 20.584 5.768 20.944 6.344 21.628L5.684 22.216C5.312 21.784 4.736 21.472 4.04 21.472C2.84 21.472 2.036 22.348 2.036 23.584C2.036 24.832 2.84 25.684 4.028 25.684C4.724 25.684 5.336 25.384 5.696 24.94L6.368 25.552C5.876 26.14 5.096 26.572 3.956 26.572ZM9.42581 19.804L7.97381 18.148L9.07781 18.16L10.4098 19.804H9.42581ZM9.23381 26.572C7.88981 26.572 7.03781 25.804 7.03781 24.136V20.656H8.00981V23.86C8.00981 25.18 8.51381 25.684 9.43781 25.684C10.3738 25.684 11.1778 24.88 11.1778 23.488V20.656H12.1498V26.5H11.1778V25.492H11.1658C10.7218 26.188 10.0018 26.572 9.23381 26.572ZM13.4081 26.5V20.656H14.3801V21.712H14.3921C14.8481 21.004 15.6161 20.584 16.5161 20.584C17.7761 20.584 18.6161 21.364 18.6161 23.032V26.5H17.6441V23.308C17.6441 21.94 17.0561 21.472 16.2041 21.472C15.1001 21.472 14.3801 22.264 14.3801 23.584V26.5H13.4081ZM22.4022 28.948C21.5262 28.948 20.7222 28.732 20.0262 28.312L20.2662 27.448C20.9382 27.832 21.5262 28.06 22.3662 28.06C23.6862 28.06 24.3222 27.292 24.3222 26.308V25.372H24.2982C23.8662 25.996 23.1702 26.392 22.2702 26.392C20.6742 26.392 19.4382 25.24 19.4382 23.5C19.4382 21.832 20.5902 20.584 22.2342 20.584C23.0622 20.584 23.8182 20.956 24.2862 21.592H24.3102V20.656H25.2822V26.068C25.2822 27.748 24.4422 28.948 22.4022 28.948ZM22.3902 25.492C23.5662 25.492 24.3462 24.616 24.3462 23.452C24.3462 22.276 23.4942 21.484 22.4022 21.484C21.2142 21.484 20.4222 22.336 20.4222 23.476C20.4222 24.712 21.2862 25.492 22.3902 25.492ZM29.287 26.5V20.656H30.259V21.712H30.271C30.715 21.004 31.447 20.584 32.227 20.584C33.103 20.584 33.739 21.028 34.039 21.832H34.051C34.495 21.04 35.287 20.584 36.199 20.584C37.495 20.584 38.215 21.472 38.215 23.14V26.5H37.243V23.404C37.243 22.156 36.799 21.472 35.911 21.472C34.999 21.472 34.267 22.288 34.267 23.596V26.5H33.295V23.404C33.295 22.156 32.815 21.472 31.939 21.472C30.979 21.472 30.259 22.288 30.259 23.596V26.5H29.287ZM43.0162 19.756C42.6082 19.756 42.2602 19.528 41.9602 19.324C41.7202 19.168 41.4922 19.036 41.2642 19.036C40.9402 19.036 40.7002 19.288 40.5442 19.708L39.9202 19.432C40.1482 18.712 40.5562 18.256 41.1682 18.256C41.5882 18.256 41.8762 18.424 42.1402 18.604C42.3922 18.76 42.6322 18.952 42.9082 18.952C43.1962 18.952 43.4482 18.712 43.6042 18.292L44.2162 18.496C44.0002 19.3 43.5442 19.756 43.0162 19.756ZM41.8642 26.572C40.2562 26.572 39.0202 25.396 39.0202 23.62C39.0202 21.892 40.2082 20.584 41.8642 20.584C42.7282 20.584 43.4842 20.992 43.9042 21.7L43.9282 21.688V20.656H44.9002V26.5H43.9642V25.444H43.9522C43.5322 26.14 42.8122 26.572 41.8642 26.572ZM42.0082 25.684C43.0882 25.684 43.9642 24.856 43.9642 23.62C43.9642 22.42 43.1602 21.472 42.0082 21.472C40.9042 21.472 40.0042 22.324 40.0042 23.62C40.0042 24.796 40.8082 25.684 42.0082 25.684ZM50.6559 26.5L48.2799 20.656H49.3359L51.1239 25.264H51.1359L52.9239 20.656H53.9679L51.5919 26.5H50.6559ZM56.7822 26.572C55.1742 26.572 53.9382 25.396 53.9382 23.62C53.9382 21.892 55.1262 20.584 56.7822 20.584C57.6462 20.584 58.4022 20.992 58.8222 21.7L58.8462 21.688V20.656H59.8182V26.5H58.8822V25.444H58.8702C58.4502 26.14 57.7302 26.572 56.7822 26.572ZM56.9262 25.684C58.0062 25.684 58.8822 24.856 58.8822 23.62C58.8822 22.42 58.0782 21.472 56.9262 21.472C55.8222 21.472 54.9222 22.324 54.9222 23.62C54.9222 24.796 55.7262 25.684 56.9262 25.684ZM56.9142 27.628C57.3102 27.628 57.6222 27.94 57.6222 28.324C57.6222 28.708 57.3102 29.02 56.9142 29.02C56.5182 29.02 56.2062 28.708 56.2062 28.324C56.2062 27.94 56.5182 27.628 56.9142 27.628ZM63.6083 26.572C61.9043 26.572 60.6923 25.36 60.6923 23.584C60.6923 21.82 61.9043 20.584 63.6443 20.584C64.5203 20.584 65.4203 20.944 65.9963 21.628L65.3363 22.216C64.9643 21.784 64.3883 21.472 63.6923 21.472C62.4923 21.472 61.6883 22.348 61.6883 23.584C61.6883 24.832 62.4923 25.684 63.6803 25.684C64.3763 25.684 64.9883 25.384 65.3483 24.94L66.0203 25.552C65.5283 26.14 64.7483 26.572 63.6083 26.572ZM66.8222 26.5V17.668H67.7942V21.676H67.8062C68.2622 20.98 69.0302 20.584 69.9662 20.584C71.2262 20.584 72.0902 21.328 72.0902 22.996V26.5H71.1182V23.272C71.1182 21.952 70.5302 21.472 69.6782 21.472C68.5142 21.472 67.7942 22.24 67.7942 23.56V26.5H66.8222ZM77.7083 26.572C76.6763 26.572 76.1963 25.936 76.1963 24.76V21.496H75.4403V20.656H76.1963V18.664L77.1683 18.556V20.656H79.1003V21.496H77.1683V24.616C77.1683 25.324 77.3243 25.66 77.8763 25.66C78.2243 25.66 78.5843 25.516 78.8723 25.36L79.1243 26.212C78.8003 26.404 78.4043 26.572 77.7083 26.572ZM79.9003 26.5V17.668H80.8723V21.676H80.8843C81.3403 20.98 82.1083 20.584 83.0443 20.584C84.3043 20.584 85.1683 21.328 85.1683 22.996V26.5H84.1963V23.272C84.1963 21.952 83.6083 21.472 82.7563 21.472C81.5923 21.472 80.8723 22.24 80.8723 23.56V26.5H79.9003ZM91.5689 23.476C91.5689 23.632 91.5449 23.8 91.5449 23.872H86.9849C87.1169 24.964 87.8849 25.684 88.9889 25.684C89.7689 25.684 90.3209 25.348 90.6809 24.904L91.3649 25.48C90.8609 26.128 90.1289 26.572 88.9529 26.572C87.2249 26.572 86.0009 25.372 86.0009 23.584C86.0009 21.82 87.2129 20.584 88.8809 20.584C90.4769 20.584 91.5689 21.808 91.5689 23.476ZM88.8689 21.472C87.9329 21.472 87.1889 22.084 87.0089 23.08H90.5969C90.4529 22.12 89.8289 21.472 88.8689 21.472ZM95.146 26.572C93.334 26.572 92.122 25.264 92.122 23.584C92.122 21.904 93.334 20.584 95.146 20.584C96.874 20.584 98.158 21.808 98.158 23.584C98.158 25.36 96.874 26.572 95.146 26.572ZM95.146 25.684C96.262 25.684 97.162 24.832 97.162 23.584C97.162 22.336 96.274 21.472 95.146 21.472C93.922 21.472 93.118 22.42 93.118 23.584C93.118 24.748 93.934 25.684 95.146 25.684ZM103.521 26.572C102.489 26.572 102.009 25.936 102.009 24.76V21.496H101.253V20.656H102.009V18.664L102.981 18.556V20.656H104.913V21.496H102.981V24.616C102.981 25.324 103.137 25.66 103.689 25.66C104.037 25.66 104.397 25.516 104.685 25.36L104.937 26.212C104.613 26.404 104.217 26.572 103.521 26.572ZM105.713 26.5V17.668H106.685V21.676H106.697C107.153 20.98 107.921 20.584 108.857 20.584C110.117 20.584 110.981 21.328 110.981 22.996V26.5H110.009V23.272C110.009 21.952 109.421 21.472 108.569 21.472C107.405 21.472 106.685 22.24 106.685 23.56V26.5H105.713ZM116.577 18.112L115.089 19.816H114.069L115.485 18.124L116.577 18.112ZM117.945 19.72H118.941V20.596C118.941 21.94 118.317 22.66 117.165 22.72V26.5H116.193V25.492H116.181C115.737 26.188 115.017 26.572 114.249 26.572C112.905 26.572 112.053 25.804 112.053 24.136V20.656H113.025V23.86C113.025 25.18 113.529 25.684 114.453 25.684C115.389 25.684 116.193 24.88 116.193 23.488V20.656H117.165V22.048C117.837 21.916 117.945 21.412 117.945 20.548V19.72ZM123.986 26.572C122.954 26.572 122.474 25.936 122.474 24.76V21.496H121.718V20.656H122.474V18.664L123.446 18.556V20.656H125.378V21.496H123.446V24.616C123.446 25.324 123.602 25.66 124.154 25.66C124.502 25.66 124.862 25.516 125.15 25.36L125.402 26.212C125.078 26.404 124.682 26.572 123.986 26.572ZM131.938 19.72H132.934V20.596C132.934 21.94 132.31 22.66 131.158 22.72V26.5H130.186V25.492H130.174C129.73 26.188 129.01 26.572 128.242 26.572C126.898 26.572 126.046 25.804 126.046 24.136V20.656H127.018V23.86C127.018 25.18 127.522 25.684 128.446 25.684C129.382 25.684 130.186 24.88 130.186 23.488V20.656H131.158V22.048C131.83 21.916 131.938 21.412 131.938 20.548V19.72ZM128.662 27.628C129.058 27.628 129.37 27.94 129.37 28.324C129.37 28.708 129.058 29.02 128.662 29.02C128.266 29.02 127.954 28.708 127.954 28.324C127.954 27.94 128.266 27.628 128.662 27.628ZM137.978 26.572C136.946 26.572 136.466 25.936 136.466 24.76V21.496H135.71V20.656H136.466V18.664L137.438 18.556V20.656H139.37V21.496H137.438V24.616C137.438 25.324 137.594 25.66 138.146 25.66C138.494 25.66 138.854 25.516 139.142 25.36L139.394 26.212C139.07 26.404 138.674 26.572 137.978 26.572ZM143.326 19.804H142.342L140.89 18.148L141.994 18.16L143.326 19.804ZM145.93 19.72H146.926V20.596C146.926 21.94 146.302 22.66 145.15 22.72V26.5H144.178V25.492H144.166C143.722 26.188 143.002 26.572 142.234 26.572C140.89 26.572 140.038 25.804 140.038 24.136V20.656H141.01V23.86C141.01 25.18 141.514 25.684 142.438 25.684C143.374 25.684 144.178 24.88 144.178 23.488V20.656H145.15V22.048C145.822 21.916 145.93 21.412 145.93 20.548V19.72ZM151.97 26.572C150.938 26.572 150.458 25.936 150.458 24.76V21.496H149.702V20.656H150.458V18.664L151.43 18.556V20.656H153.362V21.496H151.43V24.616C151.43 25.324 151.586 25.66 152.138 25.66C152.486 25.66 152.846 25.516 153.134 25.36L153.386 26.212C153.062 26.404 152.666 26.572 151.97 26.572ZM154.162 26.5V20.656H155.134V21.724H155.158C155.578 21.016 156.25 20.584 157.054 20.584C157.138 20.584 157.21 20.584 157.294 20.596V21.676C157.15 21.664 157.006 21.652 156.91 21.652C155.794 21.652 155.134 22.504 155.134 23.68V26.5H154.162ZM160.237 18.76L159.361 19.828H158.365L159.745 18.148H160.765L162.097 19.828H161.125L160.261 18.76H160.237ZM162.901 23.476C162.901 23.632 162.877 23.8 162.877 23.872H158.317C158.449 24.964 159.217 25.684 160.321 25.684C161.101 25.684 161.653 25.348 162.013 24.904L162.697 25.48C162.193 26.128 161.461 26.572 160.285 26.572C158.557 26.572 157.333 25.372 157.333 23.584C157.333 21.82 158.545 20.584 160.213 20.584C161.809 20.584 162.901 21.808 162.901 23.476ZM160.201 21.472C159.265 21.472 158.521 22.084 158.341 23.08H161.929C161.785 22.12 161.161 21.472 160.201 21.472ZM163.826 26.5V20.656H164.798V21.712H164.81C165.266 21.004 166.034 20.584 166.934 20.584C168.194 20.584 169.034 21.364 169.034 23.032V26.5H168.062V23.308C168.062 21.94 167.474 21.472 166.622 21.472C165.518 21.472 164.798 22.264 164.798 23.584V26.5H163.826ZM172.446 26.5L174.57 23.536L172.446 20.656H173.598L175.11 22.792H175.134L176.67 20.656H177.81L175.698 23.548L177.834 26.5H176.73L175.146 24.376H175.134L173.538 26.5H172.446ZM180.644 26.572C179.3 26.572 178.448 25.804 178.448 24.136V20.656H179.42V23.86C179.42 25.18 179.924 25.684 180.848 25.684C181.784 25.684 182.588 24.88 182.588 23.488V20.656H183.56V26.5H182.588V25.492H182.576C182.132 26.188 181.412 26.572 180.644 26.572ZM188.946 18.784L190.098 17.08H191.202L189.714 18.784H188.946ZM185.61 19.828L186.99 18.148H188.01L189.342 19.828H188.37L187.506 18.76H187.482L186.606 19.828H185.61ZM187.47 26.572C185.658 26.572 184.446 25.264 184.446 23.584C184.446 21.904 185.658 20.584 187.47 20.584C189.198 20.584 190.482 21.808 190.482 23.584C190.482 25.36 189.198 26.572 187.47 26.572ZM187.47 25.684C188.586 25.684 189.486 24.832 189.486 23.584C189.486 22.336 188.598 21.472 187.47 21.472C186.246 21.472 185.442 22.42 185.442 23.584C185.442 24.748 186.258 25.684 187.47 25.684ZM191.432 26.5V20.656H192.404V21.712H192.416C192.872 21.004 193.64 20.584 194.54 20.584C195.8 20.584 196.64 21.364 196.64 23.032V26.5H195.668V23.308C195.668 21.94 195.08 21.472 194.228 21.472C193.124 21.472 192.404 22.264 192.404 23.584V26.5H191.432ZM200.426 28.948C199.55 28.948 198.746 28.732 198.05 28.312L198.29 27.448C198.962 27.832 199.55 28.06 200.39 28.06C201.71 28.06 202.346 27.292 202.346 26.308V25.372H202.322C201.89 25.996 201.194 26.392 200.294 26.392C198.698 26.392 197.462 25.24 197.462 23.5C197.462 21.832 198.614 20.584 200.258 20.584C201.086 20.584 201.842 20.956 202.31 21.592H202.334V20.656H203.306V26.068C203.306 27.748 202.466 28.948 200.426 28.948ZM200.414 25.492C201.59 25.492 202.37 24.616 202.37 23.452C202.37 22.276 201.518 21.484 200.426 21.484C199.238 21.484 198.446 22.336 198.446 23.476C198.446 24.712 199.31 25.492 200.414 25.492ZM204.916 26.584C204.52 26.584 204.196 26.272 204.196 25.876C204.196 25.48 204.52 25.168 204.916 25.168C205.312 25.168 205.624 25.48 205.624 25.876C205.624 26.272 205.312 26.584 204.916 26.584ZM4.016 43.572C2.948 43.572 1.856 43.164 1.004 42.252L1.676 41.448C2.288 42.216 3.2 42.6 4.028 42.6C5.072 42.6 5.78 42.12 5.78 41.292C5.78 40.344 5.012 40.092 3.872 39.66C2.612 39.192 1.328 38.652 1.328 37.152C1.328 35.88 2.468 34.896 3.932 34.896C4.88 34.896 5.816 35.244 6.62 35.892L5.984 36.72C5.3 36.156 4.568 35.856 3.932 35.856C3.128 35.856 2.42 36.288 2.408 37.104C2.396 37.92 3.164 38.22 4.232 38.628C5.66 39.192 6.872 39.576 6.872 41.172C6.872 42.732 5.504 43.572 4.016 43.572ZM12.0009 35.784L13.1529 34.08H14.2569L12.7689 35.784H12.0009ZM8.66494 36.828L10.0449 35.148H11.0649L12.3969 36.828H11.4249L10.5609 35.76H10.5369L9.66094 36.828H8.66494ZM10.5249 43.572C8.71294 43.572 7.50094 42.264 7.50094 40.584C7.50094 38.904 8.71294 37.584 10.5249 37.584C12.2529 37.584 13.5369 38.808 13.5369 40.584C13.5369 42.36 12.2529 43.572 10.5249 43.572ZM10.5249 42.684C11.6409 42.684 12.5409 41.832 12.5409 40.584C12.5409 39.336 11.6529 38.472 10.5249 38.472C9.30094 38.472 8.49694 39.42 8.49694 40.584C8.49694 41.748 9.31294 42.684 10.5249 42.684ZM17.3278 43.5V34.668H18.2998V43.5H17.3278ZM25.4572 36.72H26.4532V37.596C26.4532 38.94 25.8292 39.66 24.6772 39.72V43.5H23.7052V42.492H23.6932C23.2492 43.188 22.5292 43.572 21.7612 43.572C20.4172 43.572 19.5652 42.804 19.5652 41.136V37.656H20.5372V40.86C20.5372 42.18 21.0412 42.684 21.9652 42.684C22.9012 42.684 23.7052 41.88 23.7052 40.488V37.656H24.6772V39.048C25.3492 38.916 25.4572 38.412 25.4572 37.548V36.72ZM32.7066 36.72H33.7026V37.596C33.7026 38.772 33.2226 39.468 32.3466 39.66C32.4186 39.948 32.4666 40.26 32.4666 40.584C32.4666 42.36 31.1826 43.572 29.4546 43.572C27.6426 43.572 26.4306 42.264 26.4306 40.584C26.4306 38.904 27.6426 37.584 29.4546 37.584C30.6066 37.584 31.5546 38.124 32.0706 39.012C32.6106 38.844 32.7066 38.352 32.7066 37.548V36.72ZM29.4546 42.684C30.5706 42.684 31.4706 41.832 31.4706 40.584C31.4706 39.336 30.5826 38.472 29.4546 38.472C28.2306 38.472 27.4266 39.42 27.4266 40.584C27.4266 41.748 28.2426 42.684 29.4546 42.684ZM29.4546 44.628C29.8506 44.628 30.1626 44.94 30.1626 45.324C30.1626 45.708 29.8506 46.02 29.4546 46.02C29.0586 46.02 28.7466 45.708 28.7466 45.324C28.7466 44.94 29.0586 44.628 29.4546 44.628ZM34.33 43.5V37.656H35.302V38.712H35.314C35.77 38.004 36.538 37.584 37.438 37.584C38.698 37.584 39.538 38.364 39.538 40.032V43.5H38.566V40.308C38.566 38.94 37.978 38.472 37.126 38.472C36.022 38.472 35.302 39.264 35.302 40.584V43.5H34.33ZM43.324 45.948C42.448 45.948 41.644 45.732 40.948 45.312L41.188 44.448C41.86 44.832 42.448 45.06 43.288 45.06C44.608 45.06 45.244 44.292 45.244 43.308V42.372H45.22C44.788 42.996 44.092 43.392 43.192 43.392C41.596 43.392 40.36 42.24 40.36 40.5C40.36 38.832 41.512 37.584 43.156 37.584C43.984 37.584 44.74 37.956 45.208 38.592H45.232V37.656H46.204V43.068C46.204 44.748 45.364 45.948 43.324 45.948ZM43.312 42.492C44.488 42.492 45.268 41.616 45.268 40.452C45.268 39.276 44.416 38.484 43.324 38.484C42.136 38.484 41.344 39.336 41.344 40.476C41.344 41.712 42.208 42.492 43.312 42.492ZM52.8129 43.572C51.7449 43.572 50.6529 43.164 49.8009 42.252L50.4729 41.448C51.0849 42.216 51.9969 42.6 52.8249 42.6C53.8689 42.6 54.5769 42.12 54.5769 41.292C54.5769 40.344 53.8089 40.092 52.6689 39.66C51.4089 39.192 50.1249 38.652 50.1249 37.152C50.1249 35.88 51.2649 34.896 52.7289 34.896C53.6769 34.896 54.6129 35.244 55.4169 35.892L54.7809 36.72C54.0969 36.156 53.3649 35.856 52.7289 35.856C51.9249 35.856 51.2169 36.288 51.2049 37.104C51.1929 37.92 51.9609 38.22 53.0289 38.628C54.4569 39.192 55.6689 39.576 55.6689 41.172C55.6689 42.732 54.3009 43.572 52.8129 43.572ZM56.8138 43.5V34.98H59.7898C61.7818 34.98 62.6098 36.108 62.6098 37.62C62.6098 39.42 61.3858 40.248 59.6098 40.248H57.8578V43.5H56.8138ZM57.8578 39.3H59.5138C60.9298 39.3 61.5298 38.58 61.5298 37.596C61.5298 36.504 60.8218 35.928 59.6818 35.928H57.8578V39.3ZM61.761 44.856L60.981 44.496L65.601 34.26L66.369 34.632L61.761 44.856ZM69.0199 43.572C67.9519 43.572 66.8599 43.164 66.0079 42.252L66.6799 41.448C67.2919 42.216 68.2039 42.6 69.0319 42.6C70.0759 42.6 70.7839 42.12 70.7839 41.292C70.7839 40.344 70.0159 40.092 68.8759 39.66C67.6159 39.192 66.3319 38.652 66.3319 37.152C66.3319 35.88 67.4719 34.896 68.9359 34.896C69.8839 34.896 70.8199 35.244 71.6239 35.892L70.9879 36.72C70.3039 36.156 69.5719 35.856 68.9359 35.856C68.1319 35.856 67.4239 36.288 67.4119 37.104C67.3999 37.92 68.1679 38.22 69.2359 38.628C70.6639 39.192 71.8759 39.576 71.8759 41.172C71.8759 42.732 70.5079 43.572 69.0199 43.572ZM75.4354 43.5L72.2194 34.98H73.3474L75.9034 41.988H75.9154L78.4714 34.98H79.5874L76.3714 43.5H75.4354ZM82.468 43.5L85.696 34.98H86.74L89.98 43.5H88.888L88.12 41.424H84.316L83.56 43.5H82.468ZM84.652 40.512H87.796L86.224 36.24H86.2L84.652 40.512ZM93.2909 39.276V38.376H98.9189V39.276H93.2909ZM93.2909 41.988V41.088H98.9189V41.988H93.2909ZM104.442 43.572C103.47 43.572 102.726 43.236 102.162 42.744L102.654 42C103.11 42.444 103.626 42.708 104.442 42.708C105.15 42.708 105.558 42.36 105.558 41.916C105.558 41.4 105.018 41.256 104.166 40.944C103.218 40.608 102.414 40.224 102.414 39.156C102.414 38.256 103.23 37.584 104.334 37.584C105.042 37.584 105.702 37.776 106.35 38.304L105.846 39.072C105.342 38.604 104.802 38.448 104.298 38.448C103.842 38.448 103.398 38.712 103.398 39.156C103.398 39.612 103.866 39.84 104.502 40.068C105.738 40.548 106.554 40.764 106.542 41.904C106.542 42.816 105.846 43.572 104.442 43.572ZM111.544 35.784L112.696 34.08H113.8L112.312 35.784H111.544ZM108.208 36.828L109.588 35.148H110.608L111.94 36.828H110.968L110.104 35.76H110.08L109.204 36.828H108.208ZM110.068 43.572C108.256 43.572 107.044 42.264 107.044 40.584C107.044 38.904 108.256 37.584 110.068 37.584C111.796 37.584 113.08 38.808 113.08 40.584C113.08 42.36 111.796 43.572 110.068 43.572ZM110.068 42.684C111.184 42.684 112.084 41.832 112.084 40.584C112.084 39.336 111.196 38.472 110.068 38.472C108.844 38.472 108.04 39.42 108.04 40.584C108.04 41.748 108.856 42.684 110.068 42.684ZM116.871 43.5V34.668H117.843V43.5H116.871ZM125 36.72H125.996V37.596C125.996 38.94 125.372 39.66 124.22 39.72V43.5H123.248V42.492H123.236C122.792 43.188 122.072 43.572 121.304 43.572C119.96 43.572 119.108 42.804 119.108 41.136V37.656H120.08V40.86C120.08 42.18 120.584 42.684 121.508 42.684C122.444 42.684 123.248 41.88 123.248 40.488V37.656H124.22V39.048C124.892 38.916 125 38.412 125 37.548V36.72ZM132.25 36.72H133.246V37.596C133.246 38.772 132.766 39.468 131.89 39.66C131.962 39.948 132.01 40.26 132.01 40.584C132.01 42.36 130.726 43.572 128.998 43.572C127.186 43.572 125.974 42.264 125.974 40.584C125.974 38.904 127.186 37.584 128.998 37.584C130.15 37.584 131.098 38.124 131.614 39.012C132.154 38.844 132.25 38.352 132.25 37.548V36.72ZM128.998 42.684C130.114 42.684 131.014 41.832 131.014 40.584C131.014 39.336 130.126 38.472 128.998 38.472C127.774 38.472 126.97 39.42 126.97 40.584C126.97 41.748 127.786 42.684 128.998 42.684ZM128.998 44.628C129.394 44.628 129.706 44.94 129.706 45.324C129.706 45.708 129.394 46.02 128.998 46.02C128.602 46.02 128.29 45.708 128.29 45.324C128.29 44.94 128.602 44.628 128.998 44.628ZM133.873 43.5V37.656H134.845V38.712H134.857C135.313 38.004 136.081 37.584 136.981 37.584C138.241 37.584 139.081 38.364 139.081 40.032V43.5H138.109V40.308C138.109 38.94 137.521 38.472 136.669 38.472C135.565 38.472 134.845 39.264 134.845 40.584V43.5H133.873ZM142.867 45.948C141.991 45.948 141.187 45.732 140.491 45.312L140.731 44.448C141.403 44.832 141.991 45.06 142.831 45.06C144.151 45.06 144.787 44.292 144.787 43.308V42.372H144.763C144.331 42.996 143.635 43.392 142.735 43.392C141.139 43.392 139.903 42.24 139.903 40.5C139.903 38.832 141.055 37.584 142.699 37.584C143.527 37.584 144.283 37.956 144.751 38.592H144.775V37.656H145.747V43.068C145.747 44.748 144.907 45.948 142.867 45.948ZM142.855 42.492C144.031 42.492 144.811 41.616 144.811 40.452C144.811 39.276 143.959 38.484 142.867 38.484C141.679 38.484 140.887 39.336 140.887 40.476C140.887 41.712 141.751 42.492 142.855 42.492ZM152.356 43.572C151.288 43.572 150.196 43.164 149.344 42.252L150.016 41.448C150.628 42.216 151.54 42.6 152.368 42.6C153.412 42.6 154.12 42.12 154.12 41.292C154.12 40.344 153.352 40.092 152.212 39.66C150.952 39.192 149.668 38.652 149.668 37.152C149.668 35.88 150.808 34.896 152.272 34.896C153.22 34.896 154.156 35.244 154.96 35.892L154.324 36.72C153.64 36.156 152.908 35.856 152.272 35.856C151.468 35.856 150.76 36.288 150.748 37.104C150.736 37.92 151.504 38.22 152.572 38.628C154 39.192 155.212 39.576 155.212 41.172C155.212 42.732 153.844 43.572 152.356 43.572ZM156.357 43.5V34.98H159.333C161.325 34.98 162.153 36.108 162.153 37.62C162.153 39.42 160.929 40.248 159.153 40.248H157.401V43.5H156.357ZM157.401 39.3H159.057C160.473 39.3 161.073 38.58 161.073 37.596C161.073 36.504 160.365 35.928 159.225 35.928H157.401V39.3ZM161.304 44.856L160.524 44.496L165.144 34.26L165.912 34.632L161.304 44.856ZM166.314 43.5V34.98H168.858C171.558 34.98 173.286 36.732 173.286 39.252C173.286 41.76 171.618 43.5 168.894 43.5H166.314ZM167.358 42.552H168.834C170.91 42.552 172.206 41.172 172.206 39.252C172.206 37.308 170.862 35.928 168.87 35.928H167.358V42.552ZM176.537 43.5L173.321 34.98H174.449L177.005 41.988H177.017L179.573 34.98H180.689L177.473 43.5H176.537ZM185.322 45.276C184.506 43.824 183.978 42.048 183.978 39.948C183.978 37.896 184.506 36 185.37 34.608L186.114 34.956C185.358 36.336 184.89 38.088 184.89 39.948C184.89 41.88 185.37 43.5 186.078 44.94L185.322 45.276ZM186.577 43.5L186.565 42.804L189.385 39.924C190.081 39.204 190.633 38.544 190.633 37.728C190.633 36.816 189.997 36.144 189.085 36.144C188.305 36.144 187.705 36.528 187.321 37.272L186.577 36.756C187.033 35.844 187.861 35.196 189.145 35.196C190.465 35.196 191.665 36.096 191.665 37.62C191.665 38.544 191.269 39.348 190.249 40.38L188.101 42.54L188.113 42.576H191.761V43.5H186.577ZM193.105 45.276L192.349 44.94C193.057 43.5 193.537 41.88 193.537 39.948C193.537 38.088 193.069 36.336 192.313 34.956L193.057 34.608C193.921 36 194.449 37.896 194.449 39.948C194.449 42.048 193.921 43.824 193.105 45.276ZM198.09 40.284V39.324H201.642V40.284H198.09ZM3.176 60.572C2.204 60.572 1.46 60.236 0.896 59.744L1.388 59C1.844 59.444 2.36 59.708 3.176 59.708C3.884 59.708 4.292 59.36 4.292 58.916C4.292 58.4 3.752 58.256 2.9 57.944C1.952 57.608 1.148 57.224 1.148 56.156C1.148 55.256 1.964 54.584 3.068 54.584C3.776 54.584 4.436 54.776 5.084 55.304L4.58 56.072C4.076 55.604 3.536 55.448 3.032 55.448C2.576 55.448 2.132 55.712 2.132 56.156C2.132 56.612 2.6 56.84 3.236 57.068C4.472 57.548 5.288 57.764 5.276 58.904C5.276 59.816 4.58 60.572 3.176 60.572ZM10.2783 52.784L11.4303 51.08H12.5343L11.0463 52.784H10.2783ZM6.94228 53.828L8.32228 52.148H9.34228L10.6743 53.828H9.70228L8.83828 52.76H8.81428L7.93828 53.828H6.94228ZM8.80228 60.572C6.99028 60.572 5.77828 59.264 5.77828 57.584C5.77828 55.904 6.99028 54.584 8.80228 54.584C10.5303 54.584 11.8143 55.808 11.8143 57.584C11.8143 59.36 10.5303 60.572 8.80228 60.572ZM8.80228 59.684C9.91828 59.684 10.8183 58.832 10.8183 57.584C10.8183 56.336 9.93028 55.472 8.80228 55.472C7.57828 55.472 6.77428 56.42 6.77428 57.584C6.77428 58.748 7.59028 59.684 8.80228 59.684ZM15.6051 60.5V51.668H16.5771V60.5H15.6051ZM23.7345 53.72H24.7305V54.596C24.7305 55.94 24.1065 56.66 22.9545 56.72V60.5H21.9825V59.492H21.9705C21.5265 60.188 20.8065 60.572 20.0385 60.572C18.6945 60.572 17.8425 59.804 17.8425 58.136V54.656H18.8145V57.86C18.8145 59.18 19.3185 59.684 20.2425 59.684C21.1785 59.684 21.9825 58.88 21.9825 57.488V54.656H22.9545V56.048C23.6265 55.916 23.7345 55.412 23.7345 54.548V53.72ZM30.984 53.72H31.98V54.596C31.98 55.772 31.5 56.468 30.624 56.66C30.696 56.948 30.744 57.26 30.744 57.584C30.744 59.36 29.46 60.572 27.732 60.572C25.92 60.572 24.708 59.264 24.708 57.584C24.708 55.904 25.92 54.584 27.732 54.584C28.884 54.584 29.832 55.124 30.348 56.012C30.888 55.844 30.984 55.352 30.984 54.548V53.72ZM27.732 59.684C28.848 59.684 29.748 58.832 29.748 57.584C29.748 56.336 28.86 55.472 27.732 55.472C26.508 55.472 25.704 56.42 25.704 57.584C25.704 58.748 26.52 59.684 27.732 59.684ZM27.732 61.628C28.128 61.628 28.44 61.94 28.44 62.324C28.44 62.708 28.128 63.02 27.732 63.02C27.336 63.02 27.024 62.708 27.024 62.324C27.024 61.94 27.336 61.628 27.732 61.628ZM32.6073 60.5V54.656H33.5793V55.712H33.5913C34.0473 55.004 34.8153 54.584 35.7153 54.584C36.9753 54.584 37.8153 55.364 37.8153 57.032V60.5H36.8433V57.308C36.8433 55.94 36.2553 55.472 35.4033 55.472C34.2993 55.472 33.5793 56.264 33.5793 57.584V60.5H32.6073ZM41.6014 62.948C40.7254 62.948 39.9214 62.732 39.2254 62.312L39.4654 61.448C40.1374 61.832 40.7254 62.06 41.5654 62.06C42.8854 62.06 43.5214 61.292 43.5214 60.308V59.372H43.4974C43.0654 59.996 42.3694 60.392 41.4694 60.392C39.8734 60.392 38.6374 59.24 38.6374 57.5C38.6374 55.832 39.7894 54.584 41.4334 54.584C42.2614 54.584 43.0174 54.956 43.4854 55.592H43.5094V54.656H44.4814V60.068C44.4814 61.748 43.6414 62.948 41.6014 62.948ZM41.5894 59.492C42.7654 59.492 43.5454 58.616 43.5454 57.452C43.5454 56.276 42.6934 55.484 41.6014 55.484C40.4134 55.484 39.6214 56.336 39.6214 57.476C39.6214 58.712 40.4854 59.492 41.5894 59.492ZM51.0902 60.572C50.0222 60.572 48.9302 60.164 48.0782 59.252L48.7502 58.448C49.3622 59.216 50.2742 59.6 51.1022 59.6C52.1462 59.6 52.8542 59.12 52.8542 58.292C52.8542 57.344 52.0862 57.092 50.9462 56.66C49.6862 56.192 48.4022 55.652 48.4022 54.152C48.4022 52.88 49.5422 51.896 51.0062 51.896C51.9542 51.896 52.8902 52.244 53.6942 52.892L53.0582 53.72C52.3742 53.156 51.6422 52.856 51.0062 52.856C50.2022 52.856 49.4942 53.288 49.4822 54.104C49.4702 54.92 50.2382 55.22 51.3062 55.628C52.7342 56.192 53.9462 56.576 53.9462 58.172C53.9462 59.732 52.5782 60.572 51.0902 60.572ZM55.0912 60.5V51.98H58.0672C60.0592 51.98 60.8872 53.108 60.8872 54.62C60.8872 56.42 59.6632 57.248 57.8872 57.248H56.1352V60.5H55.0912ZM56.1352 56.3H57.7912C59.2072 56.3 59.8072 55.58 59.8072 54.596C59.8072 53.504 59.0992 52.928 57.9592 52.928H56.1352V56.3ZM60.0383 61.856L59.2583 61.496L63.8783 51.26L64.6463 51.632L60.0383 61.856ZM65.0482 60.5V51.98H67.5922C70.2922 51.98 72.0202 53.732 72.0202 56.252C72.0202 58.76 70.3522 60.5 67.6282 60.5H65.0482ZM66.0922 59.552H67.5682C69.6442 59.552 70.9402 58.172 70.9402 56.252C70.9402 54.308 69.5962 52.928 67.6042 52.928H66.0922V59.552ZM75.2713 60.5L72.0553 51.98H73.1833L75.7393 58.988H75.7513L78.3073 51.98H79.4233L76.2073 60.5H75.2713ZM89.2039 52.964V53.66H88.4599V60.5H87.5239V59.42H87.5119C87.0919 60.128 86.3479 60.572 85.3999 60.572C83.7799 60.572 82.5319 59.396 82.5319 57.62C82.5319 55.892 83.7439 54.584 85.3879 54.584C86.2759 54.584 87.0319 54.992 87.4759 55.7H87.4879V53.66H85.0279V52.964H87.4879V51.668H88.4599V52.964H89.2039ZM85.5319 59.684C86.6359 59.684 87.5239 58.856 87.5239 57.62C87.5239 56.42 86.7199 55.472 85.5439 55.472C84.4279 55.472 83.5279 56.324 83.5279 57.62C83.5279 58.796 84.3439 59.684 85.5319 59.684ZM95.4415 53.72H96.4375V54.596C96.4375 55.94 95.8135 56.66 94.6615 56.72V60.5H93.6895V59.492H93.6775C93.2335 60.188 92.5135 60.572 91.7455 60.572C90.4015 60.572 89.5495 59.804 89.5495 58.136V54.656H90.5215V57.86C90.5215 59.18 91.0255 59.684 91.9495 59.684C92.8855 59.684 93.6895 58.88 93.6895 57.488V54.656H94.6615V56.048C95.3335 55.916 95.4415 55.412 95.4415 54.548V53.72ZM102.691 53.72H103.687V54.596C103.687 55.772 103.207 56.468 102.331 56.66C102.403 56.948 102.451 57.26 102.451 57.584C102.451 59.36 101.167 60.572 99.439 60.572C97.627 60.572 96.415 59.264 96.415 57.584C96.415 55.904 97.627 54.584 99.439 54.584C100.591 54.584 101.539 55.124 102.055 56.012C102.595 55.844 102.691 55.352 102.691 54.548V53.72ZM99.439 59.684C100.555 59.684 101.455 58.832 101.455 57.584C101.455 56.336 100.567 55.472 99.439 55.472C98.215 55.472 97.411 56.42 97.411 57.584C97.411 58.748 98.227 59.684 99.439 59.684ZM99.439 61.628C99.835 61.628 100.147 61.94 100.147 62.324C100.147 62.708 99.835 63.02 99.439 63.02C99.043 63.02 98.731 62.708 98.731 62.324C98.731 61.94 99.043 61.628 99.439 61.628ZM106.565 60.572C104.861 60.572 103.649 59.36 103.649 57.584C103.649 55.82 104.861 54.584 106.601 54.584C107.477 54.584 108.377 54.944 108.953 55.628L108.293 56.216C107.921 55.784 107.345 55.472 106.649 55.472C105.449 55.472 104.645 56.348 104.645 57.584C104.645 58.832 105.449 59.684 106.637 59.684C107.333 59.684 107.945 59.384 108.305 58.94L108.977 59.552C108.485 60.14 107.705 60.572 106.565 60.572ZM117.133 62.876V59.492H117.121C116.689 60.164 115.957 60.572 115.033 60.572C113.425 60.572 112.189 59.396 112.189 57.62C112.189 55.892 113.377 54.584 115.033 54.584C115.921 54.584 116.677 54.992 117.121 55.7H117.133V54.656H118.105V62.876H117.133ZM115.177 59.684C116.269 59.684 117.157 58.856 117.157 57.62C117.157 56.42 116.353 55.472 115.177 55.472C114.061 55.472 113.173 56.324 113.173 57.62C113.173 58.796 113.977 59.684 115.177 59.684ZM121.449 60.572C120.105 60.572 119.253 59.804 119.253 58.136V54.656H120.225V57.86C120.225 59.18 120.729 59.684 121.653 59.684C122.589 59.684 123.393 58.88 123.393 57.488V54.656H124.365V60.5H123.393V59.492H123.381C122.937 60.188 122.217 60.572 121.449 60.572ZM130.027 52.112L128.539 53.816H127.519L128.935 52.124L130.027 52.112ZM130.819 57.476C130.819 57.632 130.795 57.8 130.795 57.872H126.235C126.367 58.964 127.135 59.684 128.239 59.684C129.019 59.684 129.571 59.348 129.931 58.904L130.615 59.48C130.111 60.128 129.379 60.572 128.203 60.572C126.475 60.572 125.251 59.372 125.251 57.584C125.251 55.82 126.463 54.584 128.131 54.584C129.727 54.584 130.819 55.808 130.819 57.476ZM128.119 55.472C127.183 55.472 126.439 56.084 126.259 57.08H129.847C129.703 56.12 129.079 55.472 128.119 55.472ZM133.376 60.572C132.344 60.572 131.864 59.936 131.864 58.76V55.496H131.108V54.656H131.864V52.664L132.836 52.556V54.656H134.768V55.496H132.836V58.616C132.836 59.324 132.992 59.66 133.544 59.66C133.892 59.66 134.252 59.516 134.54 59.36L134.792 60.212C134.468 60.404 134.072 60.572 133.376 60.572ZM4.016 77.572C2.948 77.572 1.856 77.164 1.004 76.252L1.676 75.448C2.288 76.216 3.2 76.6 4.028 76.6C5.072 76.6 5.78 76.12 5.78 75.292C5.78 74.344 5.012 74.092 3.872 73.66C2.612 73.192 1.328 72.652 1.328 71.152C1.328 69.88 2.468 68.896 3.932 68.896C4.88 68.896 5.816 69.244 6.62 69.892L5.984 70.72C5.3 70.156 4.568 69.856 3.932 69.856C3.128 69.856 2.42 70.288 2.408 71.104C2.396 71.92 3.164 72.22 4.232 72.628C5.66 73.192 6.872 73.576 6.872 75.172C6.872 76.732 5.504 77.572 4.016 77.572ZM12.0009 69.784L13.1529 68.08H14.2569L12.7689 69.784H12.0009ZM8.66494 70.828L10.0449 69.148H11.0649L12.3969 70.828H11.4249L10.5609 69.76H10.5369L9.66094 70.828H8.66494ZM10.5249 77.572C8.71294 77.572 7.50094 76.264 7.50094 74.584C7.50094 72.904 8.71294 71.584 10.5249 71.584C12.2529 71.584 13.5369 72.808 13.5369 74.584C13.5369 76.36 12.2529 77.572 10.5249 77.572ZM10.5249 76.684C11.6409 76.684 12.5409 75.832 12.5409 74.584C12.5409 73.336 11.6529 72.472 10.5249 72.472C9.30094 72.472 8.49694 73.42 8.49694 74.584C8.49694 75.748 9.31294 76.684 10.5249 76.684ZM17.3278 77.5V68.668H18.2998V77.5H17.3278ZM25.4572 70.72H26.4532V71.596C26.4532 72.94 25.8292 73.66 24.6772 73.72V77.5H23.7052V76.492H23.6932C23.2492 77.188 22.5292 77.572 21.7612 77.572C20.4172 77.572 19.5652 76.804 19.5652 75.136V71.656H20.5372V74.86C20.5372 76.18 21.0412 76.684 21.9652 76.684C22.9012 76.684 23.7052 75.88 23.7052 74.488V71.656H24.6772V73.048C25.3492 72.916 25.4572 72.412 25.4572 71.548V70.72ZM32.7066 70.72H33.7026V71.596C33.7026 72.772 33.2226 73.468 32.3466 73.66C32.4186 73.948 32.4666 74.26 32.4666 74.584C32.4666 76.36 31.1826 77.572 29.4546 77.572C27.6426 77.572 26.4306 76.264 26.4306 74.584C26.4306 72.904 27.6426 71.584 29.4546 71.584C30.6066 71.584 31.5546 72.124 32.0706 73.012C32.6106 72.844 32.7066 72.352 32.7066 71.548V70.72ZM29.4546 76.684C30.5706 76.684 31.4706 75.832 31.4706 74.584C31.4706 73.336 30.5826 72.472 29.4546 72.472C28.2306 72.472 27.4266 73.42 27.4266 74.584C27.4266 75.748 28.2426 76.684 29.4546 76.684ZM29.4546 78.628C29.8506 78.628 30.1626 78.94 30.1626 79.324C30.1626 79.708 29.8506 80.02 29.4546 80.02C29.0586 80.02 28.7466 79.708 28.7466 79.324C28.7466 78.94 29.0586 78.628 29.4546 78.628ZM34.33 77.5V71.656H35.302V72.712H35.314C35.77 72.004 36.538 71.584 37.438 71.584C38.698 71.584 39.538 72.364 39.538 74.032V77.5H38.566V74.308C38.566 72.94 37.978 72.472 37.126 72.472C36.022 72.472 35.302 73.264 35.302 74.584V77.5H34.33ZM43.324 79.948C42.448 79.948 41.644 79.732 40.948 79.312L41.188 78.448C41.86 78.832 42.448 79.06 43.288 79.06C44.608 79.06 45.244 78.292 45.244 77.308V76.372H45.22C44.788 76.996 44.092 77.392 43.192 77.392C41.596 77.392 40.36 76.24 40.36 74.5C40.36 72.832 41.512 71.584 43.156 71.584C43.984 71.584 44.74 71.956 45.208 72.592H45.232V71.656H46.204V77.068C46.204 78.748 45.364 79.948 43.324 79.948ZM43.312 76.492C44.488 76.492 45.268 75.616 45.268 74.452C45.268 73.276 44.416 72.484 43.324 72.484C42.136 72.484 41.344 73.336 41.344 74.476C41.344 75.712 42.208 76.492 43.312 76.492ZM52.8129 77.572C51.7449 77.572 50.6529 77.164 49.8009 76.252L50.4729 75.448C51.0849 76.216 51.9969 76.6 52.8249 76.6C53.8689 76.6 54.5769 76.12 54.5769 75.292C54.5769 74.344 53.8089 74.092 52.6689 73.66C51.4089 73.192 50.1249 72.652 50.1249 71.152C50.1249 69.88 51.2649 68.896 52.7289 68.896C53.6769 68.896 54.6129 69.244 55.4169 69.892L54.7809 70.72C54.0969 70.156 53.3649 69.856 52.7289 69.856C51.9249 69.856 51.2169 70.288 51.2049 71.104C51.1929 71.92 51.9609 72.22 53.0289 72.628C54.4569 73.192 55.6689 73.576 55.6689 75.172C55.6689 76.732 54.3009 77.572 52.8129 77.572ZM56.8138 77.5V68.98H59.7898C61.7818 68.98 62.6098 70.108 62.6098 71.62C62.6098 73.42 61.3858 74.248 59.6098 74.248H57.8578V77.5H56.8138ZM57.8578 73.3H59.5138C60.9298 73.3 61.5298 72.58 61.5298 71.596C61.5298 70.504 60.8218 69.928 59.6818 69.928H57.8578V73.3ZM61.761 78.856L60.981 78.496L65.601 68.26L66.369 68.632L61.761 78.856ZM66.7708 77.5V68.98H69.3148C72.0148 68.98 73.7428 70.732 73.7428 73.252C73.7428 75.76 72.0748 77.5 69.3508 77.5H66.7708ZM67.8148 76.552H69.2908C71.3668 76.552 72.6628 75.172 72.6628 73.252C72.6628 71.308 71.3188 69.928 69.3268 69.928H67.8148V76.552ZM76.994 77.5L73.778 68.98H74.906L77.462 75.988H77.474L80.03 68.98H81.146L77.93 77.5H76.994ZM85.7786 79.276C84.9626 77.824 84.4346 76.048 84.4346 73.948C84.4346 71.896 84.9626 70 85.8266 68.608L86.5706 68.956C85.8146 70.336 85.3466 72.088 85.3466 73.948C85.3466 75.88 85.8266 77.5 86.5346 78.94L85.7786 79.276ZM88.9541 77.5V70.468L87.3101 71.716L86.8181 70.96L89.1221 69.256H89.9621V77.5H88.9541ZM91.839 79.276L91.083 78.94C91.791 77.5 92.271 75.88 92.271 73.948C92.271 72.088 91.803 70.336 91.047 68.956L91.791 68.608C92.655 70 93.183 71.896 93.183 73.948C93.183 76.048 92.655 77.824 91.839 79.276ZM94.8105 77.584C94.4145 77.584 94.0905 77.272 94.0905 76.876C94.0905 76.48 94.4145 76.168 94.8105 76.168C95.2065 76.168 95.5185 76.48 95.5185 76.876C95.5185 77.272 95.2065 77.584 94.8105 77.584Z" fill="#4C5A61"/>
</svg>
