<svg width="44" height="44" viewBox="0 0 44 44" fill="none" xmlns="http://www.w3.org/2000/svg">
    <circle cx="22" cy="22" r="22" fill="#FFA462"/>
    <path d="M16.9347 29.5V14.9545H22.3892C23.5066 14.9545 24.4441 15.1629 25.2017 15.5795C25.964 15.9962 26.5393 16.5691 26.9276 17.2983C27.3205 18.0227 27.517 18.8466 27.517 19.7699C27.517 20.7027 27.3205 21.5312 26.9276 22.2557C26.5346 22.9801 25.9545 23.5507 25.1875 23.9673C24.4205 24.3793 23.4759 24.5852 22.3537 24.5852H18.7386V22.419H21.9986C22.652 22.419 23.187 22.3054 23.6037 22.0781C24.0204 21.8509 24.3281 21.5384 24.527 21.1406C24.7306 20.7429 24.8324 20.286 24.8324 19.7699C24.8324 19.2538 24.7306 18.7992 24.527 18.4062C24.3281 18.0133 24.018 17.7079 23.5966 17.4901C23.1799 17.2675 22.6425 17.1562 21.9844 17.1562H19.5696V29.5H16.9347Z" fill="white"/>
</svg>
