<svg width="206" height="30" viewBox="0 0 206 30" fill="none" xmlns="http://www.w3.org/2000/svg">
    <path d="M1.056 10V1.48H2.1V5.476H6.552V1.48H7.596V10H6.552V6.424H2.1V10H1.056ZM11.5924 2.26L10.7164 3.328H9.72044L11.1004 1.648H12.1204L13.4524 3.328H12.4804L11.6164 2.26H11.5924ZM14.2564 6.976C14.2564 7.132 14.2324 7.3 14.2324 7.372H9.67244C9.80444 8.464 10.5724 9.184 11.6764 9.184C12.4564 9.184 13.0084 8.848 13.3684 8.404L14.0524 8.98C13.5484 9.628 12.8164 10.072 11.6404 10.072C9.91244 10.072 8.68844 8.872 8.68844 7.084C8.68844 5.32 9.90044 4.084 11.5684 4.084C13.1644 4.084 14.2564 5.308 14.2564 6.976ZM11.5564 4.972C10.6204 4.972 9.87644 5.584 9.69644 6.58H13.2844C13.1404 5.62 12.5164 4.972 11.5564 4.972ZM11.6524 11.128C12.0484 11.128 12.3604 11.44 12.3604 11.824C12.3604 12.208 12.0484 12.52 11.6524 12.52C11.2564 12.52 10.9444 12.208 10.9444 11.824C10.9444 11.44 11.2564 11.128 11.6524 11.128ZM19.5951 10.072C18.5631 10.072 18.0831 9.436 18.0831 8.26V4.996H17.3271V4.156H18.0831V2.164L19.0551 2.056V4.156H20.9871V4.996H19.0551V8.116C19.0551 8.824 19.2111 9.16 19.7631 9.16C20.1111 9.16 20.4711 9.016 20.7591 8.86L21.0111 9.712C20.6871 9.904 20.2911 10.072 19.5951 10.072ZM21.787 10V1.168H22.759V5.176H22.771C23.227 4.48 23.995 4.084 24.931 4.084C26.191 4.084 27.055 4.828 27.055 6.496V10H26.083V6.772C26.083 5.452 25.495 4.972 24.643 4.972C23.479 4.972 22.759 5.74 22.759 7.06V10H21.787ZM32.3877 2.284L33.5397 0.58H34.6437L33.1557 2.284H32.3877ZM29.0517 3.328L30.4317 1.648H31.4517L32.7837 3.328H31.8117L30.9477 2.26H30.9237L30.0477 3.328H29.0517ZM30.9117 10.072C29.0997 10.072 27.8877 8.764 27.8877 7.084C27.8877 5.404 29.0997 4.084 30.9117 4.084C32.6397 4.084 33.9237 5.308 33.9237 7.084C33.9237 8.86 32.6397 10.072 30.9117 10.072ZM30.9117 9.184C32.0277 9.184 32.9277 8.332 32.9277 7.084C32.9277 5.836 32.0397 4.972 30.9117 4.972C29.6877 4.972 28.8837 5.92 28.8837 7.084C28.8837 8.248 29.6997 9.184 30.9117 9.184ZM34.8729 10V4.156H35.8449V5.212H35.8569C36.3129 4.504 37.0809 4.084 37.9809 4.084C39.2409 4.084 40.0809 4.864 40.0809 6.532V10H39.1089V6.808C39.1089 5.44 38.5209 4.972 37.6689 4.972C36.5649 4.972 35.8449 5.764 35.8449 7.084V10H34.8729ZM43.867 12.448C42.991 12.448 42.187 12.232 41.491 11.812L41.731 10.948C42.403 11.332 42.991 11.56 43.831 11.56C45.151 11.56 45.787 10.792 45.787 9.808V8.872H45.763C45.331 9.496 44.635 9.892 43.735 9.892C42.139 9.892 40.903 8.74 40.903 7C40.903 5.332 42.055 4.084 43.699 4.084C44.527 4.084 45.283 4.456 45.751 5.092H45.775V4.156H46.747V9.568C46.747 11.248 45.907 12.448 43.867 12.448ZM43.855 8.992C45.031 8.992 45.811 8.116 45.811 6.952C45.811 5.776 44.959 4.984 43.867 4.984C42.679 4.984 41.887 5.836 41.887 6.976C41.887 8.212 42.751 8.992 43.855 8.992ZM52.3958 10.072C51.3638 10.072 50.8838 9.436 50.8838 8.26V4.996H50.1278V4.156H50.8838V2.164L51.8558 2.056V4.156H53.7878V4.996H51.8558V8.116C51.8558 8.824 52.0118 9.16 52.5638 9.16C52.9118 9.16 53.2718 9.016 53.5598 8.86L53.8118 9.712C53.4878 9.904 53.0918 10.072 52.3958 10.072ZM54.5878 10V1.168H55.5598V5.176H55.5718C56.0278 4.48 56.7958 4.084 57.7318 4.084C58.9918 4.084 59.8558 4.828 59.8558 6.496V10H58.8838V6.772C58.8838 5.452 58.2958 4.972 57.4438 4.972C56.2798 4.972 55.5598 5.74 55.5598 7.06V10H54.5878ZM66.8204 3.22H67.8164V4.096C67.8164 5.44 67.1924 6.16 66.0404 6.22V10H65.0684V8.992H65.0564C64.6124 9.688 63.8924 10.072 63.1244 10.072C61.7804 10.072 60.9284 9.304 60.9284 7.636V4.156H61.9004V7.36C61.9004 8.68 62.4044 9.184 63.3284 9.184C64.2644 9.184 65.0684 8.38 65.0684 6.988V4.156H66.0404V5.548C66.7124 5.416 66.8204 4.912 66.8204 4.048V3.22ZM63.5444 11.128C63.9404 11.128 64.2524 11.44 64.2524 11.824C64.2524 12.208 63.9404 12.52 63.5444 12.52C63.1484 12.52 62.8364 12.208 62.8364 11.824C62.8364 11.44 63.1484 11.128 63.5444 11.128ZM70.7099 10.072C69.0059 10.072 67.7939 8.86 67.7939 7.084C67.7939 5.32 69.0059 4.084 70.7459 4.084C71.6219 4.084 72.5219 4.444 73.0979 5.128L72.4379 5.716C72.0659 5.284 71.4899 4.972 70.7939 4.972C69.5939 4.972 68.7899 5.848 68.7899 7.084C68.7899 8.332 69.5939 9.184 70.7819 9.184C71.4779 9.184 72.0899 8.884 72.4499 8.44L73.1219 9.052C72.6299 9.64 71.8499 10.072 70.7099 10.072ZM76.6933 10V1.168H77.6653V5.176H77.6773C78.1333 4.48 78.9013 4.084 79.8373 4.084C81.0973 4.084 81.9613 4.828 81.9613 6.496V10H80.9893V6.772C80.9893 5.452 80.4013 4.972 79.5493 4.972C78.3853 4.972 77.6653 5.74 77.6653 7.06V10H76.6933ZM83.7299 3.088C83.3339 3.088 83.0219 2.776 83.0219 2.392C83.0219 2.008 83.3339 1.696 83.7299 1.696C84.1259 1.696 84.4379 2.008 84.4379 2.392C84.4379 2.776 84.1259 3.088 83.7299 3.088ZM83.2379 10V4.156H84.2099V10H83.2379ZM88.1393 2.26L87.2633 3.328H86.2673L87.6473 1.648H88.6673L89.9993 3.328H89.0273L88.1633 2.26H88.1393ZM90.8033 6.976C90.8033 7.132 90.7793 7.3 90.7793 7.372H86.2193C86.3513 8.464 87.1193 9.184 88.2233 9.184C89.0033 9.184 89.5553 8.848 89.9153 8.404L90.5993 8.98C90.0953 9.628 89.3633 10.072 88.1873 10.072C86.4593 10.072 85.2353 8.872 85.2353 7.084C85.2353 5.32 86.4473 4.084 88.1153 4.084C89.7113 4.084 90.8033 5.308 90.8033 6.976ZM88.1033 4.972C87.1673 4.972 86.4233 5.584 86.2433 6.58H89.8313C89.6873 5.62 89.0633 4.972 88.1033 4.972ZM88.1993 11.128C88.5953 11.128 88.9073 11.44 88.9073 11.824C88.9073 12.208 88.5953 12.52 88.1993 12.52C87.8033 12.52 87.4913 12.208 87.4913 11.824C87.4913 11.44 87.8033 11.128 88.1993 11.128ZM91.7284 10V4.156H92.7004V5.212H92.7124C93.1684 4.504 93.9364 4.084 94.8364 4.084C96.0964 4.084 96.9364 4.864 96.9364 6.532V10H95.9644V6.808C95.9644 5.44 95.3764 4.972 94.5244 4.972C93.4204 4.972 92.7004 5.764 92.7004 7.084V10H91.7284ZM102.556 10.072C101.524 10.072 101.044 9.436 101.044 8.26V4.996H100.288V4.156H101.044V2.164L102.016 2.056V4.156H103.948V4.996H102.016V8.116C102.016 8.824 102.172 9.16 102.724 9.16C103.072 9.16 103.432 9.016 103.72 8.86L103.972 9.712C103.648 9.904 103.252 10.072 102.556 10.072ZM106.602 3.316L108.018 1.624L109.11 1.612L107.622 3.316H106.602ZM106.938 10.072C105.33 10.072 104.094 8.896 104.094 7.12C104.094 5.392 105.282 4.084 106.938 4.084C107.802 4.084 108.558 4.492 108.978 5.2L109.002 5.188V4.156H109.974V10H109.038V8.944H109.026C108.606 9.64 107.886 10.072 106.938 10.072ZM107.082 9.184C108.162 9.184 109.038 8.356 109.038 7.12C109.038 5.92 108.234 4.972 107.082 4.972C105.978 4.972 105.078 5.824 105.078 7.12C105.078 8.296 105.882 9.184 107.082 9.184ZM113.765 10.072C112.061 10.072 110.849 8.86 110.849 7.084C110.849 5.32 112.061 4.084 113.801 4.084C114.677 4.084 115.577 4.444 116.153 5.128L115.493 5.716C115.121 5.284 114.545 4.972 113.849 4.972C112.649 4.972 111.845 5.848 111.845 7.084C111.845 8.332 112.649 9.184 113.837 9.184C114.533 9.184 115.145 8.884 115.505 8.44L116.177 9.052C115.685 9.64 114.905 10.072 113.765 10.072ZM116.978 10V1.168H117.95V5.176H117.962C118.418 4.48 119.186 4.084 120.122 4.084C121.382 4.084 122.246 4.828 122.246 6.496V10H121.274V6.772C121.274 5.452 120.686 4.972 119.834 4.972C118.67 4.972 117.95 5.74 117.95 7.06V10H116.978ZM128.765 10.072C127.061 10.072 125.849 8.86 125.849 7.084C125.849 5.32 127.061 4.084 128.801 4.084C129.677 4.084 130.577 4.444 131.153 5.128L130.493 5.716C130.121 5.284 129.545 4.972 128.849 4.972C127.649 4.972 126.845 5.848 126.845 7.084C126.845 8.332 127.649 9.184 128.837 9.184C129.533 9.184 130.145 8.884 130.505 8.44L131.177 9.052C130.685 9.64 129.905 10.072 128.765 10.072ZM134.102 3.316L135.518 1.624L136.61 1.612L135.122 3.316H134.102ZM134.438 10.072C132.83 10.072 131.594 8.896 131.594 7.12C131.594 5.392 132.782 4.084 134.438 4.084C135.302 4.084 136.058 4.492 136.478 5.2L136.502 5.188V4.156H137.474V10H136.538V8.944H136.526C136.106 9.64 135.386 10.072 134.438 10.072ZM134.582 9.184C135.662 9.184 136.538 8.356 136.538 7.12C136.538 5.92 135.734 4.972 134.582 4.972C133.478 4.972 132.578 5.824 132.578 7.12C132.578 8.296 133.382 9.184 134.582 9.184ZM141.265 10.072C139.561 10.072 138.349 8.86 138.349 7.084C138.349 5.32 139.561 4.084 141.301 4.084C142.177 4.084 143.077 4.444 143.653 5.128L142.993 5.716C142.621 5.284 142.045 4.972 141.349 4.972C140.149 4.972 139.345 5.848 139.345 7.084C139.345 8.332 140.149 9.184 141.337 9.184C142.033 9.184 142.645 8.884 143.005 8.44L143.677 9.052C143.185 9.64 142.405 10.072 141.265 10.072ZM149.852 10.072C148.784 10.072 147.692 9.664 146.84 8.752L147.512 7.948C148.124 8.716 149.036 9.1 149.864 9.1C150.908 9.1 151.616 8.62 151.616 7.792C151.616 6.844 150.848 6.592 149.708 6.16C148.448 5.692 147.164 5.152 147.164 3.652C147.164 2.38 148.304 1.396 149.768 1.396C150.716 1.396 151.652 1.744 152.456 2.392L151.82 3.22C151.136 2.656 150.404 2.356 149.768 2.356C148.964 2.356 148.256 2.788 148.244 3.604C148.232 4.42 149 4.72 150.068 5.128C151.496 5.692 152.708 6.076 152.708 7.672C152.708 9.232 151.34 10.072 149.852 10.072ZM153.853 10V1.48H156.829C158.821 1.48 159.649 2.608 159.649 4.12C159.649 5.92 158.425 6.748 156.649 6.748H154.897V10H153.853ZM154.897 5.8H156.553C157.969 5.8 158.569 5.08 158.569 4.096C158.569 3.004 157.861 2.428 156.721 2.428H154.897V5.8ZM158.8 11.356L158.02 10.996L162.64 0.76L163.408 1.132L158.8 11.356ZM163.81 10V1.48H166.354C169.054 1.48 170.782 3.232 170.782 5.752C170.782 8.26 169.114 10 166.39 10H163.81ZM164.854 9.052H166.33C168.406 9.052 169.702 7.672 169.702 5.752C169.702 3.808 168.358 2.428 166.366 2.428H164.854V9.052ZM174.033 10L170.817 1.48H171.945L174.501 8.488H174.513L177.069 1.48H178.185L174.969 10H174.033ZM184.222 10.072C182.518 10.072 181.306 8.86 181.306 7.084C181.306 5.32 182.518 4.084 184.258 4.084C185.134 4.084 186.034 4.444 186.61 5.128L185.95 5.716C185.578 5.284 185.002 4.972 184.306 4.972C183.106 4.972 182.302 5.848 182.302 7.084C182.302 8.332 183.106 9.184 184.294 9.184C184.99 9.184 185.602 8.884 185.962 8.44L186.634 9.052C186.142 9.64 185.362 10.072 184.222 10.072ZM189.547 3.316L190.963 1.624L192.055 1.612L190.567 3.316H189.547ZM190.087 10.072C188.275 10.072 187.063 8.764 187.063 7.084C187.063 5.404 188.275 4.084 190.087 4.084C191.815 4.084 193.099 5.308 193.099 7.084C193.099 8.86 191.815 10.072 190.087 10.072ZM190.087 9.184C191.203 9.184 192.103 8.332 192.103 7.084C192.103 5.836 191.215 4.972 190.087 4.972C188.863 4.972 188.059 5.92 188.059 7.084C188.059 8.248 188.875 9.184 190.087 9.184ZM3.456 27.072C1.752 27.072 0.54 25.86 0.54 24.084C0.54 22.32 1.752 21.084 3.492 21.084C4.368 21.084 5.268 21.444 5.844 22.128L5.184 22.716C4.812 22.284 4.236 21.972 3.54 21.972C2.34 21.972 1.536 22.848 1.536 24.084C1.536 25.332 2.34 26.184 3.528 26.184C4.224 26.184 4.836 25.884 5.196 25.44L5.868 26.052C5.376 26.64 4.596 27.072 3.456 27.072ZM8.92581 20.304L7.47381 18.648L8.57781 18.66L9.90981 20.304H8.92581ZM8.73381 27.072C7.38981 27.072 6.53781 26.304 6.53781 24.636V21.156H7.50981V24.36C7.50981 25.68 8.01381 26.184 8.93781 26.184C9.87381 26.184 10.6778 25.38 10.6778 23.988V21.156H11.6498V27H10.6778V25.992H10.6658C10.2218 26.688 9.50181 27.072 8.73381 27.072ZM12.9081 27V21.156H13.8801V22.212H13.8921C14.3481 21.504 15.1161 21.084 16.0161 21.084C17.2761 21.084 18.1161 21.864 18.1161 23.532V27H17.1441V23.808C17.1441 22.44 16.5561 21.972 15.7041 21.972C14.6001 21.972 13.8801 22.764 13.8801 24.084V27H12.9081ZM21.9022 29.448C21.0262 29.448 20.2222 29.232 19.5262 28.812L19.7662 27.948C20.4382 28.332 21.0262 28.56 21.8662 28.56C23.1862 28.56 23.8222 27.792 23.8222 26.808V25.872H23.7982C23.3662 26.496 22.6702 26.892 21.7702 26.892C20.1742 26.892 18.9382 25.74 18.9382 24C18.9382 22.332 20.0902 21.084 21.7342 21.084C22.5622 21.084 23.3182 21.456 23.7862 22.092H23.8102V21.156H24.7822V26.568C24.7822 28.248 23.9422 29.448 21.9022 29.448ZM21.8902 25.992C23.0662 25.992 23.8462 25.116 23.8462 23.952C23.8462 22.776 22.9942 21.984 21.9022 21.984C20.7142 21.984 19.9222 22.836 19.9222 23.976C19.9222 25.212 20.7862 25.992 21.8902 25.992ZM28.787 27V21.156H29.759V22.212H29.771C30.215 21.504 30.947 21.084 31.727 21.084C32.603 21.084 33.239 21.528 33.539 22.332H33.551C33.995 21.54 34.787 21.084 35.699 21.084C36.995 21.084 37.715 21.972 37.715 23.64V27H36.743V23.904C36.743 22.656 36.299 21.972 35.411 21.972C34.499 21.972 33.767 22.788 33.767 24.096V27H32.795V23.904C32.795 22.656 32.315 21.972 31.439 21.972C30.479 21.972 29.759 22.788 29.759 24.096V27H28.787ZM42.5162 20.256C42.1082 20.256 41.7602 20.028 41.4602 19.824C41.2202 19.668 40.9922 19.536 40.7642 19.536C40.4402 19.536 40.2002 19.788 40.0442 20.208L39.4202 19.932C39.6482 19.212 40.0562 18.756 40.6682 18.756C41.0882 18.756 41.3762 18.924 41.6402 19.104C41.8922 19.26 42.1322 19.452 42.4082 19.452C42.6962 19.452 42.9482 19.212 43.1042 18.792L43.7162 18.996C43.5002 19.8 43.0442 20.256 42.5162 20.256ZM41.3642 27.072C39.7562 27.072 38.5202 25.896 38.5202 24.12C38.5202 22.392 39.7082 21.084 41.3642 21.084C42.2282 21.084 42.9842 21.492 43.4042 22.2L43.4282 22.188V21.156H44.4002V27H43.4642V25.944H43.4522C43.0322 26.64 42.3122 27.072 41.3642 27.072ZM41.5082 26.184C42.5882 26.184 43.4642 25.356 43.4642 24.12C43.4642 22.92 42.6602 21.972 41.5082 21.972C40.4042 21.972 39.5042 22.824 39.5042 24.12C39.5042 25.296 40.3082 26.184 41.5082 26.184ZM50.1559 27L47.7799 21.156H48.8359L50.6239 25.764H50.6359L52.4239 21.156H53.4679L51.0919 27H50.1559ZM56.2822 27.072C54.6742 27.072 53.4382 25.896 53.4382 24.12C53.4382 22.392 54.6262 21.084 56.2822 21.084C57.1462 21.084 57.9022 21.492 58.3222 22.2L58.3462 22.188V21.156H59.3182V27H58.3822V25.944H58.3702C57.9502 26.64 57.2302 27.072 56.2822 27.072ZM56.4262 26.184C57.5062 26.184 58.3822 25.356 58.3822 24.12C58.3822 22.92 57.5782 21.972 56.4262 21.972C55.3222 21.972 54.4222 22.824 54.4222 24.12C54.4222 25.296 55.2262 26.184 56.4262 26.184ZM56.4142 28.128C56.8102 28.128 57.1222 28.44 57.1222 28.824C57.1222 29.208 56.8102 29.52 56.4142 29.52C56.0182 29.52 55.7062 29.208 55.7062 28.824C55.7062 28.44 56.0182 28.128 56.4142 28.128ZM63.1083 27.072C61.4043 27.072 60.1923 25.86 60.1923 24.084C60.1923 22.32 61.4043 21.084 63.1443 21.084C64.0203 21.084 64.9203 21.444 65.4963 22.128L64.8363 22.716C64.4643 22.284 63.8883 21.972 63.1923 21.972C61.9923 21.972 61.1883 22.848 61.1883 24.084C61.1883 25.332 61.9923 26.184 63.1803 26.184C63.8763 26.184 64.4883 25.884 64.8483 25.44L65.5203 26.052C65.0283 26.64 64.2483 27.072 63.1083 27.072ZM66.3222 27V18.168H67.2942V22.176H67.3062C67.7622 21.48 68.5302 21.084 69.4662 21.084C70.7262 21.084 71.5902 21.828 71.5902 23.496V27H70.6182V23.772C70.6182 22.452 70.0302 21.972 69.1782 21.972C68.0142 21.972 67.2942 22.74 67.2942 24.06V27H66.3222ZM78.3003 18.888C77.9403 18.888 77.6043 18.996 77.2443 19.284L77.0043 18.72C77.2923 18.468 77.8203 18.192 78.5163 18.192C79.1283 18.192 79.5963 18.468 79.5963 19.116C79.5963 19.704 78.9723 20.16 78.6003 20.352H77.8083C78.3363 19.968 78.7923 19.572 78.7803 19.236C78.7803 18.984 78.5883 18.888 78.3003 18.888ZM81.4683 20.22H82.4643V21.096C82.4643 22.272 81.9843 22.968 81.1083 23.16C81.1803 23.448 81.2283 23.76 81.2283 24.084C81.2283 25.86 79.9443 27.072 78.2163 27.072C76.4043 27.072 75.1923 25.764 75.1923 24.084C75.1923 22.404 76.4043 21.084 78.2163 21.084C79.3683 21.084 80.3163 21.624 80.8323 22.512C81.3723 22.344 81.4683 21.852 81.4683 21.048V20.22ZM78.2163 26.184C79.3323 26.184 80.2323 25.332 80.2323 24.084C80.2323 22.836 79.3443 21.972 78.2163 21.972C76.9923 21.972 76.1883 22.92 76.1883 24.084C76.1883 25.248 77.0043 26.184 78.2163 26.184ZM88.4052 27.072C86.7012 27.072 85.4892 25.86 85.4892 24.084C85.4892 22.32 86.7012 21.084 88.4412 21.084C89.3172 21.084 90.2172 21.444 90.7932 22.128L90.1332 22.716C89.7612 22.284 89.1852 21.972 88.4892 21.972C87.2892 21.972 86.4852 22.848 86.4852 24.084C86.4852 25.332 87.2892 26.184 88.4772 26.184C89.1732 26.184 89.7852 25.884 90.1452 25.44L90.8172 26.052C90.3252 26.64 89.5452 27.072 88.4052 27.072ZM93.743 20.316L95.159 18.624L96.251 18.612L94.763 20.316H93.743ZM94.079 27.072C92.471 27.072 91.235 25.896 91.235 24.12C91.235 22.392 92.423 21.084 94.079 21.084C94.943 21.084 95.699 21.492 96.119 22.2L96.143 22.188V21.156H97.115V27H96.179V25.944H96.167C95.747 26.64 95.027 27.072 94.079 27.072ZM94.223 26.184C95.303 26.184 96.179 25.356 96.179 24.12C96.179 22.92 95.375 21.972 94.223 21.972C93.119 21.972 92.219 22.824 92.219 24.12C92.219 25.296 93.023 26.184 94.223 26.184ZM100.905 27.072C99.2012 27.072 97.9892 25.86 97.9892 24.084C97.9892 22.32 99.2012 21.084 100.941 21.084C101.817 21.084 102.717 21.444 103.293 22.128L102.633 22.716C102.261 22.284 101.685 21.972 100.989 21.972C99.7892 21.972 98.9852 22.848 98.9852 24.084C98.9852 25.332 99.7892 26.184 100.977 26.184C101.673 26.184 102.285 25.884 102.645 25.44L103.317 26.052C102.825 26.64 102.045 27.072 100.905 27.072ZM106.961 27V18.168H107.933V27H106.961ZM113.974 19.284L112.498 17.58H113.59L114.754 19.284H113.974ZM110.134 20.316L111.514 18.636H112.534L113.866 20.316H112.894L112.03 19.248H112.006L111.13 20.316H110.134ZM111.79 27.072C110.182 27.072 108.946 25.896 108.946 24.12C108.946 22.392 110.134 21.084 111.79 21.084C112.654 21.084 113.41 21.492 113.83 22.2L113.854 22.188V21.156H114.826V27H113.89V25.944H113.878C113.458 26.64 112.738 27.072 111.79 27.072ZM111.934 26.184C113.014 26.184 113.89 25.356 113.89 24.12C113.89 22.92 113.086 21.972 111.934 21.972C110.83 21.972 109.93 22.824 109.93 24.12C109.93 25.296 110.734 26.184 111.934 26.184ZM116.072 27V21.156H117.044V22.212H117.056C117.512 21.504 118.28 21.084 119.18 21.084C120.44 21.084 121.28 21.864 121.28 23.532V27H120.308V23.808C120.308 22.44 119.72 21.972 118.868 21.972C117.764 21.972 117.044 22.764 117.044 24.084V27H116.072ZM129.84 29.376V25.992H129.828C129.396 26.664 128.664 27.072 127.74 27.072C126.132 27.072 124.896 25.896 124.896 24.12C124.896 22.392 126.084 21.084 127.74 21.084C128.628 21.084 129.384 21.492 129.828 22.2H129.84V21.156H130.812V29.376H129.84ZM127.884 26.184C128.976 26.184 129.864 25.356 129.864 24.12C129.864 22.92 129.06 21.972 127.884 21.972C126.768 21.972 125.88 22.824 125.88 24.12C125.88 25.296 126.684 26.184 127.884 26.184ZM134.156 27.072C132.812 27.072 131.96 26.304 131.96 24.636V21.156H132.932V24.36C132.932 25.68 133.436 26.184 134.36 26.184C135.296 26.184 136.1 25.38 136.1 23.988V21.156H137.072V27H136.1V25.992H136.088C135.644 26.688 134.924 27.072 134.156 27.072ZM142.734 18.612L141.246 20.316H140.226L141.642 18.624L142.734 18.612ZM143.526 23.976C143.526 24.132 143.502 24.3 143.502 24.372H138.942C139.074 25.464 139.842 26.184 140.946 26.184C141.726 26.184 142.278 25.848 142.638 25.404L143.322 25.98C142.818 26.628 142.086 27.072 140.91 27.072C139.182 27.072 137.958 25.872 137.958 24.084C137.958 22.32 139.17 21.084 140.838 21.084C142.434 21.084 143.526 22.308 143.526 23.976ZM140.826 21.972C139.89 21.972 139.146 22.584 138.966 23.58H142.554C142.41 22.62 141.786 21.972 140.826 21.972ZM146.083 27.072C145.051 27.072 144.571 26.436 144.571 25.26V21.996H143.815V21.156H144.571V19.164L145.543 19.056V21.156H147.475V21.996H145.543V25.116C145.543 25.824 145.699 26.16 146.251 26.16C146.599 26.16 146.959 26.016 147.247 25.86L147.499 26.712C147.175 26.904 146.779 27.072 146.083 27.072ZM151.045 27V18.168H152.017V24.348L152.029 24.36L154.897 21.156H156.073L153.889 23.568L156.097 27H154.981L153.217 24.252L152.017 25.548V27H151.045ZM156.744 27V18.168H157.716V22.176H157.728C158.184 21.48 158.952 21.084 159.888 21.084C161.148 21.084 162.012 21.828 162.012 23.496V27H161.04V23.772C161.04 22.452 160.452 21.972 159.6 21.972C158.436 21.972 157.716 22.74 157.716 24.06V27H156.744ZM165.341 20.316L166.757 18.624L167.849 18.612L166.361 20.316H165.341ZM165.677 27.072C164.069 27.072 162.833 25.896 162.833 24.12C162.833 22.392 164.021 21.084 165.677 21.084C166.541 21.084 167.297 21.492 167.717 22.2L167.741 22.188V21.156H168.713V27H167.777V25.944H167.765C167.345 26.64 166.625 27.072 165.677 27.072ZM165.821 26.184C166.901 26.184 167.777 25.356 167.777 24.12C167.777 22.92 166.973 21.972 165.821 21.972C164.717 21.972 163.817 22.824 163.817 24.12C163.817 25.296 164.621 26.184 165.821 26.184ZM172.503 27.072C170.799 27.072 169.587 25.86 169.587 24.084C169.587 22.32 170.799 21.084 172.539 21.084C173.415 21.084 174.315 21.444 174.891 22.128L174.231 22.716C173.859 22.284 173.283 21.972 172.587 21.972C171.387 21.972 170.583 22.848 170.583 24.084C170.583 25.332 171.387 26.184 172.575 26.184C173.271 26.184 173.883 25.884 174.243 25.44L174.915 26.052C174.423 26.64 173.643 27.072 172.503 27.072ZM178.486 27V21.156H179.458V22.212H179.47C179.926 21.504 180.694 21.084 181.594 21.084C182.854 21.084 183.694 21.864 183.694 23.532V27H182.722V23.808C182.722 22.44 182.134 21.972 181.282 21.972C180.178 21.972 179.458 22.764 179.458 24.084V27H178.486ZM184.9 27V18.168H185.872V22.176H185.884C186.34 21.48 187.108 21.084 188.044 21.084C189.304 21.084 190.168 21.828 190.168 23.496V27H189.196V23.772C189.196 22.452 188.608 21.972 187.756 21.972C186.592 21.972 185.872 22.74 185.872 24.06V27H184.9ZM193.833 27.072C192.225 27.072 190.989 25.896 190.989 24.12C190.989 22.392 192.177 21.084 193.833 21.084C194.697 21.084 195.453 21.492 195.873 22.2L195.897 22.188V21.156H196.869V27H195.933V25.944H195.921C195.501 26.64 194.781 27.072 193.833 27.072ZM193.977 26.184C195.057 26.184 195.933 25.356 195.933 24.12C195.933 22.92 195.129 21.972 193.977 21.972C192.873 21.972 191.973 22.824 191.973 24.12C191.973 25.296 192.777 26.184 193.977 26.184ZM200.179 27.072C198.835 27.072 197.983 26.304 197.983 24.636V21.156H198.955V24.36C198.955 25.68 199.459 26.184 200.383 26.184C201.319 26.184 202.123 25.38 202.123 23.988V21.156H203.095V27H202.123V25.992H202.111C201.667 26.688 200.947 27.072 200.179 27.072ZM204.857 27.084C204.461 27.084 204.137 26.772 204.137 26.376C204.137 25.98 204.461 25.668 204.857 25.668C205.253 25.668 205.565 25.98 205.565 26.376C205.565 26.772 205.253 27.084 204.857 27.084Z" fill="#4C5A61"/>
</svg>
