<svg width="32" height="32" viewBox="0 0 32 32" fill="none" xmlns="http://www.w3.org/2000/svg">
    <rect width="32" height="32" rx="8" fill="#2DB894"/>
    <path d="M16.0792 16.52C16.0325 16.5133 15.9725 16.5133 15.9192 16.52C14.7458 16.48 13.8125 15.52 13.8125 14.34C13.8125 13.1333 14.7858 12.1533 15.9992 12.1533C17.2058 12.1533 18.1858 13.1333 18.1858 14.34C18.1792 15.52 17.2525 16.48 16.0792 16.52Z" stroke="white" stroke-linecap="round" stroke-linejoin="round"/>
    <path d="M20.4925 20.92C19.3059 22.0067 17.7325 22.6667 15.9992 22.6667C14.2659 22.6667 12.6925 22.0067 11.5059 20.92C11.5725 20.2934 11.9725 19.68 12.6859 19.2C14.5125 17.9867 17.4992 17.9867 19.3125 19.2C20.0259 19.68 20.4259 20.2934 20.4925 20.92Z" stroke="white" stroke-linecap="round" stroke-linejoin="round"/>
    <path d="M16.0007 22.6668C19.6825 22.6668 22.6673 19.6821 22.6673 16.0002C22.6673 12.3183 19.6825 9.3335 16.0007 9.3335C12.3188 9.3335 9.33398 12.3183 9.33398 16.0002C9.33398 19.6821 12.3188 22.6668 16.0007 22.6668Z" stroke="white" stroke-linecap="round" stroke-linejoin="round"/>
</svg>
